<svg id="Layer_1" xmlns="http://www.w3.org/2000/svg" viewBox="0 0 201.97 150.5" width="201.97"><defs><style>.cls-1{fill:#fff;}.cls-2{isolation:isolate;}.cls-3{fill:#41bcd9;}.cls-4{fill:#030000;}</style></defs><title>ADR</title><g id="White_interior"><polygon class="cls-1" points="100.69 22.5 20.39 134 180.99 134 100.69 22.5"/></g><g id="Shape"><g class="cls-2"><path class="cls-3" d="M39,174.7a10.48,10.48,0,0,1-9.3-5.7,10.67,10.67,0,0,1,.7-10.9l89-126.5a10.48,10.48,0,0,1,8.6-4.5,10.23,10.23,0,0,1,8.6,4.5l89,126.5a10.57,10.57,0,0,1-8.6,16.6Zm159.2-19.3L127.7,54.7,57.2,155.4Z" transform="translate(-27.01 -25.6)"/><path class="cls-4" d="M128,28.6a9.1,9.1,0,0,1,7.4,3.8l89,126.5a9,9,0,0,1-7.4,14.2H39a9,9,0,0,1-7.4-14.2l89-126.5a9.1,9.1,0,0,1,7.4-3.8M54.3,156.9H201.1L127.7,52,54.3,156.9M128,25.6a11.91,11.91,0,0,0-9.8,5.1l-89,126.5a11.81,11.81,0,0,0-.8,12.4A12,12,0,0,0,39,176.1H217a12,12,0,0,0,9.8-18.9l-89-126.5a12,12,0,0,0-9.8-5.1ZM60.1,153.9l67.6-96.6,67.6,96.6Z" transform="translate(-27.01 -25.6)"/></g></g><path class="cls-4" d="M102.9,108.44a4.78,4.78,0,0,0-4.8,4.7v29.7a4.78,4.78,0,0,0,4.8,4.7h49.9a4.78,4.78,0,0,0,4.8-4.7v-29.7a4.78,4.78,0,0,0-4.8-4.7Zm2.4,4h44.9l-21.8,19.4a1.2,1.2,0,0,1-1.4,0Zm-3.2,2.6,15.2,13.6-15.2,12.6Zm51.4,0v26.1l-15.2-12.6Zm-33.1,16.3,4,3.6a5,5,0,0,0,6.8,0l4-3.6,14.8,12.2H105.6l14.8-12.2Z" transform="translate(-27.01 -25.6)"/></svg>
