<svg id="Layer_1" xmlns="http://www.w3.org/2000/svg" viewBox="0 0 248.4 204" width="248.4"><defs><style>.cls-1{fill:#fff;}.cls-2{fill:#fa0000;}.cls-3{fill:none;stroke:#000;stroke-linecap:round;stroke-miterlimit:10;stroke-width:2px;}</style></defs><title>AVW</title><g id="White_interior"><polygon class="cls-1" points="124.2 22.5 43.9 134 204.5 134 124.2 22.5"/></g><path class="cls-2" d="M38.6,174.7a10.48,10.48,0,0,1-9.3-5.7,10.67,10.67,0,0,1,.7-10.9L119,31.6a10.48,10.48,0,0,1,8.6-4.5,10.23,10.23,0,0,1,8.6,4.5l89,126.5a10.57,10.57,0,0,1-8.6,16.6Zm159.2-19.3L127.3,54.7,56.8,155.4Z" transform="translate(-3.4 -25.6)"/><path d="M127.6,28.6a9.1,9.1,0,0,1,7.4,3.8l89,126.5a9,9,0,0,1-7.4,14.2H38.6a9,9,0,0,1-7.4-14.2l89-126.5a9.1,9.1,0,0,1,7.4-3.8M53.9,156.9H200.7L127.3,52,53.9,156.9M127.6,25.6a11.91,11.91,0,0,0-9.8,5.1l-89,126.5a11.81,11.81,0,0,0-.8,12.4,12,12,0,0,0,10.6,6.5h178a12,12,0,0,0,9.8-18.9l-89-126.5a12,12,0,0,0-9.8-5.1ZM59.7,153.9l67.6-96.6,67.6,96.6Z" transform="translate(-3.4 -25.6)"/><path class="cls-2" d="M24.9,200.9a9.35,9.35,0,0,1-9.3-9.3V191a9.35,9.35,0,0,1,9.3-9.3H230a9.35,9.35,0,0,1,9.3,9.3v.6a9.35,9.35,0,0,1-9.3,9.3Z" transform="translate(-3.4 -25.6)"/><path d="M230,183.2a7.81,7.81,0,0,1,7.8,7.8v.6a7.81,7.81,0,0,1-7.8,7.8H25a7.81,7.81,0,0,1-7.8-7.8V191a7.81,7.81,0,0,1,7.8-7.8H230m0-3H25A10.82,10.82,0,0,0,14.2,191v.6A10.82,10.82,0,0,0,25,202.4H230.1a10.82,10.82,0,0,0,10.8-10.8V191A10.84,10.84,0,0,0,230,180.2Z" transform="translate(-3.4 -25.6)"/><path class="cls-2" d="M14.1,228.1a9.35,9.35,0,0,1-9.3-9.3v-.6a9.35,9.35,0,0,1,9.3-9.3H240.9a9.35,9.35,0,0,1,9.3,9.3v.6a9.35,9.35,0,0,1-9.3,9.3Z" transform="translate(-3.4 -25.6)"/><path d="M240.9,210.4a7.81,7.81,0,0,1,7.8,7.8v.6a7.81,7.81,0,0,1-7.8,7.8H14.2a7.81,7.81,0,0,1-7.8-7.8v-.6a7.81,7.81,0,0,1,7.8-7.8H240.9m0-3H14.2A10.82,10.82,0,0,0,3.4,218.2v.6a10.82,10.82,0,0,0,10.8,10.8H241a10.82,10.82,0,0,0,10.8-10.8v-.6a10.84,10.84,0,0,0-10.9-10.8Z" transform="translate(-3.4 -25.6)"/><path d="M160.2,154.4H60.8a1.07,1.07,0,0,1-.9-1.6l40-60.1a1,1,0,0,1,1.3-.3l1.2.8a2.45,2.45,0,0,1,1.1,1.8l1.3,10.9a5.68,5.68,0,0,0,2,3.6l17.1,14.1a6.36,6.36,0,0,0,3.5,1.4l4.5.3a3.73,3.73,0,0,1,2.3,1L161,152.8A1,1,0,0,1,160.2,154.4Z" transform="translate(-3.4 -25.6)"/><path d="M107.1,96.2l1.6,12,17.2,13c.2.1.4.3.6.3l3.4,1a.56.56,0,0,0,.7-.6l-.6-3.1a1.37,1.37,0,0,0-.5-.8l-14.7-12.8L107.5,96C107.2,96,107.1,96,107.1,96.2Z" transform="translate(-3.4 -25.6)"/><path d="M123.2,95.1c-.1,0-.1.1-.2.1a25.29,25.29,0,0,0-2.2,1.3,1.27,1.27,0,0,1-.6.1.66.66,0,0,1-.4-.5c0-.3,0-.5.3-.7l.1-.1c.7-.4,1.4-.8,2.2-1.3a.35.35,0,0,1,.2-.1c-.1,0-.1-.1-.2-.1a14.17,14.17,0,0,0-1.8-.8.55.55,0,0,1-.4-.6.61.61,0,0,1,.9-.6c.1,0,.1.1.2.1.9.4,1.7.8,2.6,1.2a.19.19,0,0,0,.3,0c1.3-.8,2.6-1.5,3.9-2.2a.1.1,0,0,0,.1-.1l-.1-.1c-1.3-.8-2.6-1.5-4-2.3a.19.19,0,0,0-.3,0l-2.7,1.2a.9.9,0,0,1-.5.1c-.3-.1-.5-.2-.5-.5a.52.52,0,0,1,.3-.7c.1,0,.1-.1.2-.1a14.17,14.17,0,0,1,1.8-.8.31.31,0,0,0,.2-.1c-.1,0-.1-.1-.2-.1l-2.1-1.2c-.1,0-.1-.1-.2-.1a.65.65,0,0,1-.2-.9.67.67,0,0,1,.8-.3c.1,0,.1.1.2.1.7.4,1.4.8,2.2,1.3a.35.35,0,0,0,.2.1v-.6c0-.5-.1-1.1-.1-1.6v-.3a.57.57,0,0,1,.7-.4c.3,0,.5.3.6.6s.1.7.1,1c.1.7.1,1.4.2,2.1,0,.1.1.1.1.2.5.3.9.5,1.4.8.8.5,1.7,1,2.5,1.5a.35.35,0,0,0,.2.1V85.1a.37.37,0,0,0-.1-.3c-.8-.6-1.6-1.1-2.4-1.7-.2-.1-.3-.2-.3-.4a.66.66,0,0,1,.9-.8c.1,0,.1.1.2.1.5.4,1,.7,1.6,1.1a.35.35,0,0,0,.2.1v-3a.75.75,0,0,1,.7-.5.65.65,0,0,1,.6.6v2.9c.1,0,.1-.1.2-.1.6-.4,1.1-.8,1.7-1.2a.64.64,0,0,1,.9.1.67.67,0,0,1,0,1,.35.35,0,0,1-.2.1c-.8.5-1.6,1.1-2.3,1.6-.1.1-.2.2-.2.3v4.7c.1,0,.1,0,.1-.1,1.3-.7,2.6-1.5,3.9-2.2.1-.1.1-.1.1-.2.1-.8.1-1.7.2-2.5a.75.75,0,0,1,.1-.5.73.73,0,0,1,.7-.6.67.67,0,0,1,.6.7c0,.3-.1.6-.1,1s-.1.8-.1,1.3c.1,0,.1-.1.2-.1.8-.5,1.6-.9,2.4-1.4a.9.9,0,0,1,.5-.1.63.63,0,0,1,.6.5c.1.3,0,.5-.3.7-.1,0-.1.1-.2.1-.8.4-1.5.9-2.3,1.3a.35.35,0,0,1-.2.1c.1,0,.1.1.2.1a14.17,14.17,0,0,0,1.8.8.67.67,0,0,1,.4.7.73.73,0,0,1-.9.6c-.1,0-.1,0-.2-.1-.9-.4-1.7-.8-2.6-1.2a.19.19,0,0,0-.3,0c-1.3.7-2.5,1.5-3.8,2.2a.35.35,0,0,1-.2.1.1.1,0,0,1,.1.1c1.3.7,2.5,1.4,3.8,2.2a.19.19,0,0,0,.3,0c.9-.4,1.8-.8,2.6-1.2.1-.1.2-.1.4-.1a.56.56,0,0,1,.6.5.61.61,0,0,1-.3.7c-.1,0-.1.1-.2.1-.6.3-1.2.5-1.7.8a.31.31,0,0,0-.2.1.1.1,0,0,1,.1.1c.8.5,1.6.9,2.4,1.4a.78.78,0,0,1,.4.4.66.66,0,0,1-.9.8c-.1,0-.1-.1-.2-.1-.8-.4-1.5-.9-2.3-1.3a.35.35,0,0,0-.2-.1v.6c0,.5.1,1.1.1,1.6a.6.6,0,0,1-.1.4.67.67,0,0,1-.7.4c-.3,0-.5-.3-.6-.5s-.1-.6-.1-1c-.1-.7-.1-1.4-.2-2.2,0-.1-.1-.1-.1-.2-.8-.4-1.5-.9-2.3-1.3l-1.5-.9a.35.35,0,0,0-.2-.1v4.6c0,.1,0,.2.2.3.8.6,1.6,1.1,2.4,1.7a.6.6,0,0,1,.3.6.69.69,0,0,1-1,.6.1.1,0,0,1-.1-.1c-.5-.4-1.1-.7-1.6-1.1a.35.35,0,0,0-.2-.1v3.2a.75.75,0,0,1-.7.5.56.56,0,0,1-.6-.5v-3c-.1,0-.1.1-.2.1A15.26,15.26,0,0,1,127,100a.66.66,0,0,1-.6.1.68.68,0,0,1-.3-1.1.35.35,0,0,1,.2-.1c.8-.6,1.6-1.1,2.4-1.7.1-.1.1-.1.1-.3V92.3c-.1,0-.1.1-.2.1-1.3.7-2.6,1.5-3.9,2.2-.1.1-.1.1-.1.2-.1,1-.2,2-.3,2.9a.67.67,0,0,1-.5.7.73.73,0,0,1-.9-.6v-.6c0-.5.1-1.1.1-1.6A1.62,1.62,0,0,0,123.2,95.1Z" transform="translate(-3.4 -25.6)"/><line class="cls-3" x1="128.1" y1="83" x2="147.1" y2="102"/><line class="cls-3" x1="147.1" y1="102" x2="141.1" y2="102"/><line class="cls-3" x1="147.1" y1="96" x2="147.1" y2="102"/></svg>
