<svg id="Layer_1" xmlns="http://www.w3.org/2000/svg" viewBox="0 0 248.4 204" width="248.4"><defs><style>.cls-1{fill:#fff;}.cls-2{fill:#fa0000;}.cls-3{isolation:isolate;}</style></defs><title>BLU</title><g id="White_interior"><polygon class="cls-1" points="124.2 22.5 43.9 134 204.5 134 124.2 22.5"/></g><path d="M143.2,90.7c-5.5,2.1-10.7,1.4-15.9-1.2-5.2,2.6-10.4,3.2-15.9,1.2l-8.8,10.6c9.1,14.9.4,18.3.4,28.5,1.3,7.8,8.2,14.8,24.3,20.7,16.1-5.9,23.1-12.9,24.3-20.7,0-10.2-8.7-13.5.4-28.5Z" transform="translate(-3.4 -25.6)"/><path d="M158.8,149.6c-.6-1.3-1.2-2.6-1.8-3.8a17,17,0,0,0,7.8-21.6c1.3-.6,2.6-1.2,3.8-1.8A21,21,0,0,1,158.8,149.6Z" transform="translate(-3.4 -25.6)"/><path d="M155.2,141.8l-1.8-3.9a8.45,8.45,0,0,0,3.7-4.4,8.57,8.57,0,0,0,0-5.7L161,126A12.51,12.51,0,0,1,155.2,141.8Z" transform="translate(-3.4 -25.6)"/><path d="M95.8,149.6c.6-1.3,1.2-2.6,1.8-3.8a17,17,0,0,1-7.8-21.6c-1.3-.6-2.6-1.2-3.8-1.8A21,21,0,0,0,95.8,149.6Z" transform="translate(-3.4 -25.6)"/><path d="M99.4,141.8l1.8-3.9a8.45,8.45,0,0,1-3.7-4.4,8.57,8.57,0,0,1,0-5.7L93.6,126A12.51,12.51,0,0,0,99.4,141.8Z" transform="translate(-3.4 -25.6)"/><path class="cls-2" d="M38.6,174.7a10.48,10.48,0,0,1-9.3-5.7,10.67,10.67,0,0,1,.7-10.9L119,31.6a10.48,10.48,0,0,1,8.6-4.5,10.23,10.23,0,0,1,8.6,4.5l89,126.5a10.57,10.57,0,0,1-8.6,16.6Zm159.2-19.3L127.3,54.7,56.8,155.4Z" transform="translate(-3.4 -25.6)"/><path d="M127.6,28.6a9.1,9.1,0,0,1,7.4,3.8l89,126.5a9,9,0,0,1-7.4,14.2H38.6a9,9,0,0,1-7.4-14.2l89-126.5a9.1,9.1,0,0,1,7.4-3.8M53.9,156.9H200.7L127.3,52,53.9,156.9M127.6,25.6a11.91,11.91,0,0,0-9.8,5.1l-89,126.5a11.81,11.81,0,0,0-.8,12.4,12,12,0,0,0,10.6,6.5h178a12,12,0,0,0,9.8-18.9l-89-126.5a12,12,0,0,0-9.8-5.1ZM59.7,153.9l67.6-96.6,67.6,96.6Z" transform="translate(-3.4 -25.6)"/><path class="cls-2" d="M24.9,200.9a9.35,9.35,0,0,1-9.3-9.3V191a9.35,9.35,0,0,1,9.3-9.3H230a9.35,9.35,0,0,1,9.3,9.3v.6a9.35,9.35,0,0,1-9.3,9.3Z" transform="translate(-3.4 -25.6)"/><path d="M230,183.2a7.81,7.81,0,0,1,7.8,7.8v.6a7.81,7.81,0,0,1-7.8,7.8H25a7.81,7.81,0,0,1-7.8-7.8V191a7.81,7.81,0,0,1,7.8-7.8H230m0-3H25A10.82,10.82,0,0,0,14.2,191v.6A10.82,10.82,0,0,0,25,202.4H230.1a10.82,10.82,0,0,0,10.8-10.8V191A10.84,10.84,0,0,0,230,180.2Z" transform="translate(-3.4 -25.6)"/><path class="cls-2" d="M14.1,228.1a9.35,9.35,0,0,1-9.3-9.3v-.6a9.35,9.35,0,0,1,9.3-9.3H240.9a9.35,9.35,0,0,1,9.3,9.3v.6a9.35,9.35,0,0,1-9.3,9.3Z" transform="translate(-3.4 -25.6)"/><path d="M240.9,210.4a7.81,7.81,0,0,1,7.8,7.8v.6a7.81,7.81,0,0,1-7.8,7.8H14.2a7.81,7.81,0,0,1-7.8-7.8v-.6a7.81,7.81,0,0,1,7.8-7.8H240.9m0-3H14.2A10.82,10.82,0,0,0,3.4,218.2v.6a10.82,10.82,0,0,0,10.8,10.8H241a10.82,10.82,0,0,0,10.8-10.8v-.6a10.84,10.84,0,0,0-10.9-10.8Z" transform="translate(-3.4 -25.6)"/><g class="cls-3"><path class="cls-1" d="M125.3,125.4l-3.4-19.9a3.4,3.4,0,0,1-.1-1c0-2.9,1.9-4.3,5.6-4.3s5.6,1.4,5.6,4.3a3.08,3.08,0,0,1-.1,1l-3.4,19.9Zm2.1,4.2c3.3,0,4.9,1.6,4.9,4.9s-1.6,4.9-4.9,4.9-4.9-1.6-4.9-4.9S124.1,129.6,127.4,129.6Z" transform="translate(-3.4 -25.6)"/></g></svg>
