<svg id="Layer_1" xmlns="http://www.w3.org/2000/svg" viewBox="0 0 248.4 204" width="248.4"><defs><style>.cls-1{fill:#fff;}.cls-2{fill:#fa0000;}</style></defs><title>BZW</title><g id="White_interior"><polygon class="cls-1" points="124.2 22.5 43.9 134 204.5 134 124.2 22.5"/></g><path class="cls-2" d="M38.6,174.7a10.48,10.48,0,0,1-9.3-5.7,10.67,10.67,0,0,1,.7-10.9L119,31.6a10.48,10.48,0,0,1,8.6-4.5,10.23,10.23,0,0,1,8.6,4.5l89,126.5a10.57,10.57,0,0,1-8.6,16.6Zm159.2-19.3L127.3,54.7,56.8,155.4Z" transform="translate(-3.4 -25.6)"/><path d="M127.6,28.6a9.1,9.1,0,0,1,7.4,3.8l89,126.5a9,9,0,0,1-7.4,14.2H38.6a9,9,0,0,1-7.4-14.2l89-126.5a9.1,9.1,0,0,1,7.4-3.8M53.9,156.9H200.7L127.3,52,53.9,156.9M127.6,25.6a11.91,11.91,0,0,0-9.8,5.1l-89,126.5a11.81,11.81,0,0,0-.8,12.4,12,12,0,0,0,10.6,6.5h178a12,12,0,0,0,9.8-18.9l-89-126.5a12,12,0,0,0-9.8-5.1ZM59.7,153.9l67.6-96.6,67.6,96.6Z" transform="translate(-3.4 -25.6)"/><path class="cls-2" d="M24.9,200.9a9.35,9.35,0,0,1-9.3-9.3V191a9.35,9.35,0,0,1,9.3-9.3H230a9.35,9.35,0,0,1,9.3,9.3v.6a9.35,9.35,0,0,1-9.3,9.3Z" transform="translate(-3.4 -25.6)"/><path d="M230,183.2a7.81,7.81,0,0,1,7.8,7.8v.6a7.81,7.81,0,0,1-7.8,7.8H25a7.81,7.81,0,0,1-7.8-7.8V191a7.81,7.81,0,0,1,7.8-7.8H230m0-3H25A10.82,10.82,0,0,0,14.2,191v.6A10.82,10.82,0,0,0,25,202.4H230.1a10.82,10.82,0,0,0,10.8-10.8V191A10.84,10.84,0,0,0,230,180.2Z" transform="translate(-3.4 -25.6)"/><path class="cls-2" d="M14.1,228.1a9.35,9.35,0,0,1-9.3-9.3v-.6a9.35,9.35,0,0,1,9.3-9.3H240.9a9.35,9.35,0,0,1,9.3,9.3v.6a9.35,9.35,0,0,1-9.3,9.3Z" transform="translate(-3.4 -25.6)"/><path d="M240.9,210.4a7.81,7.81,0,0,1,7.8,7.8v.6a7.81,7.81,0,0,1-7.8,7.8H14.2a7.81,7.81,0,0,1-7.8-7.8v-.6a7.81,7.81,0,0,1,7.8-7.8H240.9m0-3H14.2A10.82,10.82,0,0,0,3.4,218.2v.6a10.82,10.82,0,0,0,10.8,10.8H241a10.82,10.82,0,0,0,10.8-10.8v-.6a10.84,10.84,0,0,0-10.9-10.8Z" transform="translate(-3.4 -25.6)"/><path d="M113.8,106.2c-.2,0-.2.2-.4.2-1.3.8-2.8,1.5-4.2,2.5a2.34,2.34,0,0,1-1.1.2c-.4-.2-.8-.6-.8-.9,0-.6,0-.9.6-1.3l.2-.2c1.3-.8,2.6-1.5,4.2-2.5a.7.7,0,0,1,.4-.2c-.2,0-.2-.2-.4-.2a25.18,25.18,0,0,0-3.4-1.5,1.05,1.05,0,0,1-.8-1.1,1.16,1.16,0,0,1,1.7-1.1c.2,0,.2.2.4.2l4.9,2.3a.38.38,0,0,0,.6,0c2.5-1.5,4.9-2.8,7.4-4.2a.2.2,0,0,0,.2-.2l-.2-.2c-2.5-1.5-4.9-2.8-7.5-4.3a.38.38,0,0,0-.6,0c-1.7.8-3.4,1.5-5.1,2.3a1.64,1.64,0,0,1-.9.2c-.6-.2-.9-.4-.9-.9a.93.93,0,0,1,.6-1.3c.2,0,.2-.2.4-.2a25.18,25.18,0,0,1,3.4-1.5.62.62,0,0,0,.4-.2c-.2,0-.2-.2-.4-.2-1.3-.8-2.6-1.5-4-2.3-.2,0-.2-.2-.4-.2a1.19,1.19,0,0,1-.4-1.7,1.22,1.22,0,0,1,1.5-.6c.2,0,.2.2.4.2,1.3.8,2.6,1.5,4.2,2.5a.7.7,0,0,0,.4.2V88.9c0-.9-.2-2.1-.2-3v-.6a1.17,1.17,0,0,1,1.3-.8c.6,0,.9.6,1.1,1.1,0,.6.2,1.3.2,1.9.2,1.3.2,2.6.4,4,0,.2.2.2.2.4.9.6,1.7.9,2.6,1.5l4.7,2.8a.7.7,0,0,0,.4.2V87.5a.73.73,0,0,0-.2-.6c-1.5-1.1-3-2.1-4.5-3.2-.4-.2-.6-.4-.6-.8a1.09,1.09,0,0,1,.4-1.3,1.08,1.08,0,0,1,1.3-.2c.2,0,.2.2.4.2.9.8,1.9,1.3,3,2.1a.7.7,0,0,0,.4.2V78.2a1.38,1.38,0,0,1,1.3-.9,1.18,1.18,0,0,1,1.1,1.1v5.5c.2,0,.2-.2.4-.2l3.2-2.3a1.17,1.17,0,0,1,1.7.2,1.23,1.23,0,0,1,0,1.9.7.7,0,0,1-.4.2c-1.5.9-3,2.1-4.3,3-.2.2-.4.4-.4.6v8.9c.2,0,.2,0,.2-.2,2.5-1.3,4.9-2.8,7.4-4.2.2-.2.2-.2.2-.4.2-1.5.2-3.2.4-4.7,0-.4,0-.8.2-.9a1.34,1.34,0,0,1,1.3-1.1,1.31,1.31,0,0,1,1.1,1.3c0,.6-.2,1.1-.2,1.9s-.2,1.5-.2,2.5c.2,0,.2-.2.4-.2,1.5-.9,3-1.7,4.5-2.6a1.64,1.64,0,0,1,.9-.2,1.17,1.17,0,0,1,1.1.9c.2.6,0,.9-.6,1.3-.2,0-.2.2-.4.2-1.5.8-2.8,1.7-4.3,2.5a.7.7,0,0,1-.4.2c.2,0,.2.2.4.2a25.18,25.18,0,0,0,3.4,1.5,1.29,1.29,0,0,1,.8,1.3,1.31,1.31,0,0,1-1.7,1.1c-.2,0-.2,0-.4-.2l-4.9-2.3a.38.38,0,0,0-.6,0c-2.5,1.3-4.7,2.8-7.2,4.2a.7.7,0,0,1-.4.2.2.2,0,0,1,.2.2c2.5,1.3,4.7,2.6,7.2,4.2a.37.37,0,0,0,.6,0c1.7-.8,3.4-1.5,4.9-2.3.2-.2.4-.2.8-.2a1,1,0,0,1,1.1.9,1.09,1.09,0,0,1-.6,1.3c-.2,0-.2.2-.4.2-1.1.6-2.3.9-3.2,1.5a.62.62,0,0,0-.4.2.2.2,0,0,1,.2.2c1.5.9,3,1.7,4.5,2.6a1.56,1.56,0,0,1,.8.8,1.09,1.09,0,0,1-.4,1.3,1.08,1.08,0,0,1-1.3.2c-.2,0-.2-.2-.4-.2-1.5-.8-2.8-1.7-4.3-2.5a.7.7,0,0,0-.4-.2v1.1c0,.9.2,2.1.2,3a1.2,1.2,0,0,1-.2.8,1.29,1.29,0,0,1-1.3.8c-.5,0-.9-.6-1.1-.9,0-.6-.2-1.1-.2-1.9-.2-1.3-.2-2.6-.4-4.2,0-.2-.2-.2-.2-.4-1.5-.8-2.8-1.7-4.3-2.5-.9-.6-1.9-1.1-2.8-1.7a.7.7,0,0,0-.4-.2v8.7c0,.2,0,.4.4.6,1.5,1.1,3,2.1,4.5,3.2a1.15,1.15,0,0,1,.6,1.1,1.29,1.29,0,0,1-1.9,1.1.2.2,0,0,1-.2-.2c-.9-.8-2.1-1.3-3-2.1a.7.7,0,0,0-.4-.2v6.1a1.38,1.38,0,0,1-1.3.9,1,1,0,0,1-1.1-.9v-5.7c-.2,0-.2.2-.4.2a27.3,27.3,0,0,1-3,2.1c-.4.2-.8.4-1.1.2a1.37,1.37,0,0,1-.6-2.1.7.7,0,0,1,.4-.2c1.5-1.1,3-2.1,4.5-3.2.2-.2.2-.2.2-.6v-8.7c-.2,0-.2.2-.4.2-2.5,1.3-4.9,2.8-7.4,4.2-.2.2-.2.2-.2.4-.2,1.9-.4,3.8-.6,5.5a1.24,1.24,0,0,1-.9,1.3,1.37,1.37,0,0,1-1.7-1.1v-1.1c0-.9.2-2.1.2-3A5.06,5.06,0,0,0,113.8,106.2Z" transform="translate(-3.4 -25.6)"/><path d="M93,132.6c-.1,0-.1.1-.3.1-.9.5-2,1.1-2.9,1.7a2.2,2.2,0,0,1-.8.1.75.75,0,0,1-.5-.7c0-.4,0-.7.4-.9l.1-.1c.9-.5,1.9-1.1,2.9-1.7a.44.44,0,0,1,.3-.1c-.1,0-.1-.1-.3-.1a25.57,25.57,0,0,0-2.4-1.1c-.4-.1-.5-.4-.5-.8a.8.8,0,0,1,1.2-.8c.1,0,.1.1.3.1,1.2.5,2.3,1.1,3.4,1.6a.3.3,0,0,0,.4,0,52.94,52.94,0,0,1,5.2-2.9.1.1,0,0,0,.1-.1l-.1-.1c-1.7-1.1-3.4-2-5.3-3a.3.3,0,0,0-.4,0c-1.2.5-2.4,1.1-3.6,1.6a1.7,1.7,0,0,1-.7.1c-.4-.1-.7-.3-.7-.7s0-.8.4-.9c.1,0,.1-.1.3-.1a25.57,25.57,0,0,1,2.4-1.1.77.77,0,0,0,.3-.1c-.1,0-.1-.1-.3-.1-.9-.5-1.9-1.1-2.8-1.6-.1,0-.1-.1-.3-.1a1,1,0,0,1-.3-1.2,1,1,0,0,1,1.1-.4c.1,0,.1.1.3.1.9.5,1.9,1.1,2.9,1.7a.44.44,0,0,0,.3.1v-.8c0-.7-.1-1.5-.1-2.1v-.4a.65.65,0,0,1,.9-.5c.4,0,.7.4.8.8s.1.9.1,1.3a26.6,26.6,0,0,0,.3,2.8c0,.1.1.1.1.3l1.9,1.1c1.1.7,2.3,1.3,3.3,2a.44.44,0,0,0,.3.1v-6.3a.6.6,0,0,0-.1-.4l-3.2-2.3a.51.51,0,0,1-.4-.5.76.76,0,0,1,.3-.9c.3-.2.7-.3.9-.1.1,0,.1.1.3.1.7.5,1.3.9,2.1,1.5a.44.44,0,0,0,.3.1v-4a1,1,0,0,1,.9-.7.86.86,0,0,1,.8.8v3.9c.1,0,.1-.1.3-.1.8-.5,1.5-1.1,2.3-1.6a.82.82,0,0,1,1.2.1.85.85,0,0,1,0,1.3.44.44,0,0,1-.3.1c-1.1.7-2.1,1.5-3,2.1-.1.1-.3.3-.3.4v6.3c.1,0,.1,0,.1-.1,1.7-.9,3.4-2,5.2-2.9.1-.1.1-.1.1-.3.1-1.1.1-2.3.3-3.3a1.48,1.48,0,0,1,.1-.7,1,1,0,0,1,.9-.8.88.88,0,0,1,.8.9c0,.4-.1.8-.1,1.3s-.1,1.1-.1,1.7c.1,0,.1-.1.3-.1,1.1-.7,2.1-1.2,3.2-1.9a1.7,1.7,0,0,1,.7-.1.85.85,0,0,1,.8.7.7.7,0,0,1-.4.9c-.1,0-.1.1-.3.1-1.1.5-2,1.2-3,1.7a.44.44,0,0,1-.3.1c.1,0,.1.1.3.1a25.57,25.57,0,0,0,2.4,1.1c.4.1.5.5.5.9s-.7.9-1.2.8c-.1,0-.1,0-.3-.1-1.2-.5-2.3-1.1-3.4-1.6a.3.3,0,0,0-.4,0c-1.7.9-3.3,2-5,2.9a.44.44,0,0,1-.3.1.1.1,0,0,1,.1.1c1.7.9,3.3,1.9,5,2.9a.3.3,0,0,0,.4,0c1.2-.5,2.4-1.1,3.4-1.6a.75.75,0,0,1,.5-.1.77.77,0,0,1,.8.7.75.75,0,0,1-.4.9c-.1,0-.1.1-.3.1-.8.4-1.6.7-2.3,1.1a.77.77,0,0,0-.3.1.1.1,0,0,1,.1.1c1.1.7,2.1,1.2,3.2,1.9a.82.82,0,0,1,.5.5.76.76,0,0,1-.3.9.65.65,0,0,1-.9.1c-.1,0-.1-.1-.3-.1-1.1-.5-2-1.2-3-1.7a.44.44,0,0,0-.3-.1v.8c0,.7.1,1.5.1,2.1,0,.1,0,.4-.1.5-.1.4-.5.5-.9.5a1,1,0,0,1-.8-.7c0-.4-.1-.8-.1-1.3-.1-.9-.1-1.9-.3-2.9,0-.1-.1-.1-.1-.3-1.1-.5-2-1.2-3-1.7-.7-.4-1.3-.8-2-1.2a.44.44,0,0,0-.3-.1v6.1a.37.37,0,0,0,.3.4l3.2,2.3c.3.1.4.4.4.8a.88.88,0,0,1-1.3.8.1.1,0,0,1-.1-.1,15.94,15.94,0,0,1-2.1-1.5.44.44,0,0,0-.3-.1v4.3a1,1,0,0,1-.9.7.77.77,0,0,1-.8-.7v-4c-.1,0-.1.1-.3.1-.7.5-1.5,1.1-2.1,1.5-.3.1-.5.3-.8.1-.7-.1-.8-1.1-.4-1.5a.44.44,0,0,1,.3-.1l3.2-2.3c.1-.1.1-.1.1-.4v-6.1c-.1,0-.1.1-.3.1-1.7.9-3.4,2-5.2,2.9-.1.1-.1.1-.1.3-.1,1.3-.3,2.7-.4,3.8a.88.88,0,0,1-.7.9c-.5.1-1.2-.3-1.2-.8v-.8c0-.7.1-1.5.1-2.1C93,132.7,93,132.6,93,132.6Z" transform="translate(-3.4 -25.6)"/><path d="M143.7,140c-.2,0-.2.2-.3.2a30.11,30.11,0,0,0-3.4,2,1.49,1.49,0,0,1-.9.2c-.3-.2-.6-.5-.6-.8,0-.5,0-.8.5-1.1l.2-.2c1.1-.6,2.1-1.2,3.4-2,0,0,.2-.2.3-.2-.2,0-.2-.2-.3-.2a16,16,0,0,0-2.7-1.2.84.84,0,0,1-.6-.9c0-.8.6-1.2,1.4-.9.2,0,.2.2.3.2,1.4.6,2.6,1.2,4,1.8.2.2.3.2.5,0,2-1.2,4-2.3,5.9-3.4a.2.2,0,0,0,.2-.2l-.2-.2c-2-1.2-4-2.3-6.1-3.5-.2-.2-.3-.2-.5,0-1.4.6-2.7,1.2-4.1,1.8a1.2,1.2,0,0,1-.8.2c-.5-.2-.8-.3-.8-.8a.78.78,0,0,1,.5-1.1c.2,0,.2-.2.3-.2a16,16,0,0,1,2.7-1.2.36.36,0,0,0,.3-.2c-.2,0-.2-.2-.3-.2-1.1-.6-2.1-1.2-3.2-1.8-.2,0-.2-.2-.3-.2a1,1,0,0,1-.3-1.4,1.06,1.06,0,0,1,1.2-.5c.2,0,.2.2.3.2,1.1.6,2.1,1.2,3.4,2,0,0,.2.2.3.2v-.9c0-.8-.2-1.7-.2-2.4v-.5c.2-.5.6-.8,1.1-.6.5,0,.8.5.9.9s.2,1.1.2,1.5c.2,1.1.2,2.1.3,3.2,0,.2.2.2.2.3.8.5,1.4.8,2.1,1.2,1.2.8,2.6,1.5,3.8,2.3,0,0,.2.2.3.2v-7.2a.55.55,0,0,0-.2-.5c-1.2-.9-2.4-1.7-3.7-2.6-.3-.2-.5-.3-.5-.6a.91.91,0,0,1,.3-1.1,1.13,1.13,0,0,1,1.1-.2c.2,0,.2.2.3.2.8.6,1.5,1.1,2.4,1.7,0,0,.2.2.3.2v-4.6a1.17,1.17,0,0,1,1.1-.8,1,1,0,0,1,.9.9v4.4c.2,0,.2-.2.3-.2.9-.6,1.7-1.2,2.6-1.8a1,1,0,0,1,1.4.2.94.94,0,0,1,0,1.5s-.2.2-.3.2c-1.2.8-2.4,1.7-3.5,2.4-.2.2-.3.3-.3.5v7.2c.2,0,.2,0,.2-.2,2-1.1,4-2.3,5.9-3.4.2-.2.2-.2.2-.3.2-1.2.2-2.6.3-3.8a1.08,1.08,0,0,1,.2-.8,1.15,1.15,0,0,1,1.1-.9,1,1,0,0,1,.9,1.1c0,.5-.2.9-.2,1.5s-.2,1.2-.2,2c.2,0,.2-.2.3-.2,1.2-.8,2.4-1.4,3.7-2.1a1.2,1.2,0,0,1,.8-.2.88.88,0,0,1,.9.8.89.89,0,0,1-.5,1.1c-.2,0-.2.2-.3.2-1.2.6-2.3,1.4-3.5,2,0,0-.2.2-.3.2.2,0,.2.2.3.2a16,16,0,0,0,2.7,1.2c.5.2.6.6.6,1.1a1.11,1.11,0,0,1-1.4.9c-.2,0-.2,0-.3-.2-1.4-.6-2.6-1.2-4-1.8-.2-.2-.3-.2-.5,0-2,1.1-3.8,2.3-5.8,3.4,0,0-.2.2-.3.2a.2.2,0,0,1,.2.2c2,1.1,3.8,2.1,5.8,3.4.2.2.3.2.5,0,1.4-.6,2.7-1.2,4-1.8.2-.2.3-.2.6-.2a.82.82,0,0,1,.9.8,1,1,0,0,1-.5,1.1c-.2,0-.2.2-.3.2-.9.5-1.8.8-2.6,1.2a.36.36,0,0,0-.3.2.2.2,0,0,1,.2.2c1.2.8,2.4,1.4,3.7,2.1.3.2.5.3.6.6a.91.91,0,0,1-.3,1.1,1.13,1.13,0,0,1-1.1.2c-.2,0-.2-.2-.3-.2-1.2-.6-2.3-1.4-3.5-2,0,0-.2-.2-.3-.2v.9c0,.8.2,1.7.2,2.4,0,.2,0,.5-.2.6-.2.5-.6.6-1.1.6s-.8-.5-.9-.8c0-.5-.2-.9-.2-1.5a33.1,33.1,0,0,1-.3-3.4c0-.2-.2-.2-.2-.3-1.2-.6-2.3-1.4-3.5-2-.8-.5-1.5-.9-2.3-1.4,0,0-.2-.2-.3-.2v7c0,.2,0,.3.3.5,1.2.9,2.4,1.7,3.7,2.6a1.05,1.05,0,0,1,.5.9,1,1,0,0,1-1.5.9.2.2,0,0,1-.2-.2c-.8-.6-1.7-1.1-2.4-1.7,0,0-.2-.2-.3-.2v4.9a1.17,1.17,0,0,1-1.1.8.82.82,0,0,1-.9-.8v-4.6c-.2,0-.2.2-.3.2-.8.6-1.7,1.2-2.4,1.7a1,1,0,0,1-.9.2,1.08,1.08,0,0,1-.5-1.7s.2-.2.3-.2c1.2-.9,2.4-1.7,3.7-2.6.2-.2.2-.2.2-.5v-7c-.2,0-.2.2-.3.2-2,1.1-4,2.3-5.9,3.4-.2.2-.2.2-.2.3-.2,1.5-.3,3-.5,4.4a1.08,1.08,0,0,1-.8,1.1,1.11,1.11,0,0,1-1.4-.9V143c0-.8.2-1.7.2-2.4A2.52,2.52,0,0,0,143.7,140Z" transform="translate(-3.4 -25.6)"/><path d="M123.1,137a.1.1,0,0,0-.1.1,7.46,7.46,0,0,0-1.2.7.37.37,0,0,1-.3.1c-.1-.1-.2-.2-.2-.3s0-.3.2-.4l.1-.1a7.46,7.46,0,0,0,1.2-.7l.1-.1a.1.1,0,0,1-.1-.1,4.18,4.18,0,0,0-1-.4c-.2-.1-.2-.2-.2-.3,0-.3.2-.4.5-.3a.1.1,0,0,1,.1.1,9.14,9.14,0,0,1,1.4.7c.1.1.1.1.2,0,.7-.4,1.4-.8,2.2-1.2a.1.1,0,0,0,.1-.1l-.1-.1c-.7-.4-1.4-.8-2.2-1.3-.1-.1-.1-.1-.2,0a10.09,10.09,0,0,0-1.5.7.37.37,0,0,1-.3.1c-.2-.1-.3-.1-.3-.3s0-.3.2-.4a.1.1,0,0,0,.1-.1,4.18,4.18,0,0,1,1-.4.1.1,0,0,0,.1-.1.1.1,0,0,1-.1-.1,7.46,7.46,0,0,1-1.2-.7.1.1,0,0,1-.1-.1c-.2-.1-.2-.3-.1-.5a.4.4,0,0,1,.4-.2.1.1,0,0,1,.1.1,7.46,7.46,0,0,1,1.2.7l.1.1v-.3c0-.3-.1-.6-.1-.9v-.2c.1-.2.2-.3.4-.2a.32.32,0,0,1,.3.3c0,.2.1.4.1.6a4.87,4.87,0,0,1,.1,1.2.1.1,0,0,0,.1.1,3,3,0,0,0,.8.4,6.38,6.38,0,0,0,1.4.8l.1.1v-2.6c0-.1,0-.1-.1-.2-.4-.3-.9-.6-1.3-.9-.1-.1-.2-.1-.2-.2s0-.3.1-.4a.6.6,0,0,1,.4-.1.1.1,0,0,1,.1.1l.9.6.1.1v-1.7c.1-.2.2-.3.4-.3a.32.32,0,0,1,.3.3v1.6a.1.1,0,0,0,.1-.1,5.5,5.5,0,0,0,.9-.7c.2-.1.3-.1.5.1a.37.37,0,0,1,0,.6l-.1.1c-.4.3-.9.6-1.3.9-.1.1-.1.1-.1.2V134c.1,0,.1,0,.1-.1.7-.4,1.4-.8,2.2-1.2l.1-.1a6.15,6.15,0,0,0,.1-1.4.37.37,0,0,1,.1-.3c.1-.2.2-.3.4-.3s.3.2.3.4-.1.3-.1.6-.1.4-.1.7a.1.1,0,0,0,.1-.1c.4-.3.9-.5,1.3-.8a.37.37,0,0,1,.3-.1.27.27,0,0,1,.3.3c.1.2,0,.3-.2.4a.1.1,0,0,0-.1.1c-.4.2-.8.5-1.3.7l-.1.1a.1.1,0,0,1,.1.1,4.18,4.18,0,0,0,1,.4c.2.1.2.2.2.4a.38.38,0,0,1-.5.3c-.1,0-.1,0-.1-.1a9.14,9.14,0,0,1-1.4-.7c-.1-.1-.1-.1-.2,0l-2.1,1.2-.1.1a.1.1,0,0,1,.1.1l2.1,1.2c.1.1.1.1.2,0a6.11,6.11,0,0,0,1.4-.7c.1-.1.1-.1.2-.1a.27.27,0,0,1,.3.3c.1.2-.1.3-.2.4a.1.1,0,0,0-.1.1,6.31,6.31,0,0,1-.9.4.1.1,0,0,0-.1.1.1.1,0,0,1,.1.1c.4.3.9.5,1.3.8.1.1.2.1.2.2s0,.3-.1.4a.6.6,0,0,1-.4.1.1.1,0,0,1-.1-.1c-.4-.2-.8-.5-1.3-.7l-.1-.1v.3c0,.3.1.6.1.9,0,.1,0,.2-.1.2-.1.2-.2.2-.4.2a.32.32,0,0,1-.3-.3c0-.2-.1-.3-.1-.6a4.87,4.87,0,0,1-.1-1.2.1.1,0,0,0-.1-.1c-.4-.2-.8-.5-1.3-.7a5.58,5.58,0,0,1-.8-.5l-.1-.1v2.6c0,.1,0,.1.1.2.4.3.9.6,1.3.9.1.1.2.2.2.3,0,.3-.3.4-.6.3a.1.1,0,0,1-.1-.1l-.9-.6-.1-.1v1.8c-.1.2-.2.3-.4.3a.27.27,0,0,1-.3-.3v-1.6a.1.1,0,0,0-.1.1l-.9.6a.37.37,0,0,1-.3.1.4.4,0,0,1-.2-.6l.1-.1c.4-.3.9-.6,1.3-.9.1-.1.1-.1.1-.2v-2.6a.1.1,0,0,0-.1.1c-.7.4-1.4.8-2.2,1.2l-.1.1c-.1.6-.1,1.1-.2,1.6,0,.2-.1.3-.3.4a.38.38,0,0,1-.5-.3v-.3c0-.3.1-.6.1-.9C123.1,137.1,123.1,137,123.1,137Z" transform="translate(-3.4 -25.6)"/></svg>
