<svg id="Layer_1" xmlns="http://www.w3.org/2000/svg" viewBox="0 0 248.4 204" width="248.4"><defs><style>.cls-1{fill:#fff;}.cls-2{fill:#fa0000;}.cls-3{fill:#030000;}</style></defs><title>DSW</title><g id="White_interior"><polygon class="cls-1" points="124.2 22.5 43.9 134 204.5 134 124.2 22.5"/></g><path class="cls-2" d="M38.6,174.7a10.48,10.48,0,0,1-9.3-5.7,10.67,10.67,0,0,1,.7-10.9L119,31.6a10.48,10.48,0,0,1,8.6-4.5,10.23,10.23,0,0,1,8.6,4.5l89,126.5a10.57,10.57,0,0,1-8.6,16.6Zm159.2-19.3L127.3,54.7,56.8,155.4Z" transform="translate(-3.4 -25.6)"/><path d="M127.6,28.6a9.1,9.1,0,0,1,7.4,3.8l89,126.5a9,9,0,0,1-7.4,14.2H38.6a9,9,0,0,1-7.4-14.2l89-126.5a9.1,9.1,0,0,1,7.4-3.8M53.9,156.9H200.7L127.3,52,53.9,156.9M127.6,25.6a11.91,11.91,0,0,0-9.8,5.1l-89,126.5a11.81,11.81,0,0,0-.8,12.4,12,12,0,0,0,10.6,6.5h178a12,12,0,0,0,9.8-18.9l-89-126.5a12,12,0,0,0-9.8-5.1ZM59.7,153.9l67.6-96.6,67.6,96.6Z" transform="translate(-3.4 -25.6)"/><path class="cls-2" d="M24.9,200.9a9.35,9.35,0,0,1-9.3-9.3V191a9.35,9.35,0,0,1,9.3-9.3H230a9.35,9.35,0,0,1,9.3,9.3v.6a9.35,9.35,0,0,1-9.3,9.3Z" transform="translate(-3.4 -25.6)"/><path d="M230,183.2a7.81,7.81,0,0,1,7.8,7.8v.6a7.81,7.81,0,0,1-7.8,7.8H25a7.81,7.81,0,0,1-7.8-7.8V191a7.81,7.81,0,0,1,7.8-7.8H230m0-3H25A10.82,10.82,0,0,0,14.2,191v.6A10.82,10.82,0,0,0,25,202.4H230.1a10.82,10.82,0,0,0,10.8-10.8V191A10.84,10.84,0,0,0,230,180.2Z" transform="translate(-3.4 -25.6)"/><path class="cls-2" d="M14.1,228.1a9.35,9.35,0,0,1-9.3-9.3v-.6a9.35,9.35,0,0,1,9.3-9.3H240.9a9.35,9.35,0,0,1,9.3,9.3v.6a9.35,9.35,0,0,1-9.3,9.3Z" transform="translate(-3.4 -25.6)"/><path d="M240.9,210.4a7.81,7.81,0,0,1,7.8,7.8v.6a7.81,7.81,0,0,1-7.8,7.8H14.2a7.81,7.81,0,0,1-7.8-7.8v-.6a7.81,7.81,0,0,1,7.8-7.8H240.9m0-3H14.2A10.82,10.82,0,0,0,3.4,218.2v.6a10.82,10.82,0,0,0,10.8,10.8H241a10.82,10.82,0,0,0,10.8-10.8v-.6a10.84,10.84,0,0,0-10.9-10.8Z" transform="translate(-3.4 -25.6)"/><rect class="cls-3" x="105.3" y="109.8" width="4.3" height="3"/><path class="cls-3" d="M136.7,127.5a1.5,1.5,0,0,0,3,0,8.81,8.81,0,0,1,.2-1.7l-2.8-1.3A13.61,13.61,0,0,0,136.7,127.5Z" transform="translate(-3.4 -25.6)"/><path class="cls-3" d="M137.9,122.5l2.8,1.3a4.55,4.55,0,0,1,3-2.1l-.7-2.9A7.41,7.41,0,0,0,137.9,122.5Z" transform="translate(-3.4 -25.6)"/><rect class="cls-3" x="118.3" y="109.8" width="4.3" height="3"/><rect class="cls-3" x="131.3" y="109.8" width="4.3" height="3"/><rect class="cls-3" x="124.8" y="109.8" width="4.3" height="3"/><rect class="cls-3" x="111.8" y="109.8" width="4.3" height="3"/><path class="cls-3" d="M145.2,118.4h0l.7,3a5.41,5.41,0,0,1,2.7.9l1.9-2.3A9,9,0,0,0,145.2,118.4Z" transform="translate(-3.4 -25.6)"/><path class="cls-3" d="M147.3,134.6l.7,3a10.94,10.94,0,0,0,4.1-2.9l-2.6-1.6A8.55,8.55,0,0,1,147.3,134.6Z" transform="translate(-3.4 -25.6)"/><path class="cls-3" d="M152.1,121.5l-2,2.4a6.71,6.71,0,0,1,1,2.3l3-.2A9.74,9.74,0,0,0,152.1,121.5Z" transform="translate(-3.4 -25.6)"/><path class="cls-3" d="M143.9,135.4h-2.7v3h2.7a13.55,13.55,0,0,0,2-.2l-.7-2.9A5.28,5.28,0,0,1,143.9,135.4Z" transform="translate(-3.4 -25.6)"/><rect class="cls-3" x="98.8" y="109.8" width="4.3" height="3"/><path class="cls-3" d="M154.4,128.4v-.2l-3,.2a5.3,5.3,0,0,1-.7,2.8l2.6,1.6A9.26,9.26,0,0,0,154.4,128.4Z" transform="translate(-3.4 -25.6)"/><path class="cls-3" d="M97.2,135.4a1.5,1.5,0,0,0,0,3H100v-3Z" transform="translate(-3.4 -25.6)"/><rect class="cls-3" x="103.7" y="114.8" width="4" height="3"/><path class="cls-3" d="M132.4,146.5a1.52,1.52,0,1,0-2.9.9,5,5,0,0,0,2.7,3.2l.7-3.1A3,3,0,0,1,132.4,146.5Z" transform="translate(-3.4 -25.6)"/><rect class="cls-3" x="122.1" y="114.8" width="4.5" height="3"/><path class="cls-3" d="M140,147.8a5.92,5.92,0,0,0,.5-1.9,4.23,4.23,0,0,0-1.7-3.5l-1.5,2.8a1.45,1.45,0,0,1,.2.7v.2" transform="translate(-3.4 -25.6)"/><rect class="cls-3" x="116.1" y="114.8" width="3.8" height="3"/><rect class="cls-3" x="109.9" y="114.8" width="4" height="3"/><path class="cls-3" d="M135.1,148l-.7,3h.4a6.09,6.09,0,0,0,3.8-1.4l-2.7-1.8A2.35,2.35,0,0,1,135.1,148Z" transform="translate(-3.4 -25.6)"/><path class="cls-3" d="M102.6,140.4a1.5,1.5,0,0,0,0,3h2.3v-3Z" transform="translate(-3.4 -25.6)"/><path class="cls-3" d="M132.2,140.5v3a15.32,15.32,0,0,1,3.2.5l1.4-2.6A13.34,13.34,0,0,0,132.2,140.5Z" transform="translate(-3.4 -25.6)"/><rect class="cls-3" x="113.9" y="105" width="3.9" height="3"/><path class="cls-3" d="M125.1,133.6a8.46,8.46,0,0,0,4-1l-1.5-2.6a5.42,5.42,0,0,1-2.5.6h-1.7v3Z" transform="translate(-3.4 -25.6)"/><path class="cls-3" d="M126.6,118.5v3.1a5.18,5.18,0,0,1,2.7,1.9l3-.9A8.29,8.29,0,0,0,126.6,118.5Z" transform="translate(-3.4 -25.6)"/><path class="cls-3" d="M133.2,126.2a8.75,8.75,0,0,0-.2-1.6l-2.9.9c0,.2.1.5.1.7a4.07,4.07,0,0,1-.8,2.4l1.6,2.7A7.26,7.26,0,0,0,133.2,126.2Z" transform="translate(-3.4 -25.6)"/><path class="cls-3" d="M118.3,124.4a1.5,1.5,0,0,0,3,0c0-2.1,1.9-2.7,3.1-2.9v-3C121.3,118.8,118.3,120.7,118.3,124.4Z" transform="translate(-3.4 -25.6)"/><path class="cls-3" d="M98.4,130.6a1.5,1.5,0,0,0,0,3h3.9v-3Z" transform="translate(-3.4 -25.6)"/><rect class="cls-3" x="101.1" y="105" width="3.6" height="3"/><rect class="cls-3" x="107" y="105" width="4.7" height="3"/><path class="cls-3" d="M168.7,126.1a13,13,0,0,0-9.5-10.4,12,12,0,0,0-3.2-8.1c-3.3-3.3-8.5-3.3-11.9-3.3-4.3-5.2-8.8-8.6-16.8-8.6-6.5,0-12.6,2.9-17.7,8.4a41.38,41.38,0,0,0-5.3,7.5c-13.4.4-17.9,10.3-17.9,14.9,0,8,5.8,9.7,6,9.8a.6.6,0,0,0,.4.1c.7,0,1.3-.5,1.3-.9a1.54,1.54,0,0,0-1-1.9c-.1,0-3.8-1.2-3.8-6.9,0-2.4,2.8-12,15.8-12a1.57,1.57,0,0,0,1.4-.9c.1-.1,7.1-15,20.8-15,7.1,0,11,3,14.9,8a1.43,1.43,0,0,0,1.2.6h.8c3.1,0,7.3-.1,9.8,2.4,1.5,1.5,2.3,3.9,2.3,7.2a1.51,1.51,0,0,0,1.3,1.5,10.05,10.05,0,0,1,8.2,8.2A8.48,8.48,0,0,1,164,132a3.43,3.43,0,0,1-2.6,1.4h-5.8a1.5,1.5,0,0,0,0,3h5.8a6.26,6.26,0,0,0,4.9-2.5C168.2,131.5,169.1,128,168.7,126.1Z" transform="translate(-3.4 -25.6)"/></svg>
