<svg id="Layer_1" xmlns="http://www.w3.org/2000/svg" viewBox="0 0 248.4 204" width="248.4"><defs><style>.cls-1{fill:#fff;}.cls-2{fill:#fa0000;}</style></defs><title>EVI</title><g id="White_interior"><polygon class="cls-1" points="124.2 22.5 43.9 134 204.5 134 124.2 22.5"/></g><path class="cls-2" d="M38.6,174.7a10.48,10.48,0,0,1-9.3-5.7,10.67,10.67,0,0,1,.7-10.9L119,31.6a10.48,10.48,0,0,1,8.6-4.5,10.23,10.23,0,0,1,8.6,4.5l89,126.5a10.57,10.57,0,0,1-8.6,16.6Zm159.2-19.3L127.3,54.7,56.8,155.4Z" transform="translate(-3.4 -25.6)"/><path d="M127.6,28.6a9.1,9.1,0,0,1,7.4,3.8l89,126.5a9,9,0,0,1-7.4,14.2H38.6a9,9,0,0,1-7.4-14.2l89-126.5a9.1,9.1,0,0,1,7.4-3.8M53.9,156.9H200.7L127.3,52,53.9,156.9M127.6,25.6a11.91,11.91,0,0,0-9.8,5.1l-89,126.5a11.81,11.81,0,0,0-.8,12.4,12,12,0,0,0,10.6,6.5h178a12,12,0,0,0,9.8-18.9l-89-126.5a12,12,0,0,0-9.8-5.1ZM59.7,153.9l67.6-96.6,67.6,96.6Z" transform="translate(-3.4 -25.6)"/><path class="cls-2" d="M24.9,200.9a9.35,9.35,0,0,1-9.3-9.3V191a9.35,9.35,0,0,1,9.3-9.3H230a9.35,9.35,0,0,1,9.3,9.3v.6a9.35,9.35,0,0,1-9.3,9.3Z" transform="translate(-3.4 -25.6)"/><path d="M230,183.2a7.81,7.81,0,0,1,7.8,7.8v.6a7.81,7.81,0,0,1-7.8,7.8H25a7.81,7.81,0,0,1-7.8-7.8V191a7.81,7.81,0,0,1,7.8-7.8H230m0-3H25A10.82,10.82,0,0,0,14.2,191v.6A10.82,10.82,0,0,0,25,202.4H230.1a10.82,10.82,0,0,0,10.8-10.8V191A10.84,10.84,0,0,0,230,180.2Z" transform="translate(-3.4 -25.6)"/><path class="cls-2" d="M14.1,228.1a9.35,9.35,0,0,1-9.3-9.3v-.6a9.35,9.35,0,0,1,9.3-9.3H240.9a9.35,9.35,0,0,1,9.3,9.3v.6a9.35,9.35,0,0,1-9.3,9.3Z" transform="translate(-3.4 -25.6)"/><path d="M240.9,210.4a7.81,7.81,0,0,1,7.8,7.8v.6a7.81,7.81,0,0,1-7.8,7.8H14.2a7.81,7.81,0,0,1-7.8-7.8v-.6a7.81,7.81,0,0,1,7.8-7.8H240.9m0-3H14.2A10.82,10.82,0,0,0,3.4,218.2v.6a10.82,10.82,0,0,0,10.8,10.8H241a10.82,10.82,0,0,0,10.8-10.8v-.6a10.84,10.84,0,0,0-10.9-10.8Z" transform="translate(-3.4 -25.6)"/><path d="M142,119.8a6.11,6.11,0,0,1-.7,1.4,2.51,2.51,0,0,1-2.1,1c-3.4-.1-6.7-.2-10.1-.2a13.35,13.35,0,0,0-2,0,2.63,2.63,0,0,1-2.6-1.6c-.9-1.6-1.8-3.3-2.8-4.9l-.3-.6c-.1.1-.1.2-.2.2-2.2,3.4-4.4,6.7-6.6,10.1-.1.1-.1.2-.2.3s-.1.3.1.5c2.5,1.8,5.1,3.6,7.6,5.4.2.2.5.3.7.5a3.37,3.37,0,0,1,1,4.5c-1.4,2.6-2.7,5.3-4.1,7.9-.7,1.3-1.3,2.5-2,3.8a2.84,2.84,0,0,1-2.8,1.6,3.25,3.25,0,0,1-2.8-4.8c1.3-2.6,2.7-5.1,4-7.7.2-.4.4-.7.6-1.1s.2-.6-.2-.9c-.9-.6-1.8-1.3-2.7-1.9-1.8-1.3-3.6-2.5-5.4-3.8-.6-.4-.7-.4-1.1.2-1.6,2-3.1,4-4.7,5.9a3.36,3.36,0,0,1-3.2,1.5l-12.7-.6a3.12,3.12,0,0,1-3.1-2.6c0-.1,0-.1-.1-.2v-.9a4,4,0,0,1,.8-1.6,3.14,3.14,0,0,1,2.6-1.1l8,.3c.9,0,1.8.1,2.7.1a1.17,1.17,0,0,0,1.1-.5c2.2-2.8,4.5-5.6,6.6-8.5,2.6-3.8,5-7.7,7.5-11.5.3-.4.5-.8.8-1.2s.2-.4-.2-.5c-1.6-.3-3.2-.7-4.8-1a1.29,1.29,0,0,0-1.2.4c-1.2,1-2.5,2-3.7,3s-2.1,1.8-3.2,2.6a2.75,2.75,0,0,1-4.3-1.1,2.71,2.71,0,0,1,.9-3.3c1.9-1.6,3.8-3.1,5.7-4.7l3.5-2.9a3.1,3.1,0,0,1,2.9-.7c3.5.7,6.9,1.5,10.4,2.2a7,7,0,0,1,3.2,1.9,19.54,19.54,0,0,1,3.3,4.8c1.2,2.1,2.3,4.1,3.5,6.2a1,1,0,0,0,.9.6c2.8.1,5.6.2,8.3.2a3.09,3.09,0,0,1,3.3,2.5A2.2,2.2,0,0,0,142,119.8Z" transform="translate(-3.4 -25.6)"/><path d="M127.1,95a5.28,5.28,0,0,1,5.4,5.5,5.45,5.45,0,1,1-5.4-5.5Z" transform="translate(-3.4 -25.6)"/><rect x="126.5" y="105" width="23.4" height="7.6"/><polygon points="166 108.8 158 114.2 149.9 119.6 149.9 108.8 149.9 97.9 158 103.4 166 108.8"/></svg>
