<svg xmlns="http://www.w3.org/2000/svg" viewBox="16 -16 222 222" width="222">
<style type="text/css">
	.st0{fill:#FFFFFF;}
	.st1{fill:#f97301;}
</style>
    <g id="Layer_1_1_">
</g>
    <g id="White_interior">
	<polygon class="st0" points="127.6,48.1 47.3,159.6 207.9,159.6 	"/>
</g>
    <g id="Symbol">
</g>
    <path class="st1" d="M38.6,174.7c-3.9,0-7.5-2.2-9.3-5.7s-1.5-7.7,0.7-10.9l89-126.5c2-2.8,5.1-4.5,8.6-4.5c3.5,0,6.6,1.6,8.6,4.5
	l89,126.5c2.3,3.2,2.5,7.4,0.7,10.9s-5.4,5.7-9.3,5.7H38.6z M197.8,155.4L127.3,54.7L56.8,155.4H197.8z"/>
    <path d="M127.6,28.6c2.8,0,5.6,1.3,7.4,3.8l89,126.5c4.2,6-0.1,14.2-7.4,14.2h-178c-7.3,0-11.6-8.2-7.4-14.2l89-126.5
	C122,29.9,124.8,28.6,127.6,28.6 M53.9,156.9h146.8L127.3,52L53.9,156.9 M127.6,25.6c-3.9,0-7.6,1.9-9.8,5.1l-89,126.5
	c-2.6,3.7-2.9,8.4-0.8,12.4s6.2,6.5,10.6,6.5h178c4.5,0,8.6-2.5,10.6-6.5c2.1-4,1.8-8.8-0.8-12.4l-89-126.5
	C135.1,27.5,131.5,25.6,127.6,25.6L127.6,25.6z M59.7,153.9l67.6-96.6l67.6,96.6H59.7L59.7,153.9z"/>
    <path d="M130.3,98.8c5.6-5.9,12-8.5,12-8.5s-36.3,0-36.3,28.2c0,9.7,6.9,17.8,16,19.7c-5.6,5.9-12,8.5-12,8.5s36.3,0,36.3-28.2
	C146.3,108.8,139.5,100.7,130.3,98.8z M126.2,126.6c-4.5,0-8.1-3.6-8.1-8.1s3.6-8.1,8.1-8.1s8.1,3.6,8.1,8.1
	C134.2,123,130.6,126.6,126.2,126.6z"/>
</svg>
