<svg id="Layer_1" xmlns="http://www.w3.org/2000/svg" viewBox="0 0 248.4 204" width="248.4"><defs><style>.cls-1{fill:#fff;}.cls-2{fill:#fa0000;}.cls-3{fill:#030000;}</style></defs><title>HWW</title><g id="White_interior"><polygon class="cls-1" points="124.2 22.5 43.9 134 204.5 134 124.2 22.5"/></g><path class="cls-2" d="M38.6,174.7a10.48,10.48,0,0,1-9.3-5.7,10.67,10.67,0,0,1,.7-10.9L119,31.6a10.48,10.48,0,0,1,8.6-4.5,10.23,10.23,0,0,1,8.6,4.5l89,126.5a10.57,10.57,0,0,1-8.6,16.6Zm159.2-19.3L127.3,54.7,56.8,155.4Z" transform="translate(-3.4 -25.6)"/><path d="M127.6,28.6a9.1,9.1,0,0,1,7.4,3.8l89,126.5a9,9,0,0,1-7.4,14.2H38.6a9,9,0,0,1-7.4-14.2l89-126.5a9.1,9.1,0,0,1,7.4-3.8M53.9,156.9H200.7L127.3,52,53.9,156.9M127.6,25.6a11.91,11.91,0,0,0-9.8,5.1l-89,126.5a11.81,11.81,0,0,0-.8,12.4,12,12,0,0,0,10.6,6.5h178a12,12,0,0,0,9.8-18.9l-89-126.5a12,12,0,0,0-9.8-5.1ZM59.7,153.9l67.6-96.6,67.6,96.6Z" transform="translate(-3.4 -25.6)"/><path class="cls-2" d="M24.9,200.9a9.35,9.35,0,0,1-9.3-9.3V191a9.35,9.35,0,0,1,9.3-9.3H230a9.35,9.35,0,0,1,9.3,9.3v.6a9.35,9.35,0,0,1-9.3,9.3Z" transform="translate(-3.4 -25.6)"/><path d="M230,183.2a7.81,7.81,0,0,1,7.8,7.8v.6a7.81,7.81,0,0,1-7.8,7.8H25a7.81,7.81,0,0,1-7.8-7.8V191a7.81,7.81,0,0,1,7.8-7.8H230m0-3H25A10.82,10.82,0,0,0,14.2,191v.6A10.82,10.82,0,0,0,25,202.4H230.1a10.82,10.82,0,0,0,10.8-10.8V191A10.84,10.84,0,0,0,230,180.2Z" transform="translate(-3.4 -25.6)"/><path class="cls-2" d="M14.1,228.1a9.35,9.35,0,0,1-9.3-9.3v-.6a9.35,9.35,0,0,1,9.3-9.3H240.9a9.35,9.35,0,0,1,9.3,9.3v.6a9.35,9.35,0,0,1-9.3,9.3Z" transform="translate(-3.4 -25.6)"/><path d="M240.9,210.4a7.81,7.81,0,0,1,7.8,7.8v.6a7.81,7.81,0,0,1-7.8,7.8H14.2a7.81,7.81,0,0,1-7.8-7.8v-.6a7.81,7.81,0,0,1,7.8-7.8H240.9m0-3H14.2A10.82,10.82,0,0,0,3.4,218.2v.6a10.82,10.82,0,0,0,10.8,10.8H241a10.82,10.82,0,0,0,10.8-10.8v-.6a10.84,10.84,0,0,0-10.9-10.8Z" transform="translate(-3.4 -25.6)"/><path class="cls-3" d="M143.9,138.4H97.2a1.5,1.5,0,0,1,0-3h46.7a7.33,7.33,0,0,0,7.5-7c0-3.2-1.6-7-6.2-7-.9,0-5.5.3-5.5,6.1a1.5,1.5,0,0,1-3,0c0-7.2,5.3-9.1,8.5-9.1,5.4,0,9.2,4.1,9.2,10A10.27,10.27,0,0,1,143.9,138.4Z" transform="translate(-3.4 -25.6)"/><path class="cls-3" d="M134.8,151c-1.9,0-4.3-.4-5.3-3.6a1.52,1.52,0,1,1,2.9-.9c.4,1.3,1,1.5,2.4,1.5,1.2,0,2.6-.8,2.6-2.1,0-2.2-4.3-2.5-6.9-2.5H102.6a1.5,1.5,0,0,1,0-3h27.9c8.2,0,9.9,3,9.9,5.5A5.51,5.51,0,0,1,134.8,151Z" transform="translate(-3.4 -25.6)"/><path class="cls-3" d="M125.1,133.6H98.4a1.5,1.5,0,0,1,0-3h26.7c2.8,0,5.1-1.9,5.1-4.4a5,5,0,0,0-4.9-4.8c-.2,0-4,0-4,3a1.5,1.5,0,0,1-3,0c0-4.1,3.6-6,7-6a8,8,0,0,1,7.9,7.8A7.81,7.81,0,0,1,125.1,133.6Z" transform="translate(-3.4 -25.6)"/><path class="cls-3" d="M92.8,136.4a.6.6,0,0,1-.4-.1c-.2-.1-6-1.8-6-9.8,0-4.6,4.5-14.5,17.9-14.9a41.38,41.38,0,0,1,5.3-7.5c5.1-5.5,11.2-8.4,17.7-8.4,8,0,12.5,3.4,16.8,8.6h0c3.4,0,8.6,0,11.9,3.3a12,12,0,0,1,3.2,8.1,13,13,0,0,1,9.5,10.4c.4,1.9-.5,5.4-2.4,7.8a6.26,6.26,0,0,1-4.9,2.5h-5.8a1.5,1.5,0,0,1,0-3h5.8A3.43,3.43,0,0,0,164,132a8.48,8.48,0,0,0,1.8-5.3,10.05,10.05,0,0,0-8.2-8.2,1.51,1.51,0,0,1-1.3-1.5c0-3.3-.8-5.7-2.3-7.2-2.5-2.5-6.7-2.4-9.8-2.4h-.8a1.43,1.43,0,0,1-1.2-.6c-3.9-5-7.8-8-14.9-8-13.7,0-20.7,14.9-20.8,15a1.57,1.57,0,0,1-1.4.9c-13,0-15.8,9.6-15.8,12,0,5.7,3.7,6.9,3.8,6.9a1.54,1.54,0,0,1,1,1.9C94.1,135.9,93.5,136.4,92.8,136.4Z" transform="translate(-3.4 -25.6)"/></svg>
