<?xml version="1.0" encoding="utf-8"?>
<svg version="1.1" xmlns="http://www.w3.org/2000/svg" x="0px" y="0px"
	 viewBox="0 0 52 24" style="enable-background:new 0 0 52 24;" width="52" xml:space="preserve">
<style type="text/css">
	.st0{fill:#D10D26;}
	.st1{enable-background:new    ;}
	.st2{fill:#FFFFFF;}
</style>
<g>
	<path class="st0" d="M49,24H3c-1.6,0-3-1.4-3-3V3c0-1.6,1.4-3,3-3h46c1.7,0,3,1.4,3,3v18C52,22.6,50.7,24,49,24z"/>
</g>
<g class="st1">
	<path class="st2" d="M9.1,18.4V5.6h2.1v11h5.4v1.8H9.1z"/>
	<path class="st2" d="M18.9,18.4V5.6H21v12.8H18.9z"/>
	<path class="st2" d="M31.7,5.6h2.2l-4.5,12.8h-2.2L22.7,5.6h2.2l2.7,8c0.1,0.4,0.3,0.9,0.4,1.5c0.2,0.6,0.3,1,0.3,1.3
		c0.1-0.4,0.2-1,0.4-1.5s0.3-1,0.4-1.3L31.7,5.6z"/>
	<path class="st2" d="M42.9,18.4h-7.3V5.6h7.3v1.8h-5.2v3.5h4.8v1.8h-4.8v4h5.2V18.4z"/>
</g>
</svg>
