<svg id="Layer_1" xmlns="http://www.w3.org/2000/svg" viewBox="0 0 248.4 204" width="248.4"><defs><style>.cls-1{fill:#fff;}.cls-2{fill:#fa0000;}.cls-3{fill:#999;}</style></defs><title>NUW</title><g id="White_interior"><polygon class="cls-1" points="124.2 22.5 43.9 134 204.5 134 124.2 22.5"/></g><path class="cls-2" d="M38.6,174.7a10.48,10.48,0,0,1-9.3-5.7,10.67,10.67,0,0,1,.7-10.9L119,31.6a10.48,10.48,0,0,1,8.6-4.5,10.23,10.23,0,0,1,8.6,4.5l89,126.5a10.57,10.57,0,0,1-8.6,16.6Zm159.2-19.3L127.3,54.7,56.8,155.4Z" transform="translate(-3.4 -25.6)"/><path d="M127.6,28.6a9.1,9.1,0,0,1,7.4,3.8l89,126.5a9,9,0,0,1-7.4,14.2H38.6a9,9,0,0,1-7.4-14.2l89-126.5a9.1,9.1,0,0,1,7.4-3.8M53.9,156.9H200.7L127.3,52,53.9,156.9M127.6,25.6a11.91,11.91,0,0,0-9.8,5.1l-89,126.5a11.81,11.81,0,0,0-.8,12.4,12,12,0,0,0,10.6,6.5h178a12,12,0,0,0,9.8-18.9l-89-126.5a12,12,0,0,0-9.8-5.1ZM59.7,153.9l67.6-96.6,67.6,96.6Z" transform="translate(-3.4 -25.6)"/><path class="cls-2" d="M24.9,200.9a9.35,9.35,0,0,1-9.3-9.3V191a9.35,9.35,0,0,1,9.3-9.3H230a9.35,9.35,0,0,1,9.3,9.3v.6a9.35,9.35,0,0,1-9.3,9.3Z" transform="translate(-3.4 -25.6)"/><path d="M230,183.2a7.81,7.81,0,0,1,7.8,7.8v.6a7.81,7.81,0,0,1-7.8,7.8H25a7.81,7.81,0,0,1-7.8-7.8V191a7.81,7.81,0,0,1,7.8-7.8H230m0-3H25A10.82,10.82,0,0,0,14.2,191v.6A10.82,10.82,0,0,0,25,202.4H230.1a10.82,10.82,0,0,0,10.8-10.8V191A10.84,10.84,0,0,0,230,180.2Z" transform="translate(-3.4 -25.6)"/><path class="cls-2" d="M14.1,228.1a9.35,9.35,0,0,1-9.3-9.3v-.6a9.35,9.35,0,0,1,9.3-9.3H240.9a9.35,9.35,0,0,1,9.3,9.3v.6a9.35,9.35,0,0,1-9.3,9.3Z" transform="translate(-3.4 -25.6)"/><path d="M240.9,210.4a7.81,7.81,0,0,1,7.8,7.8v.6a7.81,7.81,0,0,1-7.8,7.8H14.2a7.81,7.81,0,0,1-7.8-7.8v-.6a7.81,7.81,0,0,1,7.8-7.8H240.9m0-3H14.2A10.82,10.82,0,0,0,3.4,218.2v.6a10.82,10.82,0,0,0,10.8,10.8H241a10.82,10.82,0,0,0,10.8-10.8v-.6a10.84,10.84,0,0,0-10.9-10.8Z" transform="translate(-3.4 -25.6)"/><path d="M113.4,98.9c3.2,5.4,6.3,10.7,9.5,16.1a9.15,9.15,0,0,0-4.4,7.9H99.8a26.75,26.75,0,0,1,2.7-12.1A28.46,28.46,0,0,1,113.4,98.9Z" transform="translate(-3.4 -25.6)"/><path d="M113.9,146.8c3.1-5.4,6.1-10.8,9.2-16.3a9.29,9.29,0,0,0,9-.1c3.2,5.4,6.3,10.7,9.5,16C134.4,151.2,123,152.1,113.9,146.8Z" transform="translate(-3.4 -25.6)"/><path d="M155,122.5H136.4a10.16,10.16,0,0,0-1.3-4.4,9.21,9.21,0,0,0-3.3-3.2c3.1-5.4,6.1-10.8,9.2-16.2C148.5,101.7,156.3,115,155,122.5Z" transform="translate(-3.4 -25.6)"/><path d="M132.8,122.8a5.3,5.3,0,1,1-10.6-.1,5.42,5.42,0,0,1,5.4-5.3A5.33,5.33,0,0,1,132.8,122.8Z" transform="translate(-3.4 -25.6)"/><path class="cls-3" d="M121.4,71.3v1.1h0Z" transform="translate(-3.4 -25.6)"/><path class="cls-3" d="M115.5,94.6c3.6.4,11.3.6,11.3.6H128s7.8-.2,11.3-.6a.46.46,0,0,0,.3-.8c-3.6-4.7-6-12.9-6.2-22.4a.47.47,0,0,0-.5-.5h-.8a.47.47,0,0,1-.5-.5V69a.47.47,0,0,0-.5-.5h-7.4a.47.47,0,0,0-.5.5v1.4a.47.47,0,0,1-.5.5h-.8a.47.47,0,0,0-.5.5v1.1h0c-.4,9-2.8,16.8-6.2,21.3A.5.5,0,0,0,115.5,94.6Z" transform="translate(-3.4 -25.6)"/></svg>
