<svg id="Layer_1" xmlns="http://www.w3.org/2000/svg" viewBox="0 0 248.4 204" width="248.4"><defs><style>.cls-1{fill:#fff;}.cls-2{fill:#fa0000;}</style></defs><title>SMW</title><g id="White_interior"><polygon class="cls-1" points="124.2 22.5 43.9 134 204.5 134 124.2 22.5"/></g><path class="cls-2" d="M38.6,174.7a10.48,10.48,0,0,1-9.3-5.7,10.67,10.67,0,0,1,.7-10.9L119,31.6a10.48,10.48,0,0,1,8.6-4.5,10.23,10.23,0,0,1,8.6,4.5l89,126.5a10.57,10.57,0,0,1-8.6,16.6Zm159.2-19.3L127.3,54.7,56.8,155.4Z" transform="translate(-3.4 -25.6)"/><path d="M127.6,28.6a9.1,9.1,0,0,1,7.4,3.8l89,126.5a9,9,0,0,1-7.4,14.2H38.6a9,9,0,0,1-7.4-14.2l89-126.5a9.1,9.1,0,0,1,7.4-3.8M53.9,156.9H200.7L127.3,52,53.9,156.9M127.6,25.6a11.91,11.91,0,0,0-9.8,5.1l-89,126.5a11.81,11.81,0,0,0-.8,12.4,12,12,0,0,0,10.6,6.5h178a12,12,0,0,0,9.8-18.9l-89-126.5a12,12,0,0,0-9.8-5.1ZM59.7,153.9l67.6-96.6,67.6,96.6Z" transform="translate(-3.4 -25.6)"/><path class="cls-2" d="M24.9,200.9a9.35,9.35,0,0,1-9.3-9.3V191a9.35,9.35,0,0,1,9.3-9.3H230a9.35,9.35,0,0,1,9.3,9.3v.6a9.35,9.35,0,0,1-9.3,9.3Z" transform="translate(-3.4 -25.6)"/><path d="M230,183.2a7.81,7.81,0,0,1,7.8,7.8v.6a7.81,7.81,0,0,1-7.8,7.8H25a7.81,7.81,0,0,1-7.8-7.8V191a7.81,7.81,0,0,1,7.8-7.8H230m0-3H25A10.82,10.82,0,0,0,14.2,191v.6A10.82,10.82,0,0,0,25,202.4H230.1a10.82,10.82,0,0,0,10.8-10.8V191A10.84,10.84,0,0,0,230,180.2Z" transform="translate(-3.4 -25.6)"/><path class="cls-2" d="M14.1,228.1a9.35,9.35,0,0,1-9.3-9.3v-.6a9.35,9.35,0,0,1,9.3-9.3H240.9a9.35,9.35,0,0,1,9.3,9.3v.6a9.35,9.35,0,0,1-9.3,9.3Z" transform="translate(-3.4 -25.6)"/><path d="M240.9,210.4a7.81,7.81,0,0,1,7.8,7.8v.6a7.81,7.81,0,0,1-7.8,7.8H14.2a7.81,7.81,0,0,1-7.8-7.8v-.6a7.81,7.81,0,0,1,7.8-7.8H240.9m0-3H14.2A10.82,10.82,0,0,0,3.4,218.2v.6a10.82,10.82,0,0,0,10.8,10.8H241a10.82,10.82,0,0,0,10.8-10.8v-.6a10.84,10.84,0,0,0-10.9-10.8Z" transform="translate(-3.4 -25.6)"/><path d="M158.6,126.8c-.8,4.8-1.6,9.5-2.4,14.2-1-.7-1.9-1.3-2.9-1.9a.67.67,0,0,0-1,0,48.75,48.75,0,0,1-13.4,7.4,32.94,32.94,0,0,1-12.8,1.9,36.82,36.82,0,0,1-14.1-4,57.48,57.48,0,0,1-8.5-5.3c-.3-.3-.5-.3-.9,0-.9.7-1.9,1.3-2.9,2-.8-4.8-1.6-9.4-2.4-14.2,4.4,2.4,8.7,4.7,13.1,7.1l-3.6,2.4c5.7,4.2,11.9,7.1,19.1,7.8V103H115.7V98.9H126V91.4c-.3-.1-.6-.2-1-.3a7.59,7.59,0,0,1-5.1-8,8.06,8.06,0,0,1,6.4-6.8,8.3,8.3,0,0,1,7.1,1.7,7,7,0,0,1,2.8,7.1,7.74,7.74,0,0,1-5.2,6.1c-.3.1-.5.2-.8.3V99h10.2v4.1H130.2v41.2c7.2-.7,13.4-3.6,19.1-7.8l-3.6-2.4C149.9,131.5,154.2,129.2,158.6,126.8Z" transform="translate(-3.4 -25.6)"/></svg>
