<svg id="Layer_1" xmlns="http://www.w3.org/2000/svg" viewBox="0 0 201.97 150.5" width="201.97"><defs><style>.cls-1{fill:#fff;}.cls-2{isolation:isolate;}.cls-3{fill:#41bcd9;}.cls-4{fill:#231f20;}.cls-5{fill:#999;}.cls-6{fill:#030000;}</style></defs><title>SPS</title><g id="White_interior"><polygon class="cls-1" points="100.69 22.5 20.39 134 180.99 134 100.69 22.5"/></g><g id="Shape"><g class="cls-2"><path class="cls-3" d="M39,174.7a10.48,10.48,0,0,1-9.3-5.7,10.67,10.67,0,0,1,.7-10.9l89-126.5a10.48,10.48,0,0,1,8.6-4.5,10.23,10.23,0,0,1,8.6,4.5l89,126.5a10.57,10.57,0,0,1-8.6,16.6Zm159.2-19.3L127.7,54.7,57.2,155.4Z" transform="translate(-27.01 -25.6)"/><path class="cls-4" d="M128,28.6a9.1,9.1,0,0,1,7.4,3.8l89,126.5a9,9,0,0,1-7.4,14.2H39a9,9,0,0,1-7.4-14.2l89-126.5a9.1,9.1,0,0,1,7.4-3.8M54.3,156.9H201.1L127.7,52,54.3,156.9M128,25.6a11.91,11.91,0,0,0-9.8,5.1l-89,126.5a11.81,11.81,0,0,0-.8,12.4A12,12,0,0,0,39,176.1H217a12,12,0,0,0,9.8-18.9l-89-126.5a12,12,0,0,0-9.8-5.1ZM60.1,153.9l67.6-96.6,67.6,96.6Z" transform="translate(-27.01 -25.6)"/></g></g><path class="cls-5" d="M166.8,121.7a12.47,12.47,0,0,0-8.9-9.9,11.24,11.24,0,0,0-3-7.6c-3.2-3.2-8-3.2-11.3-3.2-3.9-4.9-8.2-8.1-15.8-8.1-6.1,0-11.9,2.8-16.7,8a32.54,32.54,0,0,0-5,7c-12.6.4-16.9,9.8-16.9,14.1,0,7.6,5.5,9.3,5.7,9.4s.3.1.4.1h64.5a6.07,6.07,0,0,0,4.6-2.3C166.2,126.9,167.1,123.5,166.8,121.7Zm-4.7,5.6a3.09,3.09,0,0,1-2.3,1.2H95.6c-.7-.3-3.4-1.7-3.4-6.4,0-2.2,2.6-11.2,14.8-11.2a1.51,1.51,0,0,0,1.4-.9c.1-.1,6.6-14.1,19.4-14.1,5.9,0,9.6,2,13.9,7.6a1.43,1.43,0,0,0,1.2.6h.7c2.9,0,6.9,0,9.2,2.3,1.4,1.4,2.1,3.7,2.1,6.7a1.51,1.51,0,0,0,1.3,1.5,9.28,9.28,0,0,1,7.6,7.7A7.81,7.81,0,0,1,162.1,127.3Z" transform="translate(-27.01 -25.6)"/><g class="cls-2"><path class="cls-6" d="M124.4,122.4,119.2,92a7.57,7.57,0,0,1-.1-1.5c0-4.4,2.9-6.6,8.6-6.6s8.6,2.2,8.6,6.5a8.08,8.08,0,0,1-.1,1.6L131,122.4Zm3.2,6.3q7.5,0,7.5,7.5t-7.5,7.5q-7.5,0-7.5-7.5T127.6,128.7Z" transform="translate(-27.01 -25.6)"/></g></svg>
