<svg id="Layer_1" xmlns="http://www.w3.org/2000/svg" viewBox="0 0 248.4 204" width="248.4"><defs><style>.cls-1{fill:#fff;}.cls-2{fill:#fa0000;}</style></defs><title>SPW</title><g id="White_interior"><polygon class="cls-1" points="124.2 22.5 43.9 134 204.5 134 124.2 22.5"/></g><path class="cls-2" d="M38.6,174.7a10.48,10.48,0,0,1-9.3-5.7,10.67,10.67,0,0,1,.7-10.9L119,31.6a10.48,10.48,0,0,1,8.6-4.5,10.23,10.23,0,0,1,8.6,4.5l89,126.5a10.57,10.57,0,0,1-8.6,16.6Zm159.2-19.3L127.3,54.7,56.8,155.4Z" transform="translate(-3.4 -25.6)"/><path d="M127.6,28.6a9.1,9.1,0,0,1,7.4,3.8l89,126.5a9,9,0,0,1-7.4,14.2H38.6a9,9,0,0,1-7.4-14.2l89-126.5a9.1,9.1,0,0,1,7.4-3.8M53.9,156.9H200.7L127.3,52,53.9,156.9M127.6,25.6a11.91,11.91,0,0,0-9.8,5.1l-89,126.5a11.81,11.81,0,0,0-.8,12.4,12,12,0,0,0,10.6,6.5h178a12,12,0,0,0,9.8-18.9l-89-126.5a12,12,0,0,0-9.8-5.1ZM59.7,153.9l67.6-96.6,67.6,96.6Z" transform="translate(-3.4 -25.6)"/><path class="cls-2" d="M24.9,200.9a9.35,9.35,0,0,1-9.3-9.3V191a9.35,9.35,0,0,1,9.3-9.3H230a9.35,9.35,0,0,1,9.3,9.3v.6a9.35,9.35,0,0,1-9.3,9.3Z" transform="translate(-3.4 -25.6)"/><path d="M230,183.2a7.81,7.81,0,0,1,7.8,7.8v.6a7.81,7.81,0,0,1-7.8,7.8H25a7.81,7.81,0,0,1-7.8-7.8V191a7.81,7.81,0,0,1,7.8-7.8H230m0-3H25A10.82,10.82,0,0,0,14.2,191v.6A10.82,10.82,0,0,0,25,202.4H230.1a10.82,10.82,0,0,0,10.8-10.8V191A10.84,10.84,0,0,0,230,180.2Z" transform="translate(-3.4 -25.6)"/><path class="cls-2" d="M14.1,228.1a9.35,9.35,0,0,1-9.3-9.3v-.6a9.35,9.35,0,0,1,9.3-9.3H240.9a9.35,9.35,0,0,1,9.3,9.3v.6a9.35,9.35,0,0,1-9.3,9.3Z" transform="translate(-3.4 -25.6)"/><path d="M240.9,210.4a7.81,7.81,0,0,1,7.8,7.8v.6a7.81,7.81,0,0,1-7.8,7.8H14.2a7.81,7.81,0,0,1-7.8-7.8v-.6a7.81,7.81,0,0,1,7.8-7.8H240.9m0-3H14.2A10.82,10.82,0,0,0,3.4,218.2v.6a10.82,10.82,0,0,0,10.8,10.8H241a10.82,10.82,0,0,0,10.8-10.8v-.6a10.84,10.84,0,0,0-10.9-10.8Z" transform="translate(-3.4 -25.6)"/><path d="M133.3,132.1v16.5a4.1,4.1,0,0,1-.1,1.1,1.26,1.26,0,0,1-1.4,1.1,9.64,9.64,0,0,0-2.4,0,1.13,1.13,0,0,1-1.2-.8,5,5,0,0,1-.2-1.2V129.4c0-.3-.2-.3-.4-.3s-.4,0-.4.3v19.8c-.2,1.5-.5,1.8-1.9,1.8a12,12,0,0,0-1.9,0,1.25,1.25,0,0,1-1.4-1,6.6,6.6,0,0,1-.1-1.4V115.1c0-.3-.1-.4-.4-.4s-.4.1-.4.4v12A2,2,0,0,1,118,129a1.65,1.65,0,0,1-.9-1.5c0-4.9-.1-9.7,0-14.6a5.62,5.62,0,0,1,5.4-5.2h10.1a5.6,5.6,0,0,1,5.4,5.5v14.1c0,1.2-.5,1.9-1.6,2a1.83,1.83,0,0,1-2.2-1.7,3.4,3.4,0,0,1-.1-1V115.2c0-.3-.1-.4-.4-.4s-.4.1-.4.4v16.9Z" transform="translate(-3.4 -25.6)"/><path d="M132.1,101.9a4.48,4.48,0,0,1-4.5,4.5,4.61,4.61,0,0,1-4.5-4.5,4.5,4.5,0,1,1,9,0Z" transform="translate(-3.4 -25.6)"/><polygon points="164.2 93.1 156.3 93.1 133.7 67.6 114.1 67.6 91.5 93.1 83.6 93.1 111.8 61.4 136 61.4 136 61.4 164.2 93.1"/></svg>
