<svg id="Layer_1" xmlns="http://www.w3.org/2000/svg" viewBox="0 0 248.4 204" width="248.4"><defs><style>.cls-1{fill:#fff;}.cls-2{fill:#fa0000;}.cls-3{fill:#757575;}.cls-4{stroke:#fff;stroke-miterlimit:10;}.cls-5{isolation:isolate;}</style></defs><title>TOE</title><g id="White_interior"><polygon class="cls-1" points="124.2 22.5 43.9 134 204.5 134 124.2 22.5"/></g><path class="cls-2" d="M38.6,174.7a10.48,10.48,0,0,1-9.3-5.7,10.67,10.67,0,0,1,.7-10.9L119,31.6a10.48,10.48,0,0,1,8.6-4.5,10.23,10.23,0,0,1,8.6,4.5l89,126.5a10.57,10.57,0,0,1-8.6,16.6Zm159.2-19.3L127.3,54.7,56.8,155.4Z" transform="translate(-3.4 -25.6)"/><path d="M127.6,28.6a9.1,9.1,0,0,1,7.4,3.8l89,126.5a9,9,0,0,1-7.4,14.2H38.6a9,9,0,0,1-7.4-14.2l89-126.5a9.1,9.1,0,0,1,7.4-3.8M53.9,156.9H200.7L127.3,52,53.9,156.9M127.6,25.6a11.91,11.91,0,0,0-9.8,5.1l-89,126.5a11.81,11.81,0,0,0-.8,12.4,12,12,0,0,0,10.6,6.5h178a12,12,0,0,0,9.8-18.9l-89-126.5a12,12,0,0,0-9.8-5.1ZM59.7,153.9l67.6-96.6,67.6,96.6Z" transform="translate(-3.4 -25.6)"/><path class="cls-2" d="M24.9,200.9a9.35,9.35,0,0,1-9.3-9.3V191a9.35,9.35,0,0,1,9.3-9.3H230a9.35,9.35,0,0,1,9.3,9.3v.6a9.35,9.35,0,0,1-9.3,9.3Z" transform="translate(-3.4 -25.6)"/><path d="M230,183.2a7.81,7.81,0,0,1,7.8,7.8v.6a7.81,7.81,0,0,1-7.8,7.8H25a7.81,7.81,0,0,1-7.8-7.8V191a7.81,7.81,0,0,1,7.8-7.8H230m0-3H25A10.82,10.82,0,0,0,14.2,191v.6A10.82,10.82,0,0,0,25,202.4H230.1a10.82,10.82,0,0,0,10.8-10.8V191A10.84,10.84,0,0,0,230,180.2Z" transform="translate(-3.4 -25.6)"/><path class="cls-2" d="M14.1,228.1a9.35,9.35,0,0,1-9.3-9.3v-.6a9.35,9.35,0,0,1,9.3-9.3H240.9a9.35,9.35,0,0,1,9.3,9.3v.6a9.35,9.35,0,0,1-9.3,9.3Z" transform="translate(-3.4 -25.6)"/><path d="M240.9,210.4a7.81,7.81,0,0,1,7.8,7.8v.6a7.81,7.81,0,0,1-7.8,7.8H14.2a7.81,7.81,0,0,1-7.8-7.8v-.6a7.81,7.81,0,0,1,7.8-7.8H240.9m0-3H14.2A10.82,10.82,0,0,0,3.4,218.2v.6a10.82,10.82,0,0,0,10.8,10.8H241a10.82,10.82,0,0,0,10.8-10.8v-.6a10.84,10.84,0,0,0-10.9-10.8Z" transform="translate(-3.4 -25.6)"/><path class="cls-3" d="M159.6,117.5v2.7c0,.4-.1.9-.1,1.3a31.44,31.44,0,0,1-2.3,9.5A30.59,30.59,0,0,1,147,144.1a31.1,31.1,0,0,1-18.1,6.4,32.47,32.47,0,0,1-11.6-1.9A30.71,30.71,0,0,1,102.8,138a31.18,31.18,0,0,1-6.2-22.4,29.4,29.4,0,0,1,2.9-10.4A31.37,31.37,0,0,1,113.2,91a30.85,30.85,0,0,1,11.4-3.5c.6-.1,1.3-.1,1.9-.2h2.8a.37.37,0,0,1,.3.1c1.3.2,2.6.2,3.8.5a31.17,31.17,0,0,1,15.7,7.8,32.94,32.94,0,0,1,7.8,11,27.19,27.19,0,0,1,2.3,8.9A5.33,5.33,0,0,1,159.6,117.5Zm-10.9,18.9.1-.1c.4-.6.9-1.1,1.3-1.7a30.58,30.58,0,0,0,4.9-13.7,26,26,0,0,0-.9-9.2,27.64,27.64,0,0,0-24.2-19.8,26.71,26.71,0,0,0-13.3,2.4,49.5,49.5,0,0,0-6.3,3.7.1.1,0,0,1-.1.1C123.1,110.9,135.9,123.6,148.7,136.4Zm-41.5-35.3c-.5.8-1,1.5-1.4,2.2a28.8,28.8,0,0,0-4.7,13.6,26.64,26.64,0,0,0,14.3,25.7,26.23,26.23,0,0,0,17.6,2.8,29.6,29.6,0,0,0,9.8-3.9,14.63,14.63,0,0,0,2.8-2.1C132.7,126.8,120,114,107.2,101.1Z" transform="translate(-3.4 -25.6)"/><path class="cls-4" d="M131.4,85.8a9.74,9.74,0,0,1,.2,2.4c-.7,3.8-1.6,7.6-2.4,11.4a18,18,0,0,1-.8,2.1,2,2,0,0,1-2.2,1.4c-1.5-.1-3-.2-4.4-.4-3.7-.4-4.6,0-6.1,3.5a26.07,26.07,0,0,0-2.2,11,41.5,41.5,0,0,0,2,12.6c.9,2.6,2.1,3.6,4.9,3.5,1.5,0,2.9-.3,4.3-.4,2.3-.2,2.9,0,3.8,2.1a30.39,30.39,0,0,1,2.4,9.3,23.08,23.08,0,0,1,.3,3.7,21.3,21.3,0,0,1-.3,2.5l-.9.9a11.35,11.35,0,0,1-4.8,1.2c-3.2.1-6.2-.1-9-1.8-1.1-.7-2.2-1.5-3.3-2.3l-1.5-1.5a17.1,17.1,0,0,0-1.1-1.4,31.15,31.15,0,0,1-5.4-11.5,68,68,0,0,1-1.5-24.2A40.62,40.62,0,0,1,108.1,94a49,49,0,0,1,3.1-4.8l3.3-3.3c.6-.4,1.1-.8,1.6-1.2a9.62,9.62,0,0,1,8.5-1.8,33.83,33.83,0,0,1,6.3,2.3A3.81,3.81,0,0,0,131.4,85.8Z" transform="translate(-3.4 -25.6)"/><g class="cls-5"><path d="M123.9,129a15,15,0,0,1-2-.2,8.3,8.3,0,0,1-2.1-.6l-.3-.1v-4.8l.8.4a6,6,0,0,0,1.9.8,5.55,5.55,0,0,0,1.7.3,3.36,3.36,0,0,0,2.8-1.2,5.66,5.66,0,0,0,1-2.6,2,2,0,0,1-.8.4,6.18,6.18,0,0,1-2.5.5,5.55,5.55,0,0,1-4.5-1.9,7.77,7.77,0,0,1-1.6-5.1,8.12,8.12,0,0,1,1.7-5.4,6.4,6.4,0,0,1,5-2c2.6,0,4.5.9,5.6,2.6s1.7,4.3,1.7,8.1c0,3.5-.7,6.2-2.1,8S126.7,129,123.9,129Zm1.2-17.4a1.58,1.58,0,0,0-1.5.7,3.71,3.71,0,0,0-.6,2.3,4.27,4.27,0,0,0,.6,2.4,1.8,1.8,0,0,0,1.5.7,1.58,1.58,0,0,0,1.5-.7,3.84,3.84,0,0,0,.6-2.4,3.71,3.71,0,0,0-.6-2.3A1.58,1.58,0,0,0,125.1,111.6Z" transform="translate(-3.4 -25.6)"/><path class="cls-1" d="M125,108.1a5.83,5.83,0,0,1,5.2,2.4c1.1,1.6,1.6,4.2,1.6,7.8,0,3.4-.7,6-2,7.7a7.1,7.1,0,0,1-6,2.6,12.25,12.25,0,0,1-1.9-.2,8.93,8.93,0,0,1-2-.6v-3.5a11.33,11.33,0,0,0,2,.9,5.66,5.66,0,0,0,1.8.3,3.88,3.88,0,0,0,3.2-1.4,7.49,7.49,0,0,0,1.2-4.2,3.44,3.44,0,0,1-1.6,1.3,5.27,5.27,0,0,1-2.3.4,5.2,5.2,0,0,1-4.1-1.7,6.9,6.9,0,0,1-1.5-4.8,7.26,7.26,0,0,1,1.6-5.1,6.48,6.48,0,0,1,4.8-1.9m.1,10.1a2.2,2.2,0,0,0,1.9-.9,4.85,4.85,0,0,0,.7-2.7,3.85,3.85,0,0,0-.7-2.6,2.46,2.46,0,0,0-3.8,0,4,4,0,0,0-.7,2.6,4.53,4.53,0,0,0,.7,2.7,2.32,2.32,0,0,0,1.9.9m-.1-11.1a6.64,6.64,0,0,0-5.3,2.1,8.6,8.6,0,0,0-1.9,5.8,8.12,8.12,0,0,0,1.7,5.4,6.32,6.32,0,0,0,4.9,2,7.08,7.08,0,0,0,2.6-.5,8.1,8.1,0,0,1-.6,1.3,2.72,2.72,0,0,1-2.4,1,7.72,7.72,0,0,1-1.5-.2,7.1,7.1,0,0,1-1.8-.8l-1.5-.9v5.9l.6.2a8.3,8.3,0,0,0,2.1.6,14.92,14.92,0,0,0,2.1.2,8.34,8.34,0,0,0,6.8-2.9c1.5-1.9,2.2-4.7,2.2-8.3,0-3.8-.6-6.5-1.8-8.3a7.81,7.81,0,0,0-6.2-2.6Zm.1,10.1a1.13,1.13,0,0,1-1.1-.5,3.58,3.58,0,0,1-.5-2.1,3.44,3.44,0,0,1,.5-2,1.43,1.43,0,0,1,1.1-.5,1.26,1.26,0,0,1,1.1.5,3.58,3.58,0,0,1,.5,2.1,4.06,4.06,0,0,1-.5,2.1c-.1.2-.4.4-1.1.4Z" transform="translate(-3.4 -25.6)"/><polygon points="130.2 102.9 130.2 98.5 134.6 98.5 134.6 86.8 130.5 87.8 130.5 83.3 135 82.2 139.3 82.2 139.3 98.5 143.7 98.5 143.7 102.9 130.2 102.9"/><path class="cls-1" d="M142.2,108.3v16.3h4.4V128H134.1v-3.4h4.4V111.8l-4,1v-3.5l4.1-1h3.6m1-1h-5l-4.1,1-.8.2v5.6l1.2-.3,2.8-.7v10.5h-4.4V129h14.5v-5.4H143V107.3Z" transform="translate(-3.4 -25.6)"/><polygon points="144.5 102.9 144.5 98.5 148.8 98.5 148.8 86.8 144.8 87.8 144.8 83.3 149.3 82.2 153.6 82.2 153.6 98.5 157.9 98.5 157.9 102.9 144.5 102.9"/><path class="cls-1" d="M156.5,108.3v16.3h4.4V128H148.4v-3.4h4.4V111.8l-4,1v-3.5l4.1-1h3.6m1-1h-5l-4.1,1-.8.2v5.6l1.2-.3,2.8-.7v10.5h-4.4V129h14.5v-5.4h-4.4V107.3Z" transform="translate(-3.4 -25.6)"/></g></svg>
