<svg id="Layer_1" xmlns="http://www.w3.org/2000/svg" viewBox="0 0 248.4 204" width="248.4"><defs><style>.cls-1{fill:#fff;}.cls-2{fill:#fa0000;}.cls-3{fill:#030000;}</style></defs><title>VOW</title><g id="White_interior"><polygon class="cls-1" points="124.2 22.5 43.9 134 204.5 134 124.2 22.5"/></g><path class="cls-2" d="M24.9,200.9a9.35,9.35,0,0,1-9.3-9.3V191a9.35,9.35,0,0,1,9.3-9.3H230a9.35,9.35,0,0,1,9.3,9.3v.6a9.35,9.35,0,0,1-9.3,9.3Z" transform="translate(-3.4 -25.6)"/><path d="M230,183.2a7.81,7.81,0,0,1,7.8,7.8v.6a7.81,7.81,0,0,1-7.8,7.8H25a7.81,7.81,0,0,1-7.8-7.8V191a7.81,7.81,0,0,1,7.8-7.8H230m0-3H25A10.82,10.82,0,0,0,14.2,191v.6A10.82,10.82,0,0,0,25,202.4H230.1a10.82,10.82,0,0,0,10.8-10.8V191A10.84,10.84,0,0,0,230,180.2Z" transform="translate(-3.4 -25.6)"/><path class="cls-2" d="M14.1,228.1a9.35,9.35,0,0,1-9.3-9.3v-.6a9.35,9.35,0,0,1,9.3-9.3H240.9a9.35,9.35,0,0,1,9.3,9.3v.6a9.35,9.35,0,0,1-9.3,9.3Z" transform="translate(-3.4 -25.6)"/><path d="M240.9,210.4a7.81,7.81,0,0,1,7.8,7.8v.6a7.81,7.81,0,0,1-7.8,7.8H14.2a7.81,7.81,0,0,1-7.8-7.8v-.6a7.81,7.81,0,0,1,7.8-7.8H240.9m0-3H14.2A10.82,10.82,0,0,0,3.4,218.2v.6a10.82,10.82,0,0,0,10.8,10.8H241a10.82,10.82,0,0,0,10.8-10.8v-.6a10.84,10.84,0,0,0-10.9-10.8Z" transform="translate(-3.4 -25.6)"/><path class="cls-2" d="M38.6,174.7a10.48,10.48,0,0,1-9.3-5.7,10.67,10.67,0,0,1,.7-10.9L119,31.6a10.48,10.48,0,0,1,8.6-4.5,10.23,10.23,0,0,1,8.6,4.5l89,126.5a10.57,10.57,0,0,1-8.6,16.6Zm159.2-19.3L127.3,54.7,56.8,155.4Z" transform="translate(-3.4 -25.6)"/><path d="M127.6,28.6a9.1,9.1,0,0,1,7.4,3.8l89,126.5a9,9,0,0,1-7.4,14.2H38.6a9,9,0,0,1-7.4-14.2l89-126.5a9.1,9.1,0,0,1,7.4-3.8ZM53.9,156.9H200.7L127.3,52,53.9,156.9ZM127.6,25.6a11.91,11.91,0,0,0-9.8,5.1l-89,126.5a11.81,11.81,0,0,0-.8,12.4,12,12,0,0,0,10.6,6.5h178a12,12,0,0,0,9.8-18.9l-89-126.5a12,12,0,0,0-9.8-5.1ZM59.7,153.9l67.6-96.6,67.6,96.6Z" transform="translate(-3.4 -25.6)"/><path class="cls-3" d="M86.3,154.9h71.2v-1.1a5.91,5.91,0,0,0-1.9-4.3c-3.4-3.2-11.5-12.4-26.8-38.2a4,4,0,0,0-3.4-2H115.3a6,6,0,0,0-4.3,1.8c-3,3-8.7,10-12.4,22a59.73,59.73,0,0,1-7.9,16.5A28,28,0,0,1,86.3,154.9Z" transform="translate(-3.4 -25.6)"/><path class="cls-3" d="M137,77c-.3-1.7-.7-3.6-2.3-4.3a3.48,3.48,0,0,0-3.6.8,10.16,10.16,0,0,0-2.2,3.2,30.9,30.9,0,0,0-1.4,3.2c-1.3,3.5-1.4,7.4-3.4,10.5a1.17,1.17,0,0,1-.6.6,2,2,0,0,1-.8.1c-2-.2-4.1-1.2-5.9-.3a4.36,4.36,0,0,0-1.9,1.9,10,10,0,0,0-1,5.9,29.09,29.09,0,0,0,1.5,5.8,6.81,6.81,0,0,0,1,2.1,2.33,2.33,0,0,0,2,1c1.4-.1,2.2-1.7,2.1-3.1s-.6-2.7-.5-4.1,1.1-3,2.5-2.8c1.6.2,2.2,2.4,3.8,2.8a2.45,2.45,0,0,0,2.5-.9,6,6,0,0,0,1.1-2.6,16.48,16.48,0,0,0,.4-3.2,18.7,18.7,0,0,1,.3-3.4,3.49,3.49,0,0,1,2.2-2.5,5.52,5.52,0,0,1,2.2.1,3,3,0,0,0,2.1-.2c1.2-.6,1-2,.8-3.1-.2-1.6-.5-3.2-.7-4.9A7.44,7.44,0,0,0,137,77Z" transform="translate(-3.4 -25.6)"/></svg>
