<svg id="Layer_1" xmlns="http://www.w3.org/2000/svg" viewBox="0 0 226.7 176.8" width="226.7"><defs><style>.cls-1{fill:#fff;}.cls-2{fill:#f97301;}.cls-3{fill:#231f20;}</style></defs><title>WSA</title><g id="White_interior"><polygon class="cls-1" points="113.4 22.5 33.1 134 193.7 134 113.4 22.5"/></g><path class="cls-2" d="M38.6,174.7a10.48,10.48,0,0,1-9.3-5.7,10.67,10.67,0,0,1,.7-10.9L119,31.6a10.48,10.48,0,0,1,8.6-4.5,10.23,10.23,0,0,1,8.6,4.5l89,126.5a10.57,10.57,0,0,1-8.6,16.6Zm159.2-19.3L127.3,54.7,56.8,155.4Z" transform="translate(-14.2 -25.6)"/><path d="M127.6,28.6a9.1,9.1,0,0,1,7.4,3.8l89,126.5a9,9,0,0,1-7.4,14.2H38.6a9,9,0,0,1-7.4-14.2l89-126.5a9.1,9.1,0,0,1,7.4-3.8M53.9,156.9H200.7L127.3,52,53.9,156.9M127.6,25.6a11.91,11.91,0,0,0-9.8,5.1l-89,126.5a11.81,11.81,0,0,0-.8,12.4,12,12,0,0,0,10.6,6.5h178a12,12,0,0,0,9.8-18.9l-89-126.5a12,12,0,0,0-9.8-5.1ZM59.7,153.9l67.6-96.6,67.6,96.6Z" transform="translate(-14.2 -25.6)"/><path class="cls-2" d="M24.9,200.9a9.35,9.35,0,0,1-9.3-9.3V191a9.35,9.35,0,0,1,9.3-9.3H230a9.35,9.35,0,0,1,9.3,9.3v.6a9.35,9.35,0,0,1-9.3,9.3Z" transform="translate(-14.2 -25.6)"/><path d="M230,183.2a7.81,7.81,0,0,1,7.8,7.8v.6a7.81,7.81,0,0,1-7.8,7.8H25a7.81,7.81,0,0,1-7.8-7.8V191a7.81,7.81,0,0,1,7.8-7.8H230m0-3H25A10.82,10.82,0,0,0,14.2,191v.6A10.82,10.82,0,0,0,25,202.4H230.1a10.82,10.82,0,0,0,10.8-10.8V191A10.84,10.84,0,0,0,230,180.2Z" transform="translate(-14.2 -25.6)"/><path d="M128.3,134c-.1,0-.1.1-.2.1-.5.3-1.2.6-1.8,1a.9.9,0,0,1-.5.1.54.54,0,0,1-.3-.4c0-.3,0-.4.3-.5l.1-.1c.5-.3,1.1-.6,1.8-1a.35.35,0,0,1,.2-.1c-.1,0-.1-.1-.2-.1a5.34,5.34,0,0,0-1.4-.6c-.3-.1-.3-.3-.3-.5a.51.51,0,0,1,.7-.5c.1,0,.1.1.2.1a18.65,18.65,0,0,1,2,1,.19.19,0,0,0,.3,0c1-.6,2-1.2,3.1-1.8a.1.1,0,0,0,.1-.1l-.1-.1c-1-.6-2-1.2-3.1-1.8a.19.19,0,0,0-.3,0,20,20,0,0,0-2.1,1,.76.76,0,0,1-.4.1c-.3-.1-.4-.2-.4-.4s0-.5.3-.5c.1,0,.1-.1.2-.1a5.34,5.34,0,0,1,1.4-.6.31.31,0,0,0,.2-.1c-.1,0-.1-.1-.2-.1-.5-.3-1.1-.6-1.7-1-.1,0-.1-.1-.2-.1a.53.53,0,0,1-.2-.7.6.6,0,0,1,.6-.3c.1,0,.1.1.2.1.5.3,1.1.6,1.8,1a.35.35,0,0,0,.2.1v-.5c0-.4-.1-.9-.1-1.3V125c.1-.3.3-.4.5-.3s.4.3.5.5.1.5.1.8c.1.5.1,1.1.2,1.7,0,.1.1.1.1.2a6,6,0,0,0,1.1.6c.6.4,1.3.8,2,1.2a.35.35,0,0,0,.2.1v-3.7a.37.37,0,0,0-.1-.3,21.41,21.41,0,0,0-1.9-1.3q-.3-.15-.3-.3c-.1-.3,0-.4.2-.5s.4-.2.5-.1.1.1.2.1c.4.3.8.5,1.3.9a.35.35,0,0,0,.2.1v-2.5a.51.51,0,0,1,.5-.4.54.54,0,0,1,.5.5v2.4c.1,0,.1-.1.2-.1a6.42,6.42,0,0,0,1.3-1c.3-.2.5-.2.7.1s.3.5,0,.8a.35.35,0,0,1-.2.1c-.6.4-1.3.9-1.8,1.3-.1.1-.2.2-.2.3v3.7c.1,0,.1,0,.1-.1,1-.5,2-1.2,3.1-1.8.1-.1.1-.1.1-.2.1-.6.1-1.3.2-2,0-.2,0-.3.1-.4.1-.3.3-.5.5-.5a.64.64,0,0,1,.5.5c0,.3-.1.5-.1.8s-.1.6-.1,1c.1,0,.1-.1.2-.1.6-.4,1.3-.7,1.9-1.1a.76.76,0,0,1,.4-.1c.3,0,.4.2.5.4s0,.4-.3.5c-.1,0-.1.1-.2.1-.6.3-1.2.7-1.8,1a.35.35,0,0,1-.2.1c.1,0,.1.1.2.1a5.34,5.34,0,0,0,1.4.6c.3.1.3.3.3.5s-.4.5-.7.5c-.1,0-.1,0-.2-.1a18.65,18.65,0,0,1-2-1,.19.19,0,0,0-.3,0c-1,.5-2,1.2-3,1.8a.35.35,0,0,1-.2.1.1.1,0,0,1,.1.1,23.81,23.81,0,0,1,3,1.8.19.19,0,0,0,.3,0,12.44,12.44,0,0,0,2-1,.37.37,0,0,1,.3-.1.46.46,0,0,1,.5.4.35.35,0,0,1-.3.5c-.1,0-.1.1-.2.1-.5.3-1,.4-1.3.6a.31.31,0,0,0-.2.1.1.1,0,0,1,.1.1c.6.4,1.3.7,1.9,1.1q.3.15.3.3c.1.3,0,.4-.2.5s-.4.2-.5.1-.1-.1-.2-.1c-.6-.3-1.2-.7-1.8-1a.35.35,0,0,0-.2-.1v.5c0,.4.1.9.1,1.3,0,.1,0,.3-.1.3-.1.3-.3.3-.5.3s-.4-.3-.5-.4c0-.3-.1-.5-.1-.8-.1-.5-.1-1.1-.2-1.8,0-.1-.1-.1-.1-.2-.6-.3-1.2-.7-1.8-1a7.46,7.46,0,0,0-1.2-.7.35.35,0,0,0-.2-.1V135c0,.1,0,.2.2.3a21.41,21.41,0,0,0,1.9,1.3.55.55,0,0,1,.3.5c0,.4-.4.6-.8.5a.1.1,0,0,1-.1-.1,10.14,10.14,0,0,1-1.3-.9.35.35,0,0,0-.2-.1v2.6a.51.51,0,0,1-.5.4.46.46,0,0,1-.5-.4v-2.4c-.1,0-.1.1-.2.1-.4.3-.9.6-1.3.9-.2.1-.3.2-.5.1a.59.59,0,0,1-.3-.9.35.35,0,0,1,.2-.1,21.41,21.41,0,0,1,1.9-1.3c.1-.1.1-.1.1-.3v-3.7c-.1,0-.1.1-.2.1-1,.5-2,1.2-3.1,1.8-.1.1-.1.1-.1.2-.1.8-.2,1.6-.3,2.3a.46.46,0,0,1-.4.5.59.59,0,0,1-.7-.5v-.5c0-.4.1-.9.1-1.3Z" transform="translate(-14.2 -25.6)"/><path d="M113.9,138.9a.1.1,0,0,0-.1.1,7.46,7.46,0,0,0-1.2.7.37.37,0,0,1-.3.1c-.1-.1-.2-.2-.2-.3s0-.3.2-.4l.1-.1c.4-.2.7-.4,1.2-.7l.1-.1a.1.1,0,0,1-.1-.1,3,3,0,0,0-1-.4c-.2-.1-.2-.2-.2-.3,0-.3.2-.4.5-.3a.1.1,0,0,1,.1.1c.5.2.9.4,1.4.6.1.1.1.1.2,0l2.1-1.2a.1.1,0,0,0,.1-.1l-.1-.1-2.1-1.2c-.1-.1-.1-.1-.2,0-.5.2-1,.4-1.4.6a.37.37,0,0,1-.3.1c-.2-.1-.3-.1-.3-.3s0-.3.2-.4a.1.1,0,0,0,.1-.1,3,3,0,0,1,1-.4.1.1,0,0,0,.1-.1.1.1,0,0,1-.1-.1c-.4-.2-.7-.4-1.1-.6a.1.1,0,0,1-.1-.1c-.2-.1-.2-.3-.1-.5a.4.4,0,0,1,.4-.2.1.1,0,0,1,.1.1c.4.2.7.4,1.2.7l.1.1v-.3c0-.3-.1-.6-.1-.8v-.2c.1-.2.2-.3.4-.2a.32.32,0,0,1,.3.3,4.33,4.33,0,0,0,.1.5,4.1,4.1,0,0,1,.1,1.1.1.1,0,0,0,.1.1,5.74,5.74,0,0,0,.7.4c.4.3.9.5,1.3.8l.1.1v-2.5c0-.1,0-.1-.1-.2a14.63,14.63,0,0,0-1.3-.9c-.1-.1-.2-.1-.2-.2s0-.3.1-.4a.6.6,0,0,1,.4-.1.1.1,0,0,1,.1.1c.3.2.5.4.8.6l.1.1v-1.6c.1-.2.2-.3.4-.3a.32.32,0,0,1,.3.3v1.5a.1.1,0,0,0,.1-.1l.9-.6c.2-.1.3-.1.5.1s.2.4,0,.5l-.1.1a8.34,8.34,0,0,1-1.2.8c-.1.1-.1.1-.1.2v2.5c.1,0,.1,0,.1-.1l2.1-1.2.1-.1a5.7,5.7,0,0,0,.1-1.3.37.37,0,0,1,.1-.3c.1-.2.2-.3.4-.3a.45.45,0,0,1,.3.4c0,.2-.1.3-.1.5s-.1.4-.1.7a.1.1,0,0,0,.1-.1,5.39,5.39,0,0,1,1.3-.7.37.37,0,0,1,.3-.1.27.27,0,0,1,.3.3c.1.2,0,.3-.2.4a.1.1,0,0,0-.1.1c-.4.2-.8.5-1.2.7l-.1.1a.1.1,0,0,1,.1.1,3,3,0,0,0,1,.4c.2.1.2.2.2.4a.38.38,0,0,1-.5.3c-.1,0-.1,0-.1-.1-.5-.2-.9-.4-1.4-.6-.1-.1-.1-.1-.2,0-.7.4-1.3.8-2,1.2l-.1.1a.1.1,0,0,1,.1.1,21.16,21.16,0,0,1,2,1.2c.1.1.1.1.2,0,.5-.2,1-.4,1.4-.6.1-.1.1-.1.2-.1a.27.27,0,0,1,.3.3c.1.2-.1.3-.2.4a.1.1,0,0,0-.1.1,3.55,3.55,0,0,1-.9.4.1.1,0,0,0-.1.1.1.1,0,0,1,.1.1,5.39,5.39,0,0,0,1.3.7c.1.1.2.1.2.2s0,.3-.1.4a.6.6,0,0,1-.4.1.1.1,0,0,1-.1-.1c-.4-.2-.8-.5-1.2-.7l-.1-.1v.3c0,.3.1.6.1.8s0,.2-.1.2c-.1.2-.2.2-.4.2a.32.32,0,0,1-.3-.3c0-.2-.1-.3-.1-.5a4.48,4.48,0,0,1-.1-1.2.1.1,0,0,0-.1-.1c-.4-.2-.8-.5-1.2-.7s-.5-.3-.8-.5l-.1-.1v2.4c0,.1,0,.1.1.2a14.63,14.63,0,0,0,1.3.9c.1.1.2.2.2.3a.34.34,0,0,1-.5.3.1.1,0,0,1-.1-.1,5.55,5.55,0,0,1-.8-.6l-.1-.1v1.7c-.1.2-.2.3-.4.3a.27.27,0,0,1-.3-.3v-1.6a.1.1,0,0,0-.1.1,5.55,5.55,0,0,0-.8.6.37.37,0,0,1-.3.1.4.4,0,0,1-.2-.6l.1-.1a14.63,14.63,0,0,1,1.3-.9c.1-.1.1-.1.1-.2v-2.4a.1.1,0,0,0-.1.1l-2.1,1.2-.1.1c-.1.5-.1,1.1-.2,1.5,0,.2-.1.3-.3.4a.38.38,0,0,1-.5-.3v-.3c0-.3.1-.6.1-.8C113.9,139,113.9,138.9,113.9,138.9Z" transform="translate(-14.2 -25.6)"/><path d="M127,146.9h0c-.3.2-.7.3-.9.6h-.2a.22.22,0,0,1-.2-.2.37.37,0,0,1,.1-.3h0a7.26,7.26,0,0,1,.9-.5h0c-.2-.1-.5-.2-.7-.3a.22.22,0,0,1-.2-.2c0-.2.2-.3.3-.2h.1c.3.2.7.3,1,.5h.1l1.5-.9h0l-1.5-.9h-.1c-.3.2-.7.3-1,.5H126a.22.22,0,0,1-.2-.2.37.37,0,0,1,.1-.3h.1c.2-.1.5-.2.7-.3h0c-.3-.2-.5-.3-.8-.5h-.1c-.1-.1-.2-.2-.1-.3s.2-.2.3-.1h.1a7.26,7.26,0,0,0,.9.5h.1v-.9c0-.1.2-.2.3-.2a.22.22,0,0,1,.2.2v.4a2.2,2.2,0,0,0,.1.8v.1c.2.1.3.2.5.3s.7.4,1,.6h.1v-1.9a5.5,5.5,0,0,1-.9-.7c-.1,0-.1-.1-.1-.2a.37.37,0,0,1,.1-.3.19.19,0,0,1,.3,0h.1a2.09,2.09,0,0,0,.6.4h.1v-1.2c0-.1.2-.2.3-.2a.22.22,0,0,1,.2.2v1.2h.1a4.23,4.23,0,0,1,.7-.5.19.19,0,0,1,.3,0,.3.3,0,0,1,0,.4H131l-.9.6-.1.1v1.8h0l1.5-.9v-.1a3.4,3.4,0,0,1,.1-1v-.2c0-.2.2-.2.3-.2s.2.1.2.3v.9h.1c.3-.2.6-.3.9-.5h.2a.22.22,0,0,1,.2.2.37.37,0,0,1-.1.3h-.1c-.3.2-.6.3-.9.5h0c.2.1.5.2.7.3s.2.2.2.3-.2.3-.3.2h-.1c-.3-.2-.7-.3-1-.5h-.1l-1.5.9h-.1a11.91,11.91,0,0,1,1.5.9h.1c.3-.2.7-.3,1-.5h.2a.22.22,0,0,1,.2.2.37.37,0,0,1-.1.3H133c-.2.1-.5.2-.7.3h-.1c.3.2.6.3.9.5.1,0,.1.1.2.2a.37.37,0,0,1-.1.3.19.19,0,0,1-.3,0h-.1c-.3-.2-.6-.3-.9-.5h-.1v1c0,.1-.2.2-.3.2a.22.22,0,0,1-.2-.2v-.4a3.08,3.08,0,0,0-.1-.9v-.1c-.3-.2-.6-.3-.9-.5l-.6-.3h-.1v1.8a.1.1,0,0,0,.1.1,5.5,5.5,0,0,1,.9.7c.1,0,.1.1.1.2s-.2.3-.4.2h0a2.09,2.09,0,0,0-.6-.4h-.1v1.2c0,.1-.2.2-.3.2a.22.22,0,0,1-.2-.2v-1.2H129a2.09,2.09,0,0,1-.6.4c-.1,0-.2.1-.2,0-.2,0-.2-.3-.1-.4h.1a5.5,5.5,0,0,0,.9-.7v-1.9H129l-1.5.9v.1c0,.4-.1.8-.1,1.1s-.1.2-.2.3-.3-.1-.3-.2v-.8A.77.77,0,0,0,127,146.9Z" transform="translate(-14.2 -25.6)"/><path class="cls-3" d="M167.3,123.8a12.47,12.47,0,0,0-8.9-9.9,11.24,11.24,0,0,0-3-7.6c-3.2-3.2-8.1-3.2-11.3-3.2-3.9-4.9-8.2-8.1-15.8-8.1-6.1,0-11.9,2.8-16.7,8a32.54,32.54,0,0,0-5,7c-12.6.4-16.9,9.8-16.9,14.1,0,7.7,5.5,9.3,5.7,9.4a.6.6,0,0,0,.4.1h11.7a1.5,1.5,0,0,0,0-3H96.1c-.7-.3-3.4-1.7-3.4-6.4,0-2.3,2.6-11.2,14.8-11.2a1.57,1.57,0,0,0,1.4-.9c0-.1,6.6-14.1,19.4-14.1,5.9,0,9.6,2,13.9,7.6a1.43,1.43,0,0,0,1.2.6h.7c2.9,0,6.9,0,9.2,2.3,1.4,1.4,2.1,3.7,2.1,6.7a1.51,1.51,0,0,0,1.3,1.5,9.38,9.38,0,0,1,7.6,7.7,8,8,0,0,1-1.7,5,3.09,3.09,0,0,1-2.3,1.2H145.8a1.5,1.5,0,0,0,0,3h14.5a6.07,6.07,0,0,0,4.6-2.3A10.75,10.75,0,0,0,167.3,123.8Z" transform="translate(-14.2 -25.6)"/></svg>
