<svg id="Layer_1" xmlns="http://www.w3.org/2000/svg" viewBox="0 0 248.4 204"><defs><style>.cls-1{fill:#fff;}.cls-2{fill:#fa0000;}.cls-3{isolation:isolate;}.cls-4{fill:#030000;}</style></defs><title>CAE</title><g id="White_interior"><polygon class="cls-1" points="124.2 22.5 43.9 134 204.5 134 124.2 22.5"/></g><path class="cls-2" d="M38.6,174.7a10.48,10.48,0,0,1-9.3-5.7,10.67,10.67,0,0,1,.7-10.9L119,31.6a10.48,10.48,0,0,1,8.6-4.5,10.23,10.23,0,0,1,8.6,4.5l89,126.5a10.57,10.57,0,0,1-8.6,16.6Zm159.2-19.3L127.3,54.7,56.8,155.4Z" transform="translate(-3.4 -25.6)"/><path d="M127.6,28.6a9.1,9.1,0,0,1,7.4,3.8l89,126.5a9,9,0,0,1-7.4,14.2H38.6a9,9,0,0,1-7.4-14.2l89-126.5a9.1,9.1,0,0,1,7.4-3.8M53.9,156.9H200.7L127.3,52,53.9,156.9M127.6,25.6a11.91,11.91,0,0,0-9.8,5.1l-89,126.5a11.81,11.81,0,0,0-.8,12.4,12,12,0,0,0,10.6,6.5h178a12,12,0,0,0,9.8-18.9l-89-126.5a12,12,0,0,0-9.8-5.1ZM59.7,153.9l67.6-96.6,67.6,96.6Z" transform="translate(-3.4 -25.6)"/><path class="cls-2" d="M24.9,200.9a9.35,9.35,0,0,1-9.3-9.3V191a9.35,9.35,0,0,1,9.3-9.3H230a9.35,9.35,0,0,1,9.3,9.3v.6a9.35,9.35,0,0,1-9.3,9.3Z" transform="translate(-3.4 -25.6)"/><path d="M230,183.2a7.81,7.81,0,0,1,7.8,7.8v.6a7.81,7.81,0,0,1-7.8,7.8H25a7.81,7.81,0,0,1-7.8-7.8V191a7.81,7.81,0,0,1,7.8-7.8H230m0-3H25A10.82,10.82,0,0,0,14.2,191v.6A10.82,10.82,0,0,0,25,202.4H230.1a10.82,10.82,0,0,0,10.8-10.8V191A10.84,10.84,0,0,0,230,180.2Z" transform="translate(-3.4 -25.6)"/><path class="cls-2" d="M14.1,228.1a9.35,9.35,0,0,1-9.3-9.3v-.6a9.35,9.35,0,0,1,9.3-9.3H240.9a9.35,9.35,0,0,1,9.3,9.3v.6a9.35,9.35,0,0,1-9.3,9.3Z" transform="translate(-3.4 -25.6)"/><path d="M240.9,210.4a7.81,7.81,0,0,1,7.8,7.8v.6a7.81,7.81,0,0,1-7.8,7.8H14.2a7.81,7.81,0,0,1-7.8-7.8v-.6a7.81,7.81,0,0,1,7.8-7.8H240.9m0-3H14.2A10.82,10.82,0,0,0,3.4,218.2v.6a10.82,10.82,0,0,0,10.8,10.8H241a10.82,10.82,0,0,0,10.8-10.8v-.6a10.84,10.84,0,0,0-10.9-10.8Z" transform="translate(-3.4 -25.6)"/><g class="cls-3"><path class="cls-4" d="M121.9,92.5,119.4,76v-.8c0-2.4,1.4-3.6,4.1-3.6s4.1,1.2,4.1,3.5V76L125,92.5Zm1.5,3.4c2.4,0,3.6,1.4,3.6,4.1s-1.2,4.1-3.6,4.1-3.6-1.4-3.6-4.1S121,95.9,123.4,95.9Z" transform="translate(-3.4 -25.6)"/></g><path d="M130,151.2c-.3-.2-.7-.3-1-.5a2,2,0,0,1-.5-2.2c.7-1.5,1.3-2.9,2-4.4,1-2.1,2-4.2,3.1-6.3,0-.1.1-.2,0-.4-.9-4-1.9-8-2.8-12.1a12.75,12.75,0,0,1-.1-2v-5.2c0-1.2.1-2.4.2-3.7a9.15,9.15,0,0,1,.1-1.6,9.22,9.22,0,0,1-.8.5c-1.4,1-2.7,2.1-4.1,3.1l-.2.2c-1.1,2.6-2.2,5.3-3.4,7.9-.1.2-.4.4-.6.6a2.65,2.65,0,0,0-.5.6l-2.1,3.6c-.1.1-.3.2-.4.3-1.4.5-2.9.9-4.3,1.3-.2.1-.4.2-.4.4-.5,2.1-.9,4.3-1.4,6.4v.4c.5,1.4,1,2.8,1.5,4.1.2.6.4,1.3.6,1.9a.64.64,0,0,1,0,.6c-.5,1.1-1,2.2-1.5,3.2a19.83,19.83,0,0,1-1.1,2c-.2.5-.8.5-1.3.3a.75.75,0,0,1-.5-1c.5-1.5.9-3,1.4-4.5a.85.85,0,0,0,0-.7c-.6-1.6-1.2-3.1-1.8-4.7a.87.87,0,0,0-.9-.6.22.22,0,0,0-.2.2c-.1,1.2-.2,2.4-.2,3.6a7.06,7.06,0,0,1-.6,2.4l-1.8,3.9a.94.94,0,0,1-.8.6,1,1,0,0,1-.9-.6.64.64,0,0,1,0-.6c.5-1.8,1-3.6,1.4-5.3a3.75,3.75,0,0,0,.1-1.1c.1-1.1.1-2.2.2-3.3a23.21,23.21,0,0,1,.7-4.6,21.58,21.58,0,0,0,.5-2.7,2.92,2.92,0,0,1-.9.2c-.3.1-.5.2-.6.5l-1.8,3a1,1,0,0,1-1.1.4c-.5-.2-.8-.6-.6-1.1a27,27,0,0,1,1.6-4.5,1.21,1.21,0,0,1,.5-.5c1.1-.4,2.2-.8,3.3-1.1.5-.2,1-.3,1.5-.5a4.53,4.53,0,0,1,2.3.2,1.42,1.42,0,0,1,.6.2,3.08,3.08,0,0,0,1.9,0c1-.3,2-.6,2.9-.8.1,0,.2-.1.3-.1l1.9-1.9c.3-.3.4-.6.2-.9a1.18,1.18,0,0,1-.1-1c.9-2.8,1.8-5.7,2.7-8.5a3.77,3.77,0,0,1,1.2-1.6c2.2-1.8,4.4-3.5,6.6-5.3.9-.8,1.9-1.5,2.8-2.3a4.49,4.49,0,0,1,2.7-1,12.22,12.22,0,0,1,3.3.2,8.24,8.24,0,0,1,3.3,1.5,4.56,4.56,0,0,1,1.8,2.3c.4,1.1.8,2.2,1.3,3.3.7,1.6,1.5,3.3,2.2,4.9.1.1.2.3.3.4l5.1,3.3c.3.2.5.4.8.6a1.71,1.71,0,0,1,0,2.6,1.66,1.66,0,0,1-1.9.2c-2.4-1.2-4.7-2.3-7.1-3.4a1.58,1.58,0,0,1-.7-.7,18.65,18.65,0,0,1-1-2c-.1-.1-.1-.2-.2-.3a5.79,5.79,0,0,0-.7,2.1,9.62,9.62,0,0,0,.2,3.4c0,.2.1.3.2.5,1.1,1.3,2.2,2.6,3.2,3.8,1.7,2.1,3.5,4.1,5.1,6.2a4.23,4.23,0,0,1,.4,1.2c.4,2.1.8,4.3,1.1,6.4.3,1.6.5,3.1.7,4.7.1.8.2,1.5.3,2.3a1.61,1.61,0,0,1-.8,1.7,2,2,0,0,1-2.7-.3c-.2-.2-.2-.5-.3-.7-1-3.3-2-6.6-3-10l-.6-2.1a1.79,1.79,0,0,0-.5-.7c-1.6-1.9-3.3-3.8-5-5.7-.2-.3-.4-.3-.8-.2a8.33,8.33,0,0,1-1.5.4c-.2.1-.3.2-.2.4.3,1.3.6,2.5.8,3.8.2,1.1.5,2.3.7,3.4a2.06,2.06,0,0,1-.3,1.5c-1.9,2.9-3.8,5.7-5.7,8.6a24.26,24.26,0,0,1-1.4,2,2.83,2.83,0,0,1-1.7,1.3C130.4,151.2,130.2,151.2,130,151.2Z" transform="translate(-3.4 -25.6)"/><path d="M142.5,93.6a4.17,4.17,0,0,1,2.4.9,5.37,5.37,0,0,1-.6,9.3,4.55,4.55,0,0,1-2,.5h-1.6a4.29,4.29,0,0,1-2.3-1.2,5,5,0,0,1-1.9-3.6,5.15,5.15,0,0,1,.9-3.6,5.44,5.44,0,0,1,3.6-2.3h1.5Z" transform="translate(-3.4 -25.6)"/><path d="M112.2,127.1a3.4,3.4,0,1,1,3.2-3.1A3.25,3.25,0,0,1,112.2,127.1Z" transform="translate(-3.4 -25.6)"/></svg>
