<svg id="Layer_1" xmlns="http://www.w3.org/2000/svg" viewBox="0 0 248.4 204"><defs><style>.cls-1{fill:#fff;}.cls-2{fill:red;}.cls-3{fill:#fa0000;}.cls-4{fill:#040202;}</style></defs><title>CFW</title><g id="White_interior"><polygon class="cls-1" points="124.2 22.5 43.9 134 204.5 134 124.2 22.5"/></g><polygon class="cls-2" points="128.6 60.4 128.6 60.4 123.9 55.7 128.6 60.4"/><polygon class="cls-2" points="119.2 60.5 123.9 55.7 123.9 55.7 119.2 60.5"/><path class="cls-3" d="M24.9,200.9a9.35,9.35,0,0,1-9.3-9.3V191a9.35,9.35,0,0,1,9.3-9.3H230a9.35,9.35,0,0,1,9.3,9.3v.6a9.35,9.35,0,0,1-9.3,9.3Z" transform="translate(-3.4 -25.6)"/><path d="M230,183.2a7.81,7.81,0,0,1,7.8,7.8v.6a7.81,7.81,0,0,1-7.8,7.8H25a7.81,7.81,0,0,1-7.8-7.8V191a7.81,7.81,0,0,1,7.8-7.8H230m0-3H25A10.82,10.82,0,0,0,14.2,191v.6A10.82,10.82,0,0,0,25,202.4H230.1a10.82,10.82,0,0,0,10.8-10.8V191A10.84,10.84,0,0,0,230,180.2Z" transform="translate(-3.4 -25.6)"/><path class="cls-3" d="M14.1,228.1a9.35,9.35,0,0,1-9.3-9.3v-.6a9.35,9.35,0,0,1,9.3-9.3H240.9a9.35,9.35,0,0,1,9.3,9.3v.6a9.35,9.35,0,0,1-9.3,9.3Z" transform="translate(-3.4 -25.6)"/><path d="M240.9,210.4a7.81,7.81,0,0,1,7.8,7.8v.6a7.81,7.81,0,0,1-7.8,7.8H14.2a7.81,7.81,0,0,1-7.8-7.8v-.6a7.81,7.81,0,0,1,7.8-7.8H240.9m0-3H14.2A10.82,10.82,0,0,0,3.4,218.2v.6a10.82,10.82,0,0,0,10.8,10.8H241a10.82,10.82,0,0,0,10.8-10.8v-.6a10.84,10.84,0,0,0-10.9-10.8Z" transform="translate(-3.4 -25.6)"/><path class="cls-3" d="M38.6,174.7a10.48,10.48,0,0,1-9.3-5.7,10.67,10.67,0,0,1,.7-10.9L119,31.6a10.48,10.48,0,0,1,8.6-4.5,10.23,10.23,0,0,1,8.6,4.5l89,126.5a10.57,10.57,0,0,1-8.6,16.6Zm159.2-19.3L127.3,54.7,56.8,155.4Z" transform="translate(-3.4 -25.6)"/><path d="M127.6,28.6a9.1,9.1,0,0,1,7.4,3.8l89,126.5a9,9,0,0,1-7.4,14.2H38.6a9,9,0,0,1-7.4-14.2l89-126.5a9.1,9.1,0,0,1,7.4-3.8ZM53.9,156.9H200.7L127.3,52,53.9,156.9ZM127.6,25.6a11.91,11.91,0,0,0-9.8,5.1l-89,126.5a11.81,11.81,0,0,0-.8,12.4,12,12,0,0,0,10.6,6.5h178a12,12,0,0,0,9.8-18.9l-89-126.5a12,12,0,0,0-9.8-5.1ZM59.7,153.9l67.6-96.6,67.6,96.6Z" transform="translate(-3.4 -25.6)"/><path class="cls-4" d="M103.1,113.2v12.4a14.65,14.65,0,0,1,7,2.3,9.55,9.55,0,0,0,5.6,1.7,9.1,9.1,0,0,0,5.6-1.7,15.41,15.41,0,0,1,16.2,0,9.55,9.55,0,0,0,5.6,1.7,8.89,8.89,0,0,0,5.6-1.7,23.75,23.75,0,0,1,3.2-1.6v-14l4.3,4.3,4.4-4.4L128,79.7l-4.4,4.4-8.3,8.3v-4h-6.9V99.2L95.3,112.3l4.4,4.4Zm35.9-.9h7.2v7.8H139Z" transform="translate(-3.4 -25.6)"/><path class="cls-4" d="M74.7,139.2a14.73,14.73,0,0,1,8.1,2.3,9.55,9.55,0,0,0,5.6,1.7,9.1,9.1,0,0,0,5.6-1.7,15.41,15.41,0,0,1,16.2,0,9.55,9.55,0,0,0,5.6,1.7,9.1,9.1,0,0,0,5.6-1.7,15.41,15.41,0,0,1,16.2,0,9.55,9.55,0,0,0,5.6,1.7,8.89,8.89,0,0,0,5.6-1.7,15.41,15.41,0,0,1,16.2,0,9.55,9.55,0,0,0,5.6,1.7,9.1,9.1,0,0,0,5.6-1.7,14.73,14.73,0,0,1,8.1-2.3,11.33,11.33,0,0,1,3.4.4l-5.8-8.7a10.36,10.36,0,0,0-3.2,1.4,15.41,15.41,0,0,1-16.2,0,9.55,9.55,0,0,0-5.6-1.7,9.1,9.1,0,0,0-5.6,1.7,15.41,15.41,0,0,1-16.2,0,9.55,9.55,0,0,0-5.6-1.7,9.1,9.1,0,0,0-5.6,1.7,15.41,15.41,0,0,1-16.2,0,9.55,9.55,0,0,0-5.6-1.7,9.1,9.1,0,0,0-5.6,1.7,15.41,15.41,0,0,1-16.2,0,9.55,9.55,0,0,0-5.6-1.7H74l-7,10.6A14.92,14.92,0,0,1,74.7,139.2Z" transform="translate(-3.4 -25.6)"/><path class="cls-4" d="M189.7,145.8a9.55,9.55,0,0,0-5.6-1.7,9.1,9.1,0,0,0-5.6,1.7,15.41,15.41,0,0,1-16.2,0,9.55,9.55,0,0,0-5.6-1.7,9.1,9.1,0,0,0-5.6,1.7,15.41,15.41,0,0,1-16.2,0,9.55,9.55,0,0,0-5.6-1.7,9.1,9.1,0,0,0-5.6,1.7,15.41,15.41,0,0,1-16.2,0,9.55,9.55,0,0,0-5.6-1.7,9.1,9.1,0,0,0-5.6,1.7,15.41,15.41,0,0,1-16.2,0,9.55,9.55,0,0,0-5.6-1.7,8.89,8.89,0,0,0-5.6,1.7,14.81,14.81,0,0,1-6.6,2.3L58,155l140.2.4-5.4-8.1A17.91,17.91,0,0,1,189.7,145.8Z" transform="translate(-3.4 -25.6)"/></svg>