<svg id="Layer_1" xmlns="http://www.w3.org/2000/svg" viewBox="0 0 248.4 204"><defs><style>.cls-1{fill:#fff;}.cls-2{fill:#fa0000;}</style></defs><title>EQW</title><g id="White_interior"><polygon class="cls-1" points="124.2 22.5 43.9 134 204.5 134 124.2 22.5"/></g><path d="M151,111.7c-.4-.6-.8-1.1-1.2-1.7a12.46,12.46,0,0,0,0-12.9c.4-.6.8-1.1,1.2-1.7C154,99.6,154.3,106.9,151,111.7Z" transform="translate(-3.4 -25.6)"/><path d="M145,111.7c-.4-.6-.8-1.1-1.2-1.7a12.46,12.46,0,0,0,0-12.9c.4-.6.8-1.1,1.2-1.7C147.9,99.6,148.2,106.9,145,111.7Z" transform="translate(-3.4 -25.6)"/><path d="M105,95.5c.4.5.8,1.1,1.2,1.7a12.46,12.46,0,0,0,0,12.9c-.4.5-.8,1.1-1.2,1.7C101.7,106.9,102.1,99.6,105,95.5Z" transform="translate(-3.4 -25.6)"/><path d="M111.1,95.5c.4.5.8,1.1,1.2,1.7a12.46,12.46,0,0,0,0,12.9c-.4.5-.8,1.1-1.2,1.7C107.8,106.9,108.1,99.6,111.1,95.5Z" transform="translate(-3.4 -25.6)"/><path class="cls-2" d="M38.6,174.7a10.48,10.48,0,0,1-9.3-5.7,10.67,10.67,0,0,1,.7-10.9L119,31.6a10.48,10.48,0,0,1,8.6-4.5,10.23,10.23,0,0,1,8.6,4.5l89,126.5a10.57,10.57,0,0,1-8.6,16.6Zm159.2-19.3L127.3,54.7,56.8,155.4Z" transform="translate(-3.4 -25.6)"/><path d="M127.6,28.6a9.1,9.1,0,0,1,7.4,3.8l89,126.5a9,9,0,0,1-7.4,14.2H38.6a9,9,0,0,1-7.4-14.2l89-126.5a9.1,9.1,0,0,1,7.4-3.8M53.9,156.9H200.7L127.3,52,53.9,156.9M127.6,25.6a11.91,11.91,0,0,0-9.8,5.1l-89,126.5a11.81,11.81,0,0,0-.8,12.4,12,12,0,0,0,10.6,6.5h178a12,12,0,0,0,9.8-18.9l-89-126.5a12,12,0,0,0-9.8-5.1ZM59.7,153.9l67.6-96.6,67.6,96.6Z" transform="translate(-3.4 -25.6)"/><path class="cls-2" d="M24.9,200.9a9.35,9.35,0,0,1-9.3-9.3V191a9.35,9.35,0,0,1,9.3-9.3H230a9.35,9.35,0,0,1,9.3,9.3v.6a9.35,9.35,0,0,1-9.3,9.3Z" transform="translate(-3.4 -25.6)"/><path d="M230,183.2a7.81,7.81,0,0,1,7.8,7.8v.6a7.81,7.81,0,0,1-7.8,7.8H25a7.81,7.81,0,0,1-7.8-7.8V191a7.81,7.81,0,0,1,7.8-7.8H230m0-3H25A10.82,10.82,0,0,0,14.2,191v.6A10.82,10.82,0,0,0,25,202.4H230.1a10.82,10.82,0,0,0,10.8-10.8V191A10.84,10.84,0,0,0,230,180.2Z" transform="translate(-3.4 -25.6)"/><path class="cls-2" d="M14.1,228.1a9.35,9.35,0,0,1-9.3-9.3v-.6a9.35,9.35,0,0,1,9.3-9.3H240.9a9.35,9.35,0,0,1,9.3,9.3v.6a9.35,9.35,0,0,1-9.3,9.3Z" transform="translate(-3.4 -25.6)"/><path d="M240.9,210.4a7.81,7.81,0,0,1,7.8,7.8v.6a7.81,7.81,0,0,1-7.8,7.8H14.2a7.81,7.81,0,0,1-7.8-7.8v-.6a7.81,7.81,0,0,1,7.8-7.8H240.9m0-3H14.2A10.82,10.82,0,0,0,3.4,218.2v.6a10.82,10.82,0,0,0,10.8,10.8H241a10.82,10.82,0,0,0,10.8-10.8v-.6a10.84,10.84,0,0,0-10.9-10.8Z" transform="translate(-3.4 -25.6)"/><polygon points="120.2 81.2 123.7 91.8 112.9 91.8 112.9 73.4 124.6 64.1 122.4 71.2 124.6 75.3 120.2 81.2"/><polygon points="136.3 73.4 136.3 91.8 127.6 91.8 123.7 81.4 127.6 75.5 125.6 71.1 127.7 66.5 136.3 73.4"/><polygon points="191.8 128.3 56.3 128.3 80.5 93.8 120.2 93.8 123.9 100.2 116.1 110.2 126.8 117.9 126.4 122.7 132.5 117.2 125.5 109.3 131.4 101.8 132.2 93.8 167.6 93.8 191.8 128.3"/></svg>