<svg id="Layer_1" xmlns="http://www.w3.org/2000/svg" viewBox="0 0 201.97 150.5"><defs><style>.cls-1{fill:#fff;}.cls-2{isolation:isolate;}.cls-3{fill:#41bcd9;}.cls-4{fill:#030000;}.cls-5{fill:#040202;}</style></defs><title>FFS</title><g id="White_interior"><polygon class="cls-1" points="100.69 22.5 20.39 134 180.99 134 100.69 22.5"/></g><g id="Shape"><g class="cls-2"><path class="cls-3" d="M39,174.7a10.48,10.48,0,0,1-9.3-5.7,10.67,10.67,0,0,1,.7-10.9l89-126.5a10.48,10.48,0,0,1,8.6-4.5,10.23,10.23,0,0,1,8.6,4.5l89,126.5a10.57,10.57,0,0,1-8.6,16.6Zm159.2-19.3L127.7,54.7,57.2,155.4Z" transform="translate(-27.01 -25.6)"/><path class="cls-4" d="M128,28.6a9.1,9.1,0,0,1,7.4,3.8l89,126.5a9,9,0,0,1-7.4,14.2H39a9,9,0,0,1-7.4-14.2l89-126.5a9.1,9.1,0,0,1,7.4-3.8M54.3,156.9H201.1L127.7,52,54.3,156.9M128,25.6a11.91,11.91,0,0,0-9.8,5.1l-89,126.5a11.81,11.81,0,0,0-.8,12.4A12,12,0,0,0,39,176.1H217a12,12,0,0,0,9.8-18.9l-89-126.5a12,12,0,0,0-9.8-5.1ZM60.1,153.9l67.6-96.6,67.6,96.6Z" transform="translate(-27.01 -25.6)"/></g></g><path class="cls-5" d="M103.1,113.2v12.4a14.65,14.65,0,0,1,7,2.3,9.55,9.55,0,0,0,5.6,1.7,9.1,9.1,0,0,0,5.6-1.7,15.41,15.41,0,0,1,16.2,0,9.55,9.55,0,0,0,5.6,1.7,8.89,8.89,0,0,0,5.6-1.7,23.75,23.75,0,0,1,3.2-1.6v-14l4.3,4.3,4.4-4.4L128,79.7l-4.4,4.4-8.3,8.3v-4h-6.9V99.2L95.3,112.3l4.4,4.4Zm35.9-.9h7.2v7.8H139Z" transform="translate(-27.01 -25.6)"/><path class="cls-5" d="M74.7,139.2a14.73,14.73,0,0,1,8.1,2.3,9.55,9.55,0,0,0,5.6,1.7,9.1,9.1,0,0,0,5.6-1.7,15.41,15.41,0,0,1,16.2,0,9.55,9.55,0,0,0,5.6,1.7,9.1,9.1,0,0,0,5.6-1.7,15.41,15.41,0,0,1,16.2,0,9.55,9.55,0,0,0,5.6,1.7,8.89,8.89,0,0,0,5.6-1.7,15.41,15.41,0,0,1,16.2,0,9.55,9.55,0,0,0,5.6,1.7,9.1,9.1,0,0,0,5.6-1.7,14.73,14.73,0,0,1,8.1-2.3,11.33,11.33,0,0,1,3.4.4l-5.8-8.7a10.36,10.36,0,0,0-3.2,1.4,15.41,15.41,0,0,1-16.2,0,9.55,9.55,0,0,0-5.6-1.7,9.1,9.1,0,0,0-5.6,1.7,15.41,15.41,0,0,1-16.2,0,9.55,9.55,0,0,0-5.6-1.7,9.1,9.1,0,0,0-5.6,1.7,15.41,15.41,0,0,1-16.2,0,9.55,9.55,0,0,0-5.6-1.7,9.1,9.1,0,0,0-5.6,1.7,15.41,15.41,0,0,1-16.2,0,9.55,9.55,0,0,0-5.6-1.7H74l-7,10.6A14.92,14.92,0,0,1,74.7,139.2Z" transform="translate(-27.01 -25.6)"/><path class="cls-5" d="M189.7,145.8a9.55,9.55,0,0,0-5.6-1.7,9.1,9.1,0,0,0-5.6,1.7,15.41,15.41,0,0,1-16.2,0,9.55,9.55,0,0,0-5.6-1.7,9.1,9.1,0,0,0-5.6,1.7,15.41,15.41,0,0,1-16.2,0,9.55,9.55,0,0,0-5.6-1.7,9.1,9.1,0,0,0-5.6,1.7,15.41,15.41,0,0,1-16.2,0,9.55,9.55,0,0,0-5.6-1.7,9.1,9.1,0,0,0-5.6,1.7,15.41,15.41,0,0,1-16.2,0,9.55,9.55,0,0,0-5.6-1.7,8.89,8.89,0,0,0-5.6,1.7,14.81,14.81,0,0,1-6.6,2.3L58,155l140.2.4-5.4-8.1A17.91,17.91,0,0,1,189.7,145.8Z" transform="translate(-27.01 -25.6)"/></svg>