<svg id="Layer_1" xmlns="http://www.w3.org/2000/svg" viewBox="0 0 248.4 204"><defs><style>.cls-1{fill:#fff;}.cls-2{fill:#fa0000;}.cls-3{fill:#999;}</style></defs><title>HMW</title><g id="White_interior"><polygon class="cls-1" points="124.2 22.5 43.9 134 204.5 134 124.2 22.5"/></g><path class="cls-2" d="M24.9,200.9a9.35,9.35,0,0,1-9.3-9.3V191a9.35,9.35,0,0,1,9.3-9.3H230a9.35,9.35,0,0,1,9.3,9.3v.6a9.35,9.35,0,0,1-9.3,9.3Z" transform="translate(-3.4 -25.6)"/><path d="M230,183.2a7.81,7.81,0,0,1,7.8,7.8v.6a7.81,7.81,0,0,1-7.8,7.8H25a7.81,7.81,0,0,1-7.8-7.8V191a7.81,7.81,0,0,1,7.8-7.8H230m0-3H25A10.82,10.82,0,0,0,14.2,191v.6A10.82,10.82,0,0,0,25,202.4H230.1a10.82,10.82,0,0,0,10.8-10.8V191A10.84,10.84,0,0,0,230,180.2Z" transform="translate(-3.4 -25.6)"/><path class="cls-2" d="M14.1,228.1a9.35,9.35,0,0,1-9.3-9.3v-.6a9.35,9.35,0,0,1,9.3-9.3H240.9a9.35,9.35,0,0,1,9.3,9.3v.6a9.35,9.35,0,0,1-9.3,9.3Z" transform="translate(-3.4 -25.6)"/><path d="M240.9,210.4a7.81,7.81,0,0,1,7.8,7.8v.6a7.81,7.81,0,0,1-7.8,7.8H14.2a7.81,7.81,0,0,1-7.8-7.8v-.6a7.81,7.81,0,0,1,7.8-7.8H240.9m0-3H14.2A10.82,10.82,0,0,0,3.4,218.2v.6a10.82,10.82,0,0,0,10.8,10.8H241a10.82,10.82,0,0,0,10.8-10.8v-.6a10.84,10.84,0,0,0-10.9-10.8Z" transform="translate(-3.4 -25.6)"/><path class="cls-2" d="M38.6,174.7a10.48,10.48,0,0,1-9.3-5.7,10.67,10.67,0,0,1,.7-10.9L119,31.6a10.48,10.48,0,0,1,8.6-4.5,10.23,10.23,0,0,1,8.6,4.5l89,126.5a10.57,10.57,0,0,1-8.6,16.6Zm159.2-19.3L127.3,54.7,56.8,155.4Z" transform="translate(-3.4 -25.6)"/><path d="M127.6,28.6a9.1,9.1,0,0,1,7.4,3.8l89,126.5a9,9,0,0,1-7.4,14.2H38.6a9,9,0,0,1-7.4-14.2l89-126.5a9.1,9.1,0,0,1,7.4-3.8ZM53.9,156.9H200.7L127.3,52,53.9,156.9ZM127.6,25.6a11.91,11.91,0,0,0-9.8,5.1l-89,126.5a11.81,11.81,0,0,0-.8,12.4,12,12,0,0,0,10.6,6.5h178a12,12,0,0,0,9.8-18.9l-89-126.5a12,12,0,0,0-9.8-5.1ZM59.7,153.9l67.6-96.6,67.6,96.6Z" transform="translate(-3.4 -25.6)"/><path d="M101,100.8c-3.3,2.7-9.9,9.7-4.5,19.7a5.1,5.1,0,0,0,2.6,2.2l23.4,8.9s10.1,2.2,11.7-10.8c1-8.1-1.2-12.3-3.1-14.2a5.68,5.68,0,0,0-3.4-1.8L104.3,100A4.34,4.34,0,0,0,101,100.8Z" transform="translate(-3.4 -25.6)"/><path class="cls-1" d="M118.8,115a19.63,19.63,0,0,0-.6,8c.5,3.5,2.1,7.7,7.1,7.3,8.4-.7,7.6-12,7.6-12s1.2-10.2-5.6-12.4C122.6,104.3,120,110.8,118.8,115Z" transform="translate(-3.4 -25.6)"/><path class="cls-3" d="M131.5,103.1l3-3.8a2.57,2.57,0,0,0-.1-3.3l-2.2-2.3a4.47,4.47,0,0,1-1.1-4.4l2.1-8s3.5-9.5-4.2-11.5c-4.3-1.1-5.2,1.6-5.3,4.2a9.85,9.85,0,0,0,2,5.7c1.3,1.8,2.8,5,.2,9.3-2,3.3-1,5.2.4,6.3a12,12,0,0,1,4.5,6.9l.1.8C131.1,103.3,131.4,103.3,131.5,103.1Z" transform="translate(-3.4 -25.6)"/><path class="cls-3" d="M103.3,149.9c.9,1.5,3,2.4,7.4.5a18.33,18.33,0,0,1,7.7-1.6l11,.1a13.94,13.94,0,0,0,7.2-2l24.3-14.6a1.31,1.31,0,0,0-.2-2.4l-12-5a4.45,4.45,0,0,0-5,1.2l-2.9,3.4a16.41,16.41,0,0,1-8.3,5.1l-18,4.3a14.91,14.91,0,0,0-6.3,3.1l-3.8,3.1A3.55,3.55,0,0,0,103.3,149.9Z" transform="translate(-3.4 -25.6)"/></svg>