<svg id="Layer_1" xmlns="http://www.w3.org/2000/svg" viewBox="0 0 226.7 176.8"><defs><style>.cls-1{fill:#fff;}.cls-2{isolation:isolate;}.cls-3{fill:#f97301;}.cls-4{fill:#231f20;}</style></defs><title>SVA</title><g id="White_interior"><polygon class="cls-1" points="113 22.5 32.7 134 193.3 134 113 22.5"/></g><g id="Shape"><g class="cls-2"><path class="cls-3" d="M39,174.7a10.48,10.48,0,0,1-9.3-5.7,10.67,10.67,0,0,1,.7-10.9l89-126.5a10.48,10.48,0,0,1,8.6-4.5,10.23,10.23,0,0,1,8.6,4.5l89,126.5a10.57,10.57,0,0,1-8.6,16.6Zm159.2-19.3L127.7,54.7,57.2,155.4Z" transform="translate(-14.7 -25.6)"/><path class="cls-4" d="M128,28.6a9.1,9.1,0,0,1,7.4,3.8l89,126.5a9,9,0,0,1-7.4,14.2H39a9,9,0,0,1-7.4-14.2l89-126.5a9.1,9.1,0,0,1,7.4-3.8M54.3,156.9H201.1L127.7,52,54.3,156.9M128,25.6a11.91,11.91,0,0,0-9.8,5.1l-89,126.5a11.81,11.81,0,0,0-.8,12.4A12,12,0,0,0,39,176.1H217a12,12,0,0,0,9.8-18.9l-89-126.5a12,12,0,0,0-9.8-5.1ZM60.1,153.9l67.6-96.6,67.6,96.6Z" transform="translate(-14.7 -25.6)"/></g><path class="cls-3" d="M25.4,200.9a9.35,9.35,0,0,1-9.3-9.3V191a9.35,9.35,0,0,1,9.3-9.3H230.5a9.35,9.35,0,0,1,9.3,9.3v.6a9.35,9.35,0,0,1-9.3,9.3Z" transform="translate(-14.7 -25.6)"/><path class="cls-4" d="M230.5,183.2a7.81,7.81,0,0,1,7.8,7.8v.6a7.81,7.81,0,0,1-7.8,7.8H25.5a7.81,7.81,0,0,1-7.8-7.8V191a7.81,7.81,0,0,1,7.8-7.8h205m0-3H25.5A10.82,10.82,0,0,0,14.7,191v.6a10.82,10.82,0,0,0,10.8,10.8H230.6a10.82,10.82,0,0,0,10.8-10.8V191a10.84,10.84,0,0,0-10.9-10.8Z" transform="translate(-14.7 -25.6)"/></g><path class="cls-4" d="M132.5,132.5H125l7.5-7.5H119s-9.6,9.6-8.8,9.6h8.1l-8.1,17Z" transform="translate(-14.7 -25.6)"/><path class="cls-4" d="M136.1,132.7s-4.7,4.7-4.3,4.7h4l-4,8.4,11-9.4h-3.7l3.7-3.7Z" transform="translate(-14.7 -25.6)"/><path class="cls-4" d="M167.3,121.5a12.47,12.47,0,0,0-8.9-9.9,11.24,11.24,0,0,0-3-7.6c-3.2-3.2-8.1-3.2-11.3-3.2-3.9-4.9-8.2-8.1-15.8-8.1-6.1,0-11.9,2.8-16.7,8a32.54,32.54,0,0,0-5,7c-12.6.4-16.9,9.8-16.9,14.1,0,7.7,5.5,9.3,5.7,9.4a.6.6,0,0,0,.4.1h11.7a1.5,1.5,0,0,0,0-3H96.1c-.7-.3-3.4-1.7-3.4-6.4,0-2.3,2.6-11.2,14.8-11.2a1.57,1.57,0,0,0,1.4-.9c0-.1,6.6-14.1,19.4-14.1,5.9,0,9.6,2,13.9,7.6a1.43,1.43,0,0,0,1.2.6h.7c2.9,0,6.9,0,9.2,2.3,1.4,1.4,2.1,3.7,2.1,6.7a1.51,1.51,0,0,0,1.3,1.5,9.38,9.38,0,0,1,7.6,7.7,8,8,0,0,1-1.7,5,3.09,3.09,0,0,1-2.3,1.2H145.8a1.5,1.5,0,0,0,0,3h14.5a6.07,6.07,0,0,0,4.6-2.3A10.75,10.75,0,0,0,167.3,121.5Z" transform="translate(-14.7 -25.6)"/></svg>