<svg id="Layer_1" xmlns="http://www.w3.org/2000/svg" viewBox="0 0 248.4 204"><defs><style>.cls-1{fill:#fff;}.cls-2{fill:#fa0000;}</style></defs><title>SVR</title><g id="White_interior"><polygon class="cls-1" points="124.2 22.5 43.9 134 204.5 134 124.2 22.5"/></g><path class="cls-2" d="M38.6,174.7a10.48,10.48,0,0,1-9.3-5.7,10.67,10.67,0,0,1,.7-10.9L119,31.6a10.48,10.48,0,0,1,8.6-4.5,10.23,10.23,0,0,1,8.6,4.5l89,126.5a10.57,10.57,0,0,1-8.6,16.6Zm159.2-19.3L127.3,54.7,56.8,155.4Z" transform="translate(-3.4 -25.6)"/><path d="M127.6,28.6a9.1,9.1,0,0,1,7.4,3.8l89,126.5a9,9,0,0,1-7.4,14.2H38.6a9,9,0,0,1-7.4-14.2l89-126.5a9.1,9.1,0,0,1,7.4-3.8M53.9,156.9H200.7L127.3,52,53.9,156.9M127.6,25.6a11.91,11.91,0,0,0-9.8,5.1l-89,126.5a11.81,11.81,0,0,0-.8,12.4,12,12,0,0,0,10.6,6.5h178a12,12,0,0,0,9.8-18.9l-89-126.5a12,12,0,0,0-9.8-5.1ZM59.7,153.9l67.6-96.6,67.6,96.6Z" transform="translate(-3.4 -25.6)"/><path class="cls-2" d="M24.9,200.9a9.35,9.35,0,0,1-9.3-9.3V191a9.35,9.35,0,0,1,9.3-9.3H230a9.35,9.35,0,0,1,9.3,9.3v.6a9.35,9.35,0,0,1-9.3,9.3Z" transform="translate(-3.4 -25.6)"/><path d="M230,183.2a7.81,7.81,0,0,1,7.8,7.8v.6a7.81,7.81,0,0,1-7.8,7.8H25a7.81,7.81,0,0,1-7.8-7.8V191a7.81,7.81,0,0,1,7.8-7.8H230m0-3H25A10.82,10.82,0,0,0,14.2,191v.6A10.82,10.82,0,0,0,25,202.4H230.1a10.82,10.82,0,0,0,10.8-10.8V191A10.84,10.84,0,0,0,230,180.2Z" transform="translate(-3.4 -25.6)"/><path class="cls-2" d="M14.1,228.1a9.35,9.35,0,0,1-9.3-9.3v-.6a9.35,9.35,0,0,1,9.3-9.3H240.9a9.35,9.35,0,0,1,9.3,9.3v.6a9.35,9.35,0,0,1-9.3,9.3Z" transform="translate(-3.4 -25.6)"/><path d="M240.9,210.4a7.81,7.81,0,0,1,7.8,7.8v.6a7.81,7.81,0,0,1-7.8,7.8H14.2a7.81,7.81,0,0,1-7.8-7.8v-.6a7.81,7.81,0,0,1,7.8-7.8H240.9m0-3H14.2A10.82,10.82,0,0,0,3.4,218.2v.6a10.82,10.82,0,0,0,10.8,10.8H241a10.82,10.82,0,0,0,10.8-10.8v-.6a10.84,10.84,0,0,0-10.9-10.8Z" transform="translate(-3.4 -25.6)"/><path d="M132.1,132.8h-7.5l7.5-7.6H118.6s-9.6,9.6-8.8,9.6h8.1l-8.1,17Z" transform="translate(-3.4 -25.6)"/><path d="M135.6,132.9s-4.7,4.7-4.3,4.7h4l-4,8.4,11-9.4h-3.7l3.7-3.7Z" transform="translate(-3.4 -25.6)"/><path d="M166.8,121.7a12.47,12.47,0,0,0-8.9-9.9,11.24,11.24,0,0,0-3-7.6c-3.2-3.2-8-3.2-11.3-3.2-3.9-4.9-8.2-8.1-15.8-8.1-6.1,0-11.9,2.8-16.7,8a32.54,32.54,0,0,0-5,7c-12.6.4-16.9,9.8-16.9,14.1,0,7.6,5.5,9.3,5.7,9.4s.3.1.4.1H107a1.5,1.5,0,0,0,0-3H95.6c-.7-.3-3.4-1.7-3.4-6.4,0-2.2,2.6-11.2,14.8-11.2a1.51,1.51,0,0,0,1.4-.9c.1-.1,6.6-14.1,19.4-14.1,5.9,0,9.6,2,13.9,7.6a1.43,1.43,0,0,0,1.2.6h.7c2.9,0,6.9,0,9.2,2.3,1.4,1.4,2.1,3.7,2.1,6.7a1.51,1.51,0,0,0,1.3,1.5,9.28,9.28,0,0,1,7.6,7.7,7.81,7.81,0,0,1-1.7,5,3.09,3.09,0,0,1-2.3,1.2H145.3a1.5,1.5,0,0,0,0,3h14.5a6.07,6.07,0,0,0,4.6-2.3C166.2,126.9,167.1,123.5,166.8,121.7Z" transform="translate(-3.4 -25.6)"/></svg>