<svg id="Layer_1" xmlns="http://www.w3.org/2000/svg" viewBox="0 0 226.7 176.8"><defs><style>.cls-1{fill:#fff;}.cls-2{fill:#f97301;}</style></defs><title>TOA</title><g id="White_interior"><polygon class="cls-1" points="113.4 22.5 33.1 134 193.7 134 113.4 22.5"/></g><path class="cls-2" d="M37.7,174.7a10.48,10.48,0,0,1-9.3-5.7,10.67,10.67,0,0,1,.7-10.9l89-126.5a10.48,10.48,0,0,1,8.6-4.5,10.23,10.23,0,0,1,8.6,4.5l89,126.5a10.57,10.57,0,0,1-8.6,16.6Zm159.2-19.3L126.4,54.7,55.9,155.4Z" transform="translate(-14.2 -25.6)"/><path d="M127.6,28.6a9.1,9.1,0,0,1,7.4,3.8l89,126.5a9,9,0,0,1-7.4,14.2H38.6a9,9,0,0,1-7.4-14.2l89-126.5a9.1,9.1,0,0,1,7.4-3.8M53.9,156.9H200.7L127.3,52,53.9,156.9M127.6,25.6a11.91,11.91,0,0,0-9.8,5.1l-89,126.5a11.81,11.81,0,0,0-.8,12.4,12,12,0,0,0,10.6,6.5h178a12,12,0,0,0,9.8-18.9l-89-126.5a12,12,0,0,0-9.8-5.1ZM59.7,153.9l67.6-96.6,67.6,96.6Z" transform="translate(-14.2 -25.6)"/><path class="cls-2" d="M24.9,200.9a9.35,9.35,0,0,1-9.3-9.3V191a9.35,9.35,0,0,1,9.3-9.3H230a9.35,9.35,0,0,1,9.3,9.3v.6a9.35,9.35,0,0,1-9.3,9.3Z" transform="translate(-14.2 -25.6)"/><path d="M230,183.2a7.81,7.81,0,0,1,7.8,7.8v.6a7.81,7.81,0,0,1-7.8,7.8H25a7.81,7.81,0,0,1-7.8-7.8V191a7.81,7.81,0,0,1,7.8-7.8H230m0-3H25A10.82,10.82,0,0,0,14.2,191v.6A10.82,10.82,0,0,0,25,202.4H230.1a10.82,10.82,0,0,0,10.8-10.8V191A10.84,10.84,0,0,0,230,180.2Z" transform="translate(-14.2 -25.6)"/><path d="M129.1,91c.8.1,1.5.1,2.3.2,2.2.3,4.5.5,6.7.8a28.17,28.17,0,0,1,5.7,1.5,11.28,11.28,0,0,1,4,2.2l.9.9a2.56,2.56,0,0,1-1.2,1.3,17.53,17.53,0,0,1-4.2,1.9,57.08,57.08,0,0,1-8.2,1.8,49,49,0,0,1-9.4.7c-2-.1-4-.3-6-.4a46.29,46.29,0,0,1-7.3-1.2,17.39,17.39,0,0,1-5.4-1.9,14.63,14.63,0,0,1-1.3-.9,10.63,10.63,0,0,1-.9-1.1l.4-.4a16.88,16.88,0,0,1,3.9-2.2,41,41,0,0,1,7.8-2.2,47.81,47.81,0,0,1,7.6-.9c.1,0,.2,0,.2-.1Z" transform="translate(-14.2 -25.6)"/><path d="M148.6,98.5a12.92,12.92,0,0,1-2.3,6.3,38.85,38.85,0,0,1-4.2,4.9,14.38,14.38,0,0,0-2.4,3,4.33,4.33,0,0,0,0,4.4,2.19,2.19,0,0,0,.3.5,15.39,15.39,0,0,1,.8,1.9,5,5,0,0,1-.6,4.6,13.53,13.53,0,0,1-3.1,3.2c-1.8,1.3-3.7,2.4-5.5,3.6a34.26,34.26,0,0,0-5.4,4,8.62,8.62,0,0,0-1.4,1.8,4.52,4.52,0,0,0-.4,4.5c.3.8.7,1.6,1.1,2.5a7,7,0,0,1,.9,3.2,7.21,7.21,0,0,1-1,3.8,6,6,0,0,0,.2-1.2,4.56,4.56,0,0,0-1.1-3.3,9.43,9.43,0,0,0-3.5-2.5,6.62,6.62,0,0,1-2.2-1.5,6,6,0,0,1-1.5-5.4,17.79,17.79,0,0,1,1.8-5.2,40.66,40.66,0,0,1,3.1-4.9,7.37,7.37,0,0,0,1.5-5.1,5.32,5.32,0,0,0-1.7-3.5,11,11,0,0,0-3.5-2.4,32.86,32.86,0,0,1-5.5-3,19.72,19.72,0,0,1-5.7-5.8,15.83,15.83,0,0,1-2.4-6.6,9.15,9.15,0,0,1-.1-1.7c.1,0,.1,0,.1.1a7.43,7.43,0,0,0,3.5,2.9,22.88,22.88,0,0,0,6.2,1.7,76.7,76.7,0,0,0,12.7.8,59.81,59.81,0,0,0,9.4-.9,34.37,34.37,0,0,0,7.6-2.1,13,13,0,0,0,4.2-2.5A.1.1,0,0,0,148.6,98.5Z" transform="translate(-14.2 -25.6)"/></svg>