<svg width="78" height="63" viewBox="0 0 78 63" fill="none" xmlns="http://www.w3.org/2000/svg">
<path d="M59.394 39.0238C45.6975 39.0238 32.261 39.0238 18.5776 39.0238C25.4215 29.2626 32.164 19.6512 38.9814 9.92969C45.768 19.6028 52.5061 29.2053 59.394 39.0238Z" fill="#FCFBFB"/>
<path d="M39.0346 54.0511C48.9676 54.0511 58.9007 54.0511 68.8338 54.0467C69.3891 54.0467 69.9487 54.0511 70.4908 53.9674C73.0644 53.562 74.2763 50.6887 72.8044 48.5293C71.9054 47.2117 70.5921 46.9429 69.107 46.9429C49.0381 46.9561 28.9737 46.9517 8.9048 46.9517C8.50377 46.9517 8.09393 46.9252 7.69732 46.9781C5.98304 47.2117 4.70946 48.5117 4.55081 50.1511C4.39216 51.7816 5.31761 53.3681 6.83798 53.8264C7.54308 54.0379 8.33191 54.0423 9.08107 54.0423C19.067 54.0555 29.0486 54.0511 39.0346 54.0511Z" fill="#FCFBFB"/>
<path d="M39.1362 0.0759277C41.2735 0.0759277 41.9522 1.86512 42.9658 3.31057C51.5195 15.5573 60.1173 27.7775 68.7107 39.9977C69.6406 41.3154 70.1606 42.6683 69.3409 44.2151C68.5388 45.7355 67.1815 46.1541 65.5422 46.1541C47.8839 46.1365 30.2299 46.1365 12.5716 46.1541C10.8882 46.1541 9.46037 45.784 8.62307 44.2019C7.77254 42.589 8.40273 41.2184 9.35461 39.8655C18.089 27.4382 26.8146 15.002 35.505 2.54377C36.2453 1.48172 36.9989 0.0759277 39.1362 0.0759277ZM38.9776 45.2023C47.7561 45.2023 56.5345 45.1934 65.313 45.2111C66.6351 45.2155 67.8381 45.1097 68.53 43.7568C69.1911 42.4612 68.5873 41.4564 67.8646 40.4252C59.1478 28.0155 50.4442 15.6013 41.7363 3.18718C39.8325 0.472545 38.1359 0.468138 36.2409 3.16514C27.5373 15.5793 18.8294 27.9934 10.117 40.4032C9.39868 41.4256 8.7729 42.4347 9.43393 43.7348C10.117 45.0877 11.3157 45.2111 12.6421 45.2067C21.4206 45.1934 30.1991 45.2023 38.9776 45.2023Z" fill="#170606"/>
<path d="M39.0345 54.0511C29.053 54.0511 19.067 54.0555 9.08547 54.0423C8.3363 54.0423 7.54747 54.0423 6.84237 53.8264C5.322 53.3681 4.39656 51.7816 4.55521 50.1511C4.71385 48.5117 5.98744 47.2117 7.70171 46.9781C8.09833 46.9252 8.50817 46.9517 8.90919 46.9517C28.9781 46.9517 49.0425 46.9561 69.1114 46.9429C70.5965 46.9429 71.9098 47.2117 72.8088 48.5293C74.2762 50.6887 73.0688 53.562 70.4952 53.9674C69.9531 54.0555 69.389 54.0467 68.8382 54.0467C58.9007 54.0511 48.9676 54.0511 39.0345 54.0511ZM38.9861 53.0948C48.9191 53.0948 58.8522 53.0948 68.7897 53.0948C69.2436 53.0948 69.7019 53.1169 70.1514 53.0728C71.5484 52.9318 72.465 51.9402 72.4959 50.5829C72.5267 49.2609 71.6233 48.1459 70.2924 47.9344C69.7989 47.8551 69.2877 47.8903 68.7809 47.8903C48.9147 47.8903 29.0442 47.8903 9.17801 47.8903C8.67563 47.8903 8.16002 47.8551 7.67086 47.9388C6.33999 48.1548 5.44099 49.2741 5.47624 50.5962C5.5115 51.9579 6.42812 52.9406 7.82951 53.0772C8.27901 53.1213 8.73732 53.0993 9.19123 53.0993C19.1199 53.0993 29.053 53.0948 38.9861 53.0948Z" fill="#170606"/>
<path d="M38.9772 45.2021C30.1987 45.2021 21.4202 45.1933 12.6418 45.211C11.3153 45.2154 10.1166 45.0876 9.43355 43.7391C8.77252 42.4346 9.3983 41.4299 10.1166 40.4075C18.829 27.9933 27.537 15.5792 36.2449 3.16503C38.1399 0.463624 39.8365 0.472438 41.7403 3.18707C50.4483 15.6012 59.1518 28.0198 67.8686 40.4251C68.5913 41.4563 69.1995 42.4567 68.534 43.7567C67.8422 45.1096 66.6391 45.2154 65.317 45.211C56.5341 45.1889 47.7557 45.2021 38.9772 45.2021ZM61.1658 39.9536C53.6873 29.2934 46.3895 18.8887 38.9816 8.32548C31.5516 18.924 24.2362 29.3506 16.8062 39.9536C31.7103 39.9536 46.2706 39.9536 61.1658 39.9536Z" fill="#F70000"/>
<path d="M38.9859 53.0949C29.0529 53.0949 19.1198 53.0949 9.1823 53.0949C8.72839 53.0949 8.27008 53.1169 7.82058 53.0729C6.41919 52.9318 5.50256 51.9491 5.46731 50.5918C5.43205 49.2697 6.33106 48.1504 7.66193 47.9345C8.1555 47.8551 8.66669 47.886 9.16908 47.886C29.0352 47.886 48.9058 47.886 68.7719 47.886C69.2743 47.886 69.7899 47.8507 70.2835 47.93C71.6144 48.1416 72.5178 49.2565 72.4869 50.5786C72.4561 51.9403 71.5395 52.9274 70.1425 53.0684C69.693 53.1125 69.2347 53.0905 68.7808 53.0905C58.8565 53.0993 48.919 53.0949 38.9859 53.0949Z" fill="#F70000"/>
<path d="M61.1657 39.9538C46.2661 39.9538 31.7102 39.9538 16.8018 39.9538C24.2361 29.3509 31.5471 18.9242 38.9771 8.32568C46.3895 18.8889 53.6916 29.2936 61.1657 39.9538ZM59.3941 39.0239C52.5062 29.2054 45.7681 19.5985 38.9815 9.92978C32.1641 19.6513 25.4216 29.2627 18.5777 39.0239C32.261 39.0239 45.6976 39.0239 59.3941 39.0239Z" fill="#170606"/>
<path d="M72.4298 61.9483H5.52912C5.41455 61.9483 4.94301 61.9528 4.81962 61.9528C4.58605 61.9528 4.27317 61.9483 3.96028 61.9043C2.42228 61.7016 1.17073 60.4015 1.05175 58.8812C0.923947 57.2859 1.89786 55.9198 3.47112 55.4879C3.96469 55.3513 4.52436 55.2896 5.22946 55.2896C16.4802 55.2852 27.7309 55.2808 38.9817 55.2808C50.2324 55.2808 61.4831 55.2808 72.7339 55.2896C73.4389 55.2896 73.9986 55.3513 74.4922 55.4923C76.0654 55.9286 77.035 57.2947 76.9072 58.89C76.7838 60.4104 75.5322 61.7104 73.9942 61.9087C73.6813 61.9483 73.3728 61.9528 73.1393 61.9528C73.0203 61.9528 72.5444 61.9483 72.4298 61.9483Z" fill="#F70000"/>
<path d="M38.9419 55.7215C50.2058 55.7215 61.4742 55.7215 72.7382 55.7259C73.2846 55.7259 73.8531 55.7655 74.3775 55.911C75.7657 56.2943 76.5809 57.4886 76.4708 58.8503C76.365 60.1592 75.2941 61.2917 73.9412 61.468C73.6768 61.5033 73.408 61.5121 73.1392 61.5121C72.9012 61.5121 72.6676 61.5077 72.4297 61.5077C64.8058 61.5077 57.1819 61.5077 49.5624 61.5077C46.0369 61.5077 42.507 61.5077 38.9815 61.5077C35.4649 61.5077 31.9526 61.5077 28.4359 61.5077C20.7988 61.5077 13.1661 61.5077 5.53342 61.5077C5.29986 61.5077 5.0663 61.5121 4.82832 61.5121C4.55951 61.5121 4.28628 61.5033 4.02187 61.468C2.66896 61.2917 1.59809 60.1592 1.49673 58.8459C1.39097 57.4842 2.20624 56.2943 3.5944 55.911C4.11882 55.7655 4.6873 55.7259 5.23376 55.7259C16.4669 55.7259 27.7044 55.7215 38.9419 55.7215ZM38.9419 54.8401C27.7044 54.8401 16.4713 54.8401 5.23376 54.8445C4.489 54.8445 3.88966 54.915 3.36084 55.0604C1.57606 55.554 0.474339 57.1008 0.619766 58.9164C0.756379 60.6395 2.17098 62.1114 3.9117 62.3406C4.25102 62.3846 4.58154 62.389 4.83273 62.389C4.95172 62.389 5.07511 62.389 5.19409 62.3846C5.30867 62.3846 5.41884 62.3802 5.53342 62.3802C13.1705 62.3802 20.8032 62.3802 28.4403 62.3802H33.7153H38.9904H44.283H49.5757C57.1995 62.3802 64.8234 62.3802 72.4429 62.3802C72.5575 62.3802 72.6721 62.3802 72.7866 62.3846C72.91 62.3846 73.0334 62.389 73.1524 62.389C73.3992 62.389 73.7253 62.3846 74.0646 62.3406C75.8053 62.1158 77.2199 60.6439 77.361 58.9208C77.5064 57.1052 76.4091 55.554 74.6243 55.0604C74.0911 54.9106 73.4961 54.8445 72.747 54.8445C61.4698 54.8445 50.2058 54.8401 38.9419 54.8401Z" fill="black"/>
<path d="M38.1618 29.461L36.5709 20.2022C36.5445 20.048 36.5312 19.8893 36.5312 19.7351C36.5312 18.4042 37.3994 17.7432 39.1357 17.7432C40.872 17.7432 41.7402 18.4042 41.7402 19.7263C41.7402 19.9069 41.7269 20.0656 41.7005 20.2066L40.1096 29.4654H38.1618V29.461ZM39.1357 31.3604C40.6561 31.3604 41.4141 32.1184 41.4141 33.6387C41.4141 35.1591 40.6561 35.9171 39.1357 35.9171C37.6153 35.9171 36.8574 35.1591 36.8574 33.6387C36.8574 32.1228 37.6153 31.3604 39.1357 31.3604Z" fill="#030000"/>
</svg>
