<svg width="26" height="22" viewBox="0 0 26 22" fill="none" xmlns="http://www.w3.org/2000/svg">
<path d="M14.8915 21.4491L25.3244 12.4662C25.5367 12.2829 25.7068 12.0574 25.8233 11.8048C25.9398 11.5521 26 11.278 26 11.0008C26 10.7235 25.9398 10.4494 25.8233 10.1967C25.7068 9.94408 25.5367 9.71861 25.3244 9.53535L14.8915 0.550918C14.6978 0.366688 14.4678 0.222989 14.2157 0.128554C13.9635 0.0341199 13.6943 -0.00907806 13.4246 0.00158631C13.1548 0.0122507 12.8901 0.0765545 12.6465 0.19059C12.4029 0.304625 12.1855 0.46601 12.0076 0.664936C11.8296 0.863861 11.6948 1.09617 11.6113 1.34775C11.5277 1.59933 11.4973 1.86493 11.5218 2.12839C11.5463 2.39185 11.6252 2.64769 11.7537 2.88034C11.8822 3.11299 12.0577 3.3176 12.2694 3.48174L18.7291 9.04864L2.78496 9.04864C2.52347 9.04864 2.26454 9.09911 2.02295 9.19718C1.78136 9.29524 1.56184 9.43898 1.37693 9.62018C1.19203 9.80138 1.04535 10.0165 0.945282 10.2532C0.845211 10.49 0.793705 10.7437 0.793705 11C0.793705 11.2563 0.845211 11.51 0.945282 11.7468C1.04535 11.9835 1.19203 12.1986 1.37693 12.3798C1.56184 12.561 1.78136 12.7048 2.02295 12.8028C2.26454 12.9009 2.52347 12.9514 2.78496 12.9514L18.7291 12.9514L12.2632 18.5183C12.0515 18.6824 11.8761 18.887 11.7476 19.1197C11.619 19.3523 11.5401 19.6081 11.5156 19.8716C11.4911 20.1351 11.5216 20.4007 11.6051 20.6522C11.6886 20.9038 11.8234 21.1361 12.0014 21.3351C12.1794 21.534 12.3968 21.6954 12.6404 21.8094C12.884 21.9234 13.1487 21.9877 13.4184 21.9984C13.6882 22.0091 13.9573 21.9659 14.2095 21.8714C14.4617 21.777 14.6916 21.6333 14.8854 21.4491L14.8915 21.4491Z" fill="#E5E5E5"/>
</svg>
