<svg width="33" height="28" viewBox="0 0 33 28" fill="none" xmlns="http://www.w3.org/2000/svg">
<path d="M22.7938 7.4664H7.33039L11.5238 3.75396C11.8794 3.41008 12.0893 2.94128 12.11 2.44531C12.1307 1.94934 11.9604 1.46447 11.6348 1.09181C11.3091 0.719144 10.8532 0.487451 10.3621 0.445037C9.87093 0.402624 9.38249 0.552763 8.99859 0.86415L0.990467 7.9461C0.786904 8.12689 0.623871 8.34923 0.512199 8.59836C0.400528 8.84748 0.342773 9.11768 0.342773 9.39101C0.342773 9.66434 0.400528 9.93454 0.512199 10.1837C0.623871 10.4328 0.786904 10.6551 0.990467 10.8359L8.99859 17.9217C9.38249 18.2331 9.87093 18.3832 10.3621 18.3408C10.8532 18.2984 11.3091 18.0667 11.6348 17.6941C11.9604 17.3214 12.1307 16.8365 12.11 16.3406C12.0893 15.8446 11.8794 15.3758 11.5238 15.0319L7.33039 11.3195H22.7938C26.3119 11.3195 29.1739 14.1361 29.1739 17.6C29.1739 21.0639 26.3042 23.2494 22.7938 23.2494H4.14512C3.63775 23.2494 3.15115 23.4524 2.79238 23.8137C2.43361 24.175 2.23205 24.665 2.23205 25.1759C2.23205 25.6869 2.43361 26.1769 2.79238 26.5382C3.15115 26.8995 3.63775 27.1025 4.14512 27.1025H22.7938C28.422 27.1025 33 23.1869 33 17.6C33 12.013 28.422 7.4664 22.7938 7.4664Z" fill="#E5E5E5"/>
</svg>
