<svg width="46" height="41" viewBox="0 0 46 41" fill="none" xmlns="http://www.w3.org/2000/svg">
  <g filter="url(#filter0_d_1003_34375)">
    <path d="M31.4538 11.5627H10.9304L16.4961 6.63541C16.9679 6.17901 17.2466 5.55681 17.274 4.89854C17.3015 4.24027 17.0755 3.59675 16.6433 3.10214C16.2111 2.60753 15.606 2.30002 14.9541 2.24373C14.3023 2.18744 13.654 2.38671 13.1445 2.79999L2.51589 12.1993C2.24571 12.4393 2.02933 12.7344 1.88112 13.065C1.7329 13.3957 1.65625 13.7543 1.65625 14.1171C1.65625 14.4798 1.7329 14.8384 1.88112 15.1691C2.02933 15.4997 2.24571 15.7948 2.51589 16.0348L13.1445 25.4392C13.654 25.8525 14.3023 26.0518 14.9541 25.9955C15.606 25.9392 16.2111 25.6317 16.6433 25.1371C17.0755 24.6425 17.3015 23.9989 17.274 23.3407C17.2466 22.6824 16.9679 22.0602 16.4961 21.6038L10.9304 16.6766H31.4538C36.1231 16.6766 39.9216 20.4148 39.9216 25.0122C39.9216 29.6096 36.113 32.5102 31.4538 32.5102H6.70283C6.02942 32.5102 5.3836 32.7796 4.90743 33.2592C4.43126 33.7387 4.16375 34.3891 4.16375 35.0672C4.16375 35.7453 4.43126 36.3957 4.90743 36.8752C5.3836 37.3548 6.02942 37.6241 6.70283 37.6241H31.4538C38.9237 37.6241 44.9998 32.4274 44.9998 25.0122C44.9998 17.5971 38.9237 11.5627 31.4538 11.5627Z" fill="white" />
  </g>
  <defs>
    <filter id="filter0_d_1003_34375" x="0.15625" y="0.734375" width="45.3438" height="40.6543" filterUnits="userSpaceOnUse" color-interpolation-filters="sRGB">
      <feFlood flood-opacity="0" result="BackgroundImageFix" />
      <feColorMatrix in="SourceAlpha" type="matrix" values="0 0 0 0 0 0 0 0 0 0 0 0 0 0 0 0 0 0 127 0" result="hardAlpha" />
      <feOffset dx="-0.5" dy="-0.5" />
      <feGaussianBlur stdDeviation="0.5" />
      <feComposite in2="hardAlpha" operator="out" />
      <feColorMatrix type="matrix" values="0 0 0 0 0 0 0 0 0 0 0 0 0 0 0 0 0 0 0.5 0" />
      <feBlend mode="normal" in2="BackgroundImageFix" result="effect1_dropShadow_1003_34375" />
      <feBlend mode="normal" in="SourceGraphic" in2="effect1_dropShadow_1003_34375" result="shape" />
    </filter>
  </defs>
</svg>
