<svg width="19" height="32" viewBox="0 0 19 32" fill="none" xmlns="http://www.w3.org/2000/svg">
<path d="M9.47609 1.28824C11.8433 1.28824 13.7443 1.93821 15.2818 3.27115C16.8982 4.68416 17.6729 6.52109 17.6729 8.88082C17.6729 10.3645 17.0177 11.9705 15.7289 13.6567L12.3813 18.0159C11.7706 18.7896 11.4017 19.7216 11.3197 20.6983H8.02467V20.6606C8.02467 19.3135 8.5029 18.07 9.45935 16.8337L12.795 12.6135C13.8638 11.2711 14.3851 10.0347 14.3851 8.84546C14.4247 7.54314 13.938 6.27857 13.0317 5.32943C12.1159 4.38743 10.9036 3.91642 9.42588 3.91642C7.90272 3.91642 6.67846 4.41334 5.79135 5.39538C5.22266 6.02155 4.82954 6.7829 4.65077 7.60436H1.40122C1.60519 5.95021 2.41759 4.42705 3.68475 3.32295C5.19117 1.96646 7.08735 1.30705 9.47609 1.30705V1.28824ZM9.71521 26.6211C11.2455 26.6211 11.7883 27.1557 11.7883 28.6653C11.7883 30.1749 11.2455 30.7071 9.71521 30.7071C8.18488 30.7071 7.6397 30.1749 7.6397 28.6653C7.6397 27.1557 8.18249 26.6211 9.71521 26.6211ZM9.47609 0.00942927C6.76614 0.00942927 4.53998 0.794435 2.79764 2.36445C0.929363 4.02552 -0.00318004 6.20312 8.14699e-06 8.89726H5.84634C5.81 7.93015 6.14657 6.98533 6.78845 6.25258C7.42609 5.55707 8.31081 5.20932 9.44262 5.20932C10.5585 5.20932 11.4432 5.55004 12.0968 6.23142C12.4287 6.58272 12.687 6.99503 12.8569 7.44481C13.0268 7.89459 13.1049 8.37297 13.0867 8.85253C13.0867 9.74272 12.6507 10.7357 11.7788 11.8316L8.43116 16.0542C7.2882 17.508 6.71672 19.049 6.71672 20.6771V22.01H12.6276V21.068C12.6353 20.2441 12.9214 19.4462 13.4406 18.8001L16.7882 14.4433C18.2627 12.5201 19 10.6682 19 8.88783C19 6.16229 18.0523 3.96979 16.1569 2.31029C14.3827 0.770104 12.1566 0 9.47848 0L9.47609 0.00942927ZM9.71521 25.3235C7.45638 25.3235 6.32616 26.4367 6.32457 28.663C6.32298 30.8892 7.45319 32.0016 9.71521 32C11.974 32 13.1035 30.8877 13.1035 28.663C13.1035 26.4382 11.974 25.3251 9.71521 25.3235Z" fill="white"/>
</svg>
