<svg width="50" height="45" viewBox="0 0 50 45" fill="none" xmlns="http://www.w3.org/2000/svg">
<path fill-rule="evenodd" clip-rule="evenodd" d="M13.6299 3.12964C7.75807 3.12964 3.38867 7.6353 3.38867 14.4854C3.38867 19.4564 6.37352 23.7373 10.1731 27.3732C12.0545 29.1735 14.0792 30.7622 15.9289 32.1529C16.3849 32.4957 16.8364 32.8309 17.2751 33.1564C18.5725 34.1194 19.7566 34.9983 20.6039 35.7406C23.3601 38.1556 24.3527 39.1224 25.0005 39.7962C25.6484 39.1225 26.6414 38.1549 29.3991 35.7403C30.2455 34.9992 31.4275 34.1219 32.7227 33.1607C33.1631 32.8338 33.6166 32.4972 34.0744 32.153C35.924 30.7623 37.9482 29.1736 39.829 27.3733C43.6273 23.7376 46.6109 19.4566 46.6109 14.4854C46.6109 7.6353 42.2415 3.12964 36.3696 3.12964C33.5386 3.12964 31.0561 4.75983 29.1773 6.60047C28.2559 7.50317 27.5274 8.41077 27.0294 9.09363C26.7813 9.43379 26.5928 9.71486 26.4686 9.90717C26.4065 10.0032 26.3607 10.0769 26.3316 10.1244C26.317 10.1481 26.3067 10.1653 26.3006 10.1755L26.2953 10.1843L26.2949 10.1851L26.2947 10.1854L26.2946 10.1856L26.2942 10.1862L24.9998 12.4044L23.7053 10.1862L23.705 10.1856L23.7048 10.1854L23.7047 10.1851L23.7042 10.1843L23.699 10.1755C23.6929 10.1653 23.6825 10.1481 23.668 10.1244C23.6389 10.0769 23.593 10.0032 23.531 9.90717C23.4067 9.71485 23.2183 9.43379 22.9702 9.09363C22.4722 8.41077 21.7436 7.50317 20.8222 6.60047C18.9434 4.75983 16.461 3.12964 13.6299 3.12964ZM24.9998 6.80097C25.5361 6.1074 26.2343 5.28398 27.0779 4.45749C29.1793 2.39879 32.3818 0.129639 36.3696 0.129639C44.1355 0.129639 49.6109 6.22599 49.6109 14.4854C49.6109 20.7028 45.8889 25.7256 41.9034 29.5405C39.8924 31.4655 37.7552 33.1388 35.8773 34.5508C35.361 34.939 34.8712 35.3026 34.4109 35.6443C33.1569 36.5752 32.1231 37.3427 31.3754 37.9974C28.1601 40.8126 27.4703 41.5458 26.7977 42.2607C26.5781 42.4942 26.3603 42.7256 26.0571 43.0269L24.9984 44.0791L23.9411 43.0256C23.6426 42.7282 23.427 42.4988 23.2102 42.2682C22.5365 41.5514 21.8506 40.8217 18.6268 37.997C17.8787 37.3415 16.8432 36.5728 15.5865 35.6398C15.1281 35.2995 14.6402 34.9373 14.1261 34.5508C12.2482 33.1389 10.1105 31.4656 8.09894 29.5407C4.11248 25.7259 0.388672 20.7031 0.388672 14.4854C0.388672 6.22599 5.86407 0.129639 13.6299 0.129639C17.6178 0.129639 20.8203 2.39879 22.9217 4.45749C23.7653 5.28398 24.4635 6.1074 24.9998 6.80097Z" fill="white"/>
</svg>
