<svg width="33" height="33" viewBox="0 0 33 33" fill="none" xmlns="http://www.w3.org/2000/svg">
<path d="M16.5 33C13.2366 33 10.0465 32.0323 7.3331 30.2192C4.61969 28.4062 2.50484 25.8293 1.25599 22.8143C0.00714923 19.7993 -0.319606 16.4817 0.31705 13.281C0.953706 10.0803 2.52518 7.14031 4.83274 4.83274C7.14031 2.52518 10.0803 0.953706 13.281 0.31705C16.4817 -0.319606 19.7993 0.00714923 22.8143 1.25599C25.8293 2.50484 28.4062 4.61969 30.2192 7.3331C32.0323 10.0465 33 13.2366 33 16.5C32.9949 20.8745 31.2549 25.0684 28.1616 28.1616C25.0684 31.2549 20.8745 32.9949 16.5 33ZM16.5 2.62907C13.7566 2.62907 11.0748 3.44259 8.79373 4.96674C6.51266 6.4909 4.73479 8.65724 3.68493 11.1918C2.63507 13.7264 2.36038 16.5154 2.8956 19.2061C3.43081 21.8968 4.75189 24.3684 6.69177 26.3082C8.63166 28.2481 11.1032 29.5692 13.7939 30.1044C16.4846 30.6396 19.2736 30.3649 21.8082 29.3151C24.3428 28.2652 26.5091 26.4873 28.0333 24.2063C29.5574 21.9252 30.3709 19.2434 30.3709 16.5C30.3668 12.8225 28.904 9.29678 26.3036 6.69638C23.7032 4.09598 20.1775 2.63324 16.5 2.62907Z" fill="#E5E5E5"/>
<path d="M15.9634 16.3248C15.9634 18.22 15.496 19.6602 14.5612 20.6452C13.6265 21.6302 12.2687 22.1227 10.488 22.1227C8.72123 22.1227 7.36638 21.6273 6.42343 20.6364C5.48047 19.6456 5.00958 18.2025 5.01074 16.3072C5.01074 14.4377 5.47813 13.0063 6.41291 12.0131C7.34769 11.0199 8.70954 10.5256 10.4985 10.5303C12.2921 10.5303 13.6504 11.0205 14.5735 12.0008C15.4966 12.9812 15.9599 14.4225 15.9634 16.3248ZM8.21469 16.3248C8.21469 18.5016 8.9742 19.5901 10.4932 19.5901C11.2621 19.5901 11.8329 19.3254 12.2056 18.7961C12.5789 18.2703 12.7647 17.443 12.7647 16.3248C12.7647 15.2065 12.5754 14.3687 12.1986 13.8324C11.8218 13.2961 11.2574 13.0279 10.5072 13.0279C8.97887 13.0267 8.21469 14.1257 8.21469 16.3248Z" fill="#E5E5E5"/>
<path d="M27.0427 21.9685H23.6074L21.3814 17.662L20.4806 18.2019V21.9685H17.4238V10.7161H20.4806V15.5991C20.7582 15.0994 21.0679 14.6181 21.4077 14.1584L23.7774 10.7161H27.1075L23.5548 15.7516L27.0427 21.9685Z" fill="#E5E5E5"/>
</svg>
