<svg width="25" height="24" viewBox="0 0 25 24" fill="none" xmlns="http://www.w3.org/2000/svg">
<path d="M14.1227 23.399L24.3385 13.5995C24.5464 13.3995 24.7129 13.1536 24.827 12.8779C24.941 12.6023 25 12.3033 25 12.0008C25 11.6984 24.941 11.3994 24.827 11.1237C24.7129 10.8481 24.5464 10.6021 24.3385 10.4022L14.1227 0.601002C13.9329 0.400024 13.7078 0.243261 13.4609 0.140241C13.2139 0.0372217 12.9504 -0.00990335 12.6862 0.0017305C12.4221 0.0133644 12.1629 0.0835139 11.9244 0.207916C11.6859 0.332318 11.473 0.508374 11.2987 0.725384C11.1244 0.942394 10.9924 1.19583 10.9106 1.47028C10.8289 1.74473 10.7991 2.03447 10.8231 2.32188C10.847 2.6093 10.9243 2.88838 11.0501 3.14219C11.176 3.39599 11.3478 3.6192 11.5551 3.79826L17.8803 9.87124L2.26801 9.87124C2.01195 9.87124 1.75841 9.92631 1.52184 10.0333C1.28528 10.1403 1.07033 10.2971 0.889271 10.4947C0.708212 10.6924 0.564591 10.9271 0.466602 11.1854C0.368614 11.4436 0.31818 11.7204 0.31818 12C0.31818 12.2796 0.368614 12.5564 0.466602 12.8146C0.564591 13.0729 0.708212 13.3076 0.889271 13.5053C1.07033 13.7029 1.28528 13.8597 1.52184 13.9667C1.75841 14.0737 2.01195 14.1288 2.26801 14.1288L17.8803 14.1288L11.5491 20.2017C11.3418 20.3808 11.17 20.604 11.0441 20.8578C10.9183 21.1116 10.841 21.3907 10.817 21.6781C10.793 21.9655 10.8228 22.2553 10.9046 22.5297C10.9864 22.8042 11.1184 23.0576 11.2927 23.2746C11.4669 23.4916 11.6798 23.6677 11.9183 23.7921C12.1569 23.9165 12.4161 23.9866 12.6802 23.9983C12.9443 24.0099 13.2079 23.9628 13.4548 23.8598C13.7017 23.7567 13.9269 23.6 14.1166 23.399L14.1227 23.399Z" fill="#809DD3"/>
</svg>
