<svg width="25" height="24" viewBox="0 0 25 24" fill="none" xmlns="http://www.w3.org/2000/svg">
<path d="M10.8773 0.600996L0.661506 10.4005C0.453619 10.6005 0.287108 10.8464 0.17305 11.1221C0.0589914 11.3977 1.46715e-07 11.6967 1.43108e-07 11.9992C1.39502e-07 12.3016 0.0589913 12.6006 0.17305 12.8763C0.287108 13.1519 0.453619 13.3979 0.661506 13.5978L10.8773 23.399C11.0671 23.6 11.2922 23.7567 11.5391 23.8598C11.7861 23.9628 12.0496 24.0099 12.3138 23.9983C12.5779 23.9866 12.8371 23.9165 13.0756 23.7921C13.3141 23.6677 13.527 23.4916 13.7013 23.2746C13.8756 23.0576 14.0076 22.8042 14.0894 22.5297C14.1711 22.2553 14.2009 21.9655 14.1769 21.6781C14.153 21.3907 14.0757 21.1116 13.9499 20.8578C13.824 20.604 13.6522 20.3808 13.4449 20.2017L7.11965 14.1288L22.732 14.1288C22.9881 14.1288 23.2416 14.0737 23.4782 13.9667C23.7147 13.8597 23.9297 13.7029 24.1107 13.5053C24.2918 13.3076 24.4354 13.0729 24.5334 12.8146C24.6314 12.5564 24.6818 12.2796 24.6818 12C24.6818 11.7204 24.6314 11.4436 24.5334 11.1854C24.4354 10.9271 24.2918 10.6924 24.1107 10.4947C23.9297 10.2971 23.7147 10.1403 23.4782 10.0333C23.2416 9.9263 22.9881 9.87124 22.732 9.87124L7.11965 9.87124L13.4509 3.79826C13.6582 3.6192 13.83 3.39598 13.9559 3.14218C14.0817 2.88838 14.159 2.60929 14.183 2.32187C14.207 2.03446 14.1772 1.74472 14.0954 1.47027C14.0136 1.19582 13.8816 0.942391 13.7073 0.72538C13.5331 0.50837 13.3202 0.332312 13.0817 0.207911C12.8431 0.0835077 12.5839 0.0133611 12.3198 0.0017282C12.0557 -0.00990663 11.7921 0.0372163 11.5452 0.140236C11.2983 0.243256 11.0731 0.400019 10.8834 0.600996L10.8773 0.600996Z" fill="#809DD3"/>
</svg>
