<svg width="33" height="33" viewBox="0 0 33 33" fill="none" xmlns="http://www.w3.org/2000/svg">
<circle cx="16.5" cy="16.5" r="15.25" stroke="#809DD3" stroke-width="2.5"/>
<path d="M16.816 16.4758C16.816 18.4148 16.32 19.9046 15.328 20.9453C14.3359 21.986 12.9188 22.5067 11.0765 22.5073C9.22917 22.5073 7.812 21.9867 6.82494 20.9453C5.83788 19.9039 5.34187 18.4089 5.33691 16.4604C5.33691 14.5111 5.83292 13.0224 6.82494 11.994C7.81696 10.9657 9.23945 10.4519 11.0924 10.4526C12.9446 10.4526 14.3618 10.9688 15.3439 12.0012C16.326 13.0337 16.8167 14.5252 16.816 16.4758ZM8.01749 16.4758C8.01749 17.7836 8.2733 18.7689 8.7849 19.4317C9.29649 20.0946 10.0607 20.4256 11.0775 20.4249C13.1175 20.4249 14.1372 19.1086 14.1365 16.4758C14.1358 13.8431 13.1214 12.5244 11.0935 12.5195C10.0759 12.5195 9.30924 12.8517 8.79339 13.5159C8.27754 14.1801 8.01891 15.1667 8.01749 16.4758Z" fill="#809DD3"/>
<path d="M27.6617 22.3473H24.7643L21.6065 17.4133L20.5255 18.166V22.3473H17.9746V10.6364H20.5255V15.9958L21.5321 14.6175L24.7972 10.6364H27.634L23.4282 15.8192L27.6617 22.3473Z" fill="#809DD3"/>
</svg>
