<svg width="35" height="27" viewBox="0 0 35 27" fill="none" xmlns="http://www.w3.org/2000/svg">
<path d="M24.0616 7.11685H7.4889L11.9832 3.35769C12.3642 3.00949 12.5892 2.53479 12.6114 2.03258C12.6335 1.53036 12.4511 1.0394 12.1021 0.662045C11.7531 0.284693 11.2644 0.0500852 10.7381 0.00713791C10.2117 -0.0358093 9.68821 0.116219 9.27677 0.431525L0.694159 7.60259C0.475992 7.78566 0.301263 8.01079 0.18158 8.26305C0.0618974 8.51531 0 8.78891 0 9.06568C0 9.34244 0.0618974 9.61604 0.18158 9.8683C0.301263 10.1206 0.475992 10.3457 0.694159 10.5288L9.27677 17.7037C9.68821 18.019 10.2117 18.1711 10.7381 18.1281C11.2644 18.0852 11.7531 17.8506 12.1021 17.4732C12.4511 17.0959 12.6335 16.6049 12.6114 16.1027C12.5892 15.6005 12.3642 15.1258 11.9832 14.7776L7.4889 11.0184H24.0616C27.8321 11.0184 30.8994 13.8704 30.8994 17.3779C30.8994 20.8855 27.8239 23.0984 24.0616 23.0984H4.07513C3.53135 23.0984 3.00984 23.304 2.62533 23.6698C2.24083 24.0357 2.02481 24.5318 2.02481 25.0492C2.02481 25.5666 2.24083 26.0628 2.62533 26.4286C3.00984 26.7945 3.53135 27 4.07513 27H24.0616C30.0936 27 35 23.0352 35 17.3779C35 11.7207 30.0936 7.11685 24.0616 7.11685Z" fill="#809DD3"/>
</svg>
