<svg width="40" height="51" viewBox="0 0 40 51" fill="none" xmlns="http://www.w3.org/2000/svg">
<path d="M20.0043 2.89803C20.3221 2.89629 20.6371 2.95634 20.9311 3.07472C21.2252 3.1931 21.4926 3.36748 21.7179 3.58784C21.9432 3.80819 22.1221 4.07016 22.2441 4.3587C22.3661 4.64724 22.4289 4.95665 22.4289 5.26914V6.29135C27.5941 7.15286 30.0374 10.8149 31.2055 14.9854C32.1137 18.2207 31.5403 29.6969 32.3735 33.4775C33.2067 37.2581 37.0538 39.969 37.0538 39.969H2.95748C2.95748 39.969 6.80193 37.2581 7.63511 33.4775C8.4683 29.6969 7.90303 18.2207 8.80587 14.9854C9.97394 10.8228 12.4172 7.16076 17.5825 6.29135V5.26914C17.5825 4.64028 17.8365 4.03718 18.2887 3.59251C18.7408 3.14784 19.3541 2.89803 19.9936 2.89803H20.0043ZM19.9936 0C18.7922 0.00149421 17.6259 0.398425 16.6806 1.12753C15.7352 1.85663 15.0653 2.87594 14.7775 4.02299C11.3858 5.18747 7.71281 7.94586 5.95535 14.2161C5.41954 16.0919 5.33112 19.264 5.232 24.2644C5.16502 27.5602 5.09269 31.2987 4.74709 32.8636C4.26754 35.0345 2.03589 37.0368 1.21878 37.6243C0.714356 37.9834 0.338588 38.4905 0.145396 39.0726C-0.047795 39.6548 -0.0484801 40.2822 0.143442 40.8648C0.335365 41.4474 0.710029 41.9552 1.21367 42.3154C1.7173 42.6756 2.32402 42.8697 2.94676 42.8697H37.0538C37.6773 42.8695 38.2847 42.6749 38.7886 42.3138C39.2924 41.9528 39.6669 41.4438 39.8581 40.8602C40.0492 40.2767 40.0472 39.6485 39.8524 39.0661C39.6576 38.4837 39.2799 37.977 38.7738 37.619C37.9701 37.0368 35.7331 35.0345 35.2535 32.8636C34.9079 31.2987 34.8356 27.5629 34.7686 24.2644C34.6695 19.2587 34.573 16.0972 34.0453 14.2161C32.2878 7.94849 28.6148 5.18747 25.2231 4.02299C24.9352 2.8755 24.2649 1.85586 23.319 1.12671C22.3731 0.397567 21.2062 0.000906037 20.0043 0H19.9936Z" fill="white"/>
<path d="M20.0067 51C16.3551 51 13.3867 48.5736 13.3867 45.5886C13.3867 45.2043 13.542 44.8357 13.8183 44.564C14.0946 44.2922 14.4694 44.1396 14.8602 44.1396C15.251 44.1396 15.6258 44.2922 15.9021 44.564C16.1784 44.8357 16.3337 45.2043 16.3337 45.5886C16.3337 46.9507 18.0135 48.102 20.0067 48.102C21.9999 48.102 23.677 46.9507 23.677 45.5886C23.677 45.2043 23.8322 44.8357 24.1086 44.564C24.3849 44.2922 24.7597 44.1396 25.1505 44.1396C25.5412 44.1396 25.916 44.2922 26.1924 44.564C26.4687 44.8357 26.6239 45.2043 26.6239 45.5886C26.6239 48.5683 23.6555 51 20.0067 51Z" fill="white"/>
</svg>
