<svg width="39" height="51" viewBox="0 0 39 51" fill="none" xmlns="http://www.w3.org/2000/svg">
<path d="M33.6451 35.3792C32.6881 31.005 33.3464 17.7281 32.3064 13.9839C30.9704 9.16668 28.1768 4.92998 22.266 3.93408V2.75111C22.266 2.02147 21.9745 1.32171 21.4558 0.80578C20.9371 0.289848 20.2336 0 19.5 0C18.7664 0 18.0629 0.289848 17.5442 0.80578C17.0255 1.32171 16.734 2.02147 16.734 2.75111V3.93408C10.8232 4.92998 8.02957 9.16118 6.69362 13.9839C5.65362 17.7281 6.31191 31.005 5.35489 35.3792C4.39787 39.7535 0 42.8925 0 42.8925H39C39 42.8925 34.6021 39.7617 33.6451 35.3792Z" fill="white"/>
<path d="M26.2958 45.7041C26.2958 48.6285 23.2533 51 19.4944 51C15.7354 51 12.6929 48.6285 12.6929 45.7041H26.2958Z" fill="white"/>
</svg>
