<svg width="46" height="46" viewBox="0 0 46 46" fill="none" xmlns="http://www.w3.org/2000/svg">
<g clip-path="url(#clip0)">
<path d="M41.0456 26.2141C41.0821 25.6067 41.2734 24.4952 41.2704 23.3867C41.2704 21.7194 41.0426 20.0127 41.0092 19.5815C40.9444 19.1296 41.0402 18.6693 41.28 18.2808C41.5198 17.8924 41.8883 17.6003 42.3213 17.4556L43.679 16.8938L45.9995 15.9341L44.2591 11.7371L43.7427 11.9528C42.6402 12.4083 41.5346 12.8638 40.4381 13.3254C40.1561 13.461 39.8417 13.5151 39.5305 13.4819C39.2193 13.4486 38.9236 13.3292 38.6765 13.1371C38.3181 12.8669 36.6415 10.8352 35.8397 10.0365C34.8161 9.01303 33.668 8.08678 33.3703 7.8256C32.4834 7.04816 32.3316 6.377 32.7629 5.30194C33.2519 4.11147 33.7379 2.921 34.2147 1.74875L30.0475 0.0237952C29.5828 1.15049 29.109 2.2954 28.6352 3.43727C28.1614 4.57915 27.4749 4.98306 26.2266 4.92232C25.5432 4.88588 24.2554 4.74618 22.9858 4.75833C21.4489 4.75833 19.9485 4.94054 19.5445 4.97091C19.0938 5.03245 18.6357 4.93598 18.248 4.6979C17.8604 4.45983 17.5673 4.09485 17.4184 3.66504C17.0418 2.76004 16.6672 1.85403 16.2946 0.947008L15.8937 -0.015686L12.0393 1.61513C11.9543 1.65157 11.8723 1.70624 11.7356 1.77609L11.9178 2.22251L13.2148 5.34749C13.6461 6.39218 13.4426 7.16963 12.58 7.91975C11.4683 8.89763 10.384 9.58397 9.8464 10.243C9.3088 10.902 8.35205 12.0256 7.87519 12.5814C7.13105 13.4469 6.29275 13.6413 5.23881 13.21L4.69817 12.9853L1.77324 11.7705C1.16578 13.21 0.603878 14.5797 0.0176779 15.9827C1.2812 16.5051 2.56294 17.0426 3.85076 17.5558C4.06721 17.6297 4.26287 17.7542 4.42138 17.919C4.5799 18.0838 4.69667 18.2842 4.76195 18.5034C4.87782 18.9079 4.93109 19.3278 4.91989 19.7485C4.87129 21.0513 4.56756 22.0383 4.68602 23.2075C4.80447 24.3767 4.9047 25.5004 4.98975 26.4266C5.07783 27.5047 4.65564 28.1729 3.68067 28.5768L1.89473 29.2935L-0.0126953 30.0861C0.573505 31.5043 1.13844 32.8679 1.72464 34.2801L5.18414 32.8467C6.42336 32.3334 7.23432 32.5004 8.01794 33.5664C9.22178 35.2175 10.6699 36.6757 12.3127 37.891C13.3727 38.6714 13.7767 39.6068 13.0933 41.0068C12.5739 42.0697 12.1821 43.1904 11.7386 44.2533L15.9149 45.9965C16.4039 44.8181 16.896 43.6246 17.388 42.4342C17.8224 41.3834 18.4602 40.9704 19.6022 41.0493C20.3342 41.101 21.0662 41.271 21.7952 41.2589C23.2895 41.2315 24.7869 41.1313 26.2813 41.0281C27.4142 40.9522 28.1279 41.3561 28.5592 42.3917L29.4704 44.5661L30.0779 45.9995L34.2603 44.2654C33.7773 43.0992 33.3491 41.9483 32.8297 40.8428C32.204 39.5218 32.7477 38.6228 33.5799 37.9608C34.3625 37.3747 35.109 36.7419 35.8154 36.0658C36.6597 35.2063 37.3917 34.2436 38.1905 33.3326C38.8891 32.5369 39.6485 32.3668 40.6204 32.7677C41.8353 33.2749 43.0502 33.7911 44.1953 34.2861L45.9357 30.0831C44.8392 29.6245 43.6972 29.1416 42.5491 28.6679C41.322 28.1607 40.9636 27.5321 41.0456 26.2141ZM22.9979 35.6285C20.5021 35.6303 18.0617 34.892 15.9854 33.5072C13.9091 32.1223 12.2902 30.1529 11.3332 27.8481C10.3763 25.5432 10.1244 23.0064 10.6093 20.5585C11.0943 18.1105 12.2943 15.8612 14.0576 14.0951C15.821 12.329 18.0685 11.1254 20.516 10.6364C22.9635 10.1474 25.501 10.395 27.8078 11.348C30.1145 12.3009 32.0869 13.9163 33.4754 15.99C34.864 18.0636 35.6064 20.5024 35.6088 22.998C35.6088 26.3441 34.2809 29.5535 31.9165 31.9216C29.5521 34.2896 26.3445 35.6228 22.9979 35.6285Z" fill="white"/>
<path d="M22.9985 11.7893C20.7804 11.7887 18.6119 12.4459 16.7674 13.6777C14.9228 14.9094 13.485 16.6605 12.6359 18.7094C11.7868 20.7583 11.5645 23.013 11.9971 25.1882C12.4297 27.3635 13.4977 29.3616 15.0662 30.9298C16.6346 32.4981 18.633 33.566 20.8085 33.9985C22.9841 34.4311 25.239 34.2088 27.2882 33.3598C29.3374 32.5107 31.0887 31.0732 32.3206 29.2289C33.5526 27.3846 34.2098 25.2164 34.2092 22.9985C34.202 20.0279 33.0185 17.181 30.9177 15.0804C28.8168 12.9798 25.9696 11.7965 22.9985 11.7893ZM22.9985 31.5474C21.3074 31.548 19.654 31.0471 18.2476 30.1081C16.8411 29.1691 15.7448 27.8342 15.0972 26.2722C14.4496 24.7101 14.2798 22.9911 14.6094 21.3326C14.9389 19.6741 15.753 18.1505 16.9486 16.9546C18.1442 15.7587 19.6677 14.9442 21.3263 14.6141C22.985 14.284 24.7042 14.4531 26.2667 15.1001C27.8292 15.747 29.1647 16.8428 30.1043 18.2487C31.044 19.6546 31.5455 21.3076 31.5455 22.9985C31.5459 24.121 31.3251 25.2326 30.8958 26.2698C30.4664 27.307 29.8369 28.2494 29.0432 29.0433C28.2495 29.8372 27.3072 30.467 26.27 30.8966C25.2328 31.3263 24.1212 31.5474 22.9985 31.5474Z" fill="white"/>
</g>
<defs>
<clipPath id="clip0">
<rect width="46" height="46" fill="white"/>
</clipPath>
</defs>
</svg>
