<svg width="39" height="33" viewBox="0 0 39 33" fill="none" xmlns="http://www.w3.org/2000/svg">
<g filter="url(#filter0_d_64_2443)">
<path d="M28.3282 22.4907L27.0965 21.2089C27.5921 20.6955 27.985 20.0849 28.2523 19.4124C28.5196 18.7399 28.656 18.0189 28.6536 17.2912C28.6505 15.8249 28.0894 14.4197 27.0931 13.3829C26.0968 12.3461 24.7463 11.7623 23.3373 11.7591C22.4145 11.7541 21.5067 12.0011 20.7043 12.4753C19.9019 12.9495 19.2331 13.6344 18.7646 14.4616L17.2656 13.5306C17.8956 12.4398 18.7855 11.5367 19.8491 10.9086C20.9128 10.2805 22.1143 9.9487 23.3373 9.94531C25.2091 9.94691 27.0038 10.7214 28.3273 12.0987C29.6509 13.4759 30.3951 15.3434 30.3967 17.2912C30.3998 18.2572 30.2185 19.2142 29.8635 20.1067C29.5084 20.9993 28.9866 21.8096 28.3282 22.4907Z" fill="white"/>
<path d="M23.6059 6.63298C23.3748 6.63298 23.1531 6.53744 22.9896 6.36736C22.8262 6.19729 22.7344 5.96661 22.7344 5.72609V2.91471C22.7344 2.67418 22.8262 2.44351 22.9896 2.27343C23.1531 2.10335 23.3748 2.00781 23.6059 2.00781C23.837 2.00781 24.0587 2.10335 24.2222 2.27343C24.3856 2.44351 24.4774 2.67418 24.4774 2.91471V5.72609C24.4774 5.96661 24.3856 6.19729 24.2222 6.36736C24.0587 6.53744 23.837 6.63298 23.6059 6.63298Z" fill="white"/>
<path d="M37.128 18.1966H34.4262C34.1951 18.1966 33.9734 18.1011 33.8099 17.931C33.6465 17.7609 33.5547 17.5302 33.5547 17.2897C33.5547 17.0492 33.6465 16.8185 33.8099 16.6484C33.9734 16.4784 34.1951 16.3828 34.4262 16.3828H37.128C37.3591 16.3828 37.5808 16.4784 37.7442 16.6484C37.9076 16.8185 37.9995 17.0492 37.9995 17.2897C37.9995 17.5302 37.9076 17.7609 37.7442 17.931C37.5808 18.1011 37.3591 18.1966 37.128 18.1966Z" fill="white"/>
<path d="M32.5122 27.6663C32.2813 27.6654 32.06 27.5698 31.8963 27.4002L30.5542 25.9976C30.4727 25.9138 30.408 25.814 30.3638 25.704C30.3196 25.594 30.2969 25.4759 30.2969 25.3567C30.2969 25.2375 30.3196 25.1195 30.3638 25.0095C30.408 24.8994 30.4727 24.7997 30.5542 24.7159C30.7183 24.5475 30.9396 24.4531 31.1701 24.4531C31.4006 24.4531 31.6218 24.5475 31.786 24.7159L33.1281 26.1185C33.2096 26.2023 33.2743 26.3021 33.3185 26.4121C33.3627 26.5221 33.3854 26.6402 33.3854 26.7594C33.3854 26.8786 33.3627 26.9966 33.3185 27.1066C33.2743 27.2166 33.2096 27.3164 33.1281 27.4002C33.0474 27.4847 32.9515 27.5518 32.8458 27.5974C32.74 27.6431 32.6267 27.6665 32.5122 27.6663Z" fill="white"/>
<path d="M15.6455 10.0022C15.4146 10.0014 15.1933 9.90581 15.0296 9.73624L13.6875 8.33959C13.6058 8.25528 13.541 8.15504 13.4967 8.04453C13.4525 7.93401 13.4297 7.81545 13.4297 7.69573C13.4297 7.57601 13.4525 7.45745 13.4967 7.34694C13.541 7.23643 13.6058 7.13611 13.6875 7.0518C13.8516 6.88343 14.0729 6.78906 14.3033 6.78906C14.5338 6.78906 14.7551 6.88343 14.9192 7.0518L16.2614 8.4545C16.3429 8.53829 16.4076 8.63808 16.4518 8.74809C16.4959 8.8581 16.5187 8.97611 16.5187 9.09533C16.5187 9.21456 16.4959 9.33264 16.4518 9.44265C16.4076 9.55266 16.3429 9.65245 16.2614 9.73624C16.1807 9.82075 16.0848 9.88778 15.9791 9.93344C15.8733 9.9791 15.76 10.0025 15.6455 10.0022Z" fill="white"/>
<path d="M31.1706 10.4393C31.0565 10.4406 30.9432 10.4183 30.8375 10.3737C30.7318 10.329 30.6356 10.2629 30.5547 10.1793C30.473 10.095 30.4081 9.99464 30.3639 9.88412C30.3197 9.77361 30.2969 9.65512 30.2969 9.5354C30.2969 9.41568 30.3197 9.29712 30.3639 9.18661C30.4081 9.0761 30.473 8.97578 30.5547 8.89147L32.4604 6.90838C32.5409 6.82356 32.6368 6.75626 32.7426 6.7103C32.8483 6.66433 32.9617 6.64062 33.0763 6.64062C33.1909 6.64062 33.3043 6.66433 33.41 6.7103C33.5158 6.75626 33.6117 6.82356 33.6922 6.90838C33.7737 6.99217 33.8384 7.09196 33.8826 7.20197C33.9267 7.31198 33.9495 7.43006 33.9495 7.54929C33.9495 7.66851 33.9267 7.78652 33.8826 7.89653C33.8384 8.00654 33.7737 8.10633 33.6922 8.19012L31.7864 10.1793C31.6215 10.3461 31.4006 10.4394 31.1706 10.4393Z" fill="white"/>
<path d="M14.8194 13.727C16.4184 13.7201 17.9619 14.3372 19.1451 15.4565C20.3283 16.5757 21.0653 18.1159 21.2106 19.7729C21.6299 19.6588 22.0613 19.5999 22.4947 19.5976C23.843 19.5976 25.1361 20.1549 26.0896 21.147C27.043 22.1392 27.5786 23.4847 27.5786 24.8878C27.5786 26.2908 27.043 27.6364 26.0896 28.6285C25.1361 29.6206 23.843 30.178 22.4947 30.178H8.98017C7.59331 30.178 6.26325 29.6047 5.28259 28.5843C4.30192 27.5638 3.75099 26.1797 3.75099 24.7366C3.7458 23.3735 4.23248 22.0581 5.11474 21.0504C5.997 20.0428 7.21057 19.4164 8.51536 19.2953C8.75824 17.736 9.5265 16.3177 10.6826 15.2942C11.8388 14.2706 13.3073 13.7086 14.8252 13.7088L14.8194 13.727ZM14.8252 11.895C13.1096 11.8946 11.4378 12.4588 10.0489 13.5067C8.65991 14.5545 7.62492 16.0325 7.09186 17.7294C5.62393 18.1507 4.33038 19.0637 3.41136 20.3272C2.49234 21.5906 1.99909 23.134 2.00793 24.7185C2.00793 26.6427 2.7425 28.4881 4.05005 29.8487C5.35759 31.2093 7.13102 31.9737 8.98017 31.9737H22.4773C24.2874 31.9721 26.023 31.2231 27.303 29.8912C28.583 28.5593 29.3027 26.7533 29.3042 24.8697C29.3014 23.0042 28.5948 21.2144 27.3364 19.8858C26.078 18.5571 24.3685 17.7958 22.576 17.7657C22.0554 16.0523 21.0217 14.5572 19.6262 13.4988C18.2306 12.4403 16.5463 11.8741 14.8194 11.8829L14.8252 11.895Z" fill="white"/>
</g>
<defs>
<filter id="filter0_d_64_2443" x="0.305195" y="0.305195" width="38.2597" height="32.2597" filterUnits="userSpaceOnUse" color-interpolation-filters="sRGB">
<feFlood flood-opacity="0" result="BackgroundImageFix"/>
<feColorMatrix in="SourceAlpha" type="matrix" values="0 0 0 0 0 0 0 0 0 0 0 0 0 0 0 0 0 0 127 0" result="hardAlpha"/>
<feOffset dx="-0.564935" dy="-0.564935"/>
<feGaussianBlur stdDeviation="0.564935"/>
<feComposite in2="hardAlpha" operator="out"/>
<feColorMatrix type="matrix" values="0 0 0 0 0 0 0 0 0 0 0 0 0 0 0 0 0 0 0.5 0"/>
<feBlend mode="normal" in2="BackgroundImageFix" result="effect1_dropShadow_64_2443"/>
<feBlend mode="normal" in="SourceGraphic" in2="effect1_dropShadow_64_2443" result="shape"/>
</filter>
</defs>
</svg>
