<svg width="22" height="26" viewBox="0 0 22 26" fill="none" xmlns="http://www.w3.org/2000/svg">
<path d="M0.550918 14.8915L9.53383 25.3244C9.7171 25.5367 9.94257 25.7068 10.1952 25.8233C10.4479 25.9398 10.722 26 10.9992 26C11.2765 26 11.5506 25.9398 11.8033 25.8233C12.0559 25.7068 12.2814 25.5367 12.4647 25.3244L21.4491 14.8915C21.6333 14.6978 21.777 14.4678 21.8714 14.2157C21.9659 13.9635 22.0091 13.6943 21.9984 13.4246C21.9878 13.1548 21.9234 12.8901 21.8094 12.6465C21.6954 12.4029 21.534 12.1855 21.3351 12.0076C21.1361 11.8296 20.9038 11.6948 20.6522 11.6113C20.4007 11.5277 20.1351 11.4973 19.8716 11.5218C19.6081 11.5463 19.3523 11.6252 19.1197 11.7537C18.887 11.8822 18.6824 12.0577 18.5183 12.2694L12.9514 18.7291L12.9514 2.78496C12.9514 2.52347 12.9009 2.26454 12.8028 2.02294C12.7048 1.78135 12.561 1.56184 12.3798 1.37693C12.1986 1.19203 11.9835 1.04535 11.7468 0.945281C11.51 0.84521 11.2563 0.793704 11 0.793704C10.7437 0.793704 10.49 0.84521 10.2532 0.945281C10.0165 1.04535 9.80138 1.19203 9.62018 1.37693C9.43898 1.56184 9.29524 1.78135 9.19718 2.02294C9.09911 2.26453 9.04864 2.52347 9.04864 2.78496L9.04864 18.7291L3.48174 12.2632C3.3176 12.0515 3.11299 11.8761 2.88034 11.7475C2.64769 11.619 2.39185 11.5401 2.12839 11.5156C1.86493 11.4911 1.59933 11.5216 1.34775 11.6051C1.09618 11.6886 0.863862 11.8234 0.664935 12.0014C0.46601 12.1794 0.304624 12.3968 0.190589 12.6404C0.0765545 12.884 0.012252 13.1487 0.00158801 13.4184C-0.009076 13.6882 0.0341178 13.9573 0.128553 14.2095C0.222987 14.4617 0.366687 14.6916 0.550918 14.8854L0.550918 14.8915Z" fill="#E5E5E5"/>
</svg>
