<svg width="22" height="26" viewBox="0 0 22 26" fill="none" xmlns="http://www.w3.org/2000/svg">
<path  d="M21.4491 11.1085L12.4662 0.675563C12.2829 0.463258 12.0574 0.293209 11.8048 0.176727C11.5521 0.0602447 11.278 0 11.0008 0C10.7235 0 10.4494 0.0602447 10.1967 0.176727C9.94408 0.293209 9.71861 0.463258 9.53535 0.675563L0.550918 11.1085C0.366688 11.3022 0.222989 11.5322 0.128554 11.7843C0.0341197 12.0365 -0.00907821 12.3057 0.00158616 12.5754C0.0122505 12.8452 0.0765543 13.1099 0.190589 13.3535C0.304625 13.5971 0.466009 13.8145 0.664935 13.9924C0.863861 14.1704 1.09617 14.3052 1.34775 14.3887C1.59933 14.4723 1.86493 14.5027 2.12839 14.4782C2.39185 14.4537 2.64769 14.3748 2.88034 14.2463C3.11299 14.1178 3.3176 13.9423 3.48174 13.7306L9.04864 7.27094L9.04864 23.215C9.04864 23.4765 9.09911 23.7355 9.19718 23.9771C9.29524 24.2186 9.43898 24.4382 9.62018 24.6231C9.80138 24.808 10.0165 24.9546 10.2532 25.0547C10.49 25.1548 10.7437 25.2063 11 25.2063C11.2563 25.2063 11.51 25.1548 11.7468 25.0547C11.9835 24.9546 12.1986 24.808 12.3798 24.6231C12.561 24.4382 12.7048 24.2186 12.8028 23.9771C12.9009 23.7355 12.9514 23.4765 12.9514 23.215L12.9514 7.27094L18.5183 13.7368C18.6824 13.9485 18.887 14.1239 19.1197 14.2524C19.3523 14.381 19.6081 14.4599 19.8716 14.4844C20.1351 14.5089 20.4007 14.4784 20.6522 14.3949C20.9038 14.3114 21.1361 14.1766 21.3351 13.9986C21.534 13.8206 21.6954 13.6032 21.8094 13.3596C21.9234 13.116 21.9877 12.8513 21.9984 12.5816C22.0091 12.3118 21.9659 12.0427 21.8714 11.7905C21.777 11.5383 21.6333 11.3084 21.4491 11.1146V11.1085Z" fill="#E5E5E5"/>

</svg>
