<svg width="26" height="22" viewBox="0 0 26 22" fill="none" xmlns="http://www.w3.org/2000/svg">
<path d="M11.1085 0.550916L0.675562 9.53383C0.463258 9.7171 0.293209 9.94257 0.176726 10.1952C0.0602442 10.4479 -4.92978e-07 10.722 -4.80858e-07 10.9992C-4.68739e-07 11.2765 0.0602443 11.5506 0.176726 11.8033C0.293209 12.0559 0.463258 12.2814 0.675562 12.4647L11.1085 21.4491C11.3022 21.6333 11.5322 21.777 11.7843 21.8714C12.0365 21.9659 12.3057 22.0091 12.5754 21.9984C12.8452 21.9877 13.1099 21.9234 13.3535 21.8094C13.5971 21.6954 13.8145 21.534 13.9924 21.3351C14.1704 21.1361 14.3052 20.9038 14.3887 20.6522C14.4723 20.4007 14.5027 20.1351 14.4782 19.8716C14.4537 19.6081 14.3748 19.3523 14.2463 19.1197C14.1178 18.887 13.9423 18.6824 13.7306 18.5183L7.27094 12.9514L23.215 12.9514C23.4765 12.9514 23.7355 12.9009 23.9771 12.8028C24.2186 12.7048 24.4382 12.561 24.6231 12.3798C24.808 12.1986 24.9546 11.9835 25.0547 11.7468C25.1548 11.51 25.2063 11.2563 25.2063 11C25.2063 10.7437 25.1548 10.49 25.0547 10.2532C24.9546 10.0165 24.808 9.80138 24.6231 9.62018C24.4382 9.43898 24.2186 9.29524 23.9771 9.19718C23.7355 9.09911 23.4765 9.04864 23.215 9.04864L7.27094 9.04864L13.7368 3.48174C13.9485 3.3176 14.1239 3.11299 14.2524 2.88034C14.381 2.64768 14.4599 2.39185 14.4844 2.12839C14.5089 1.86492 14.4784 1.59933 14.3949 1.34775C14.3114 1.09617 14.1766 0.86386 13.9986 0.664934C13.8206 0.466009 13.6032 0.304622 13.3596 0.190587C13.116 0.0765528 12.8513 0.0122503 12.5816 0.00158636C12.3118 -0.00907761 12.0427 0.0341162 11.7905 0.128551C11.5383 0.222986 11.3084 0.366685 11.1146 0.550916L11.1085 0.550916Z" fill="#E5E5E5"/>
</svg>
