<svg width="14" height="50" viewBox="0 0 14 50" fill="none" xmlns="http://www.w3.org/2000/svg">
<path d="M7.00048 2.18522C2.18117 2.18522 2.18117 4.23934 2.18117 5.33923C2.17661 5.63802 2.1985 5.93662 2.24658 6.23153V6.26067L6.22634 29.4022H7.77463L11.7435 6.27523C11.7941 5.97806 11.8197 5.67713 11.8198 5.37565C11.8198 3.91883 11.3073 3.37617 10.9257 3.08116C10.1625 2.49479 8.80682 2.18522 7.00048 2.18522ZM7.00048 38.9043C4.12198 38.9043 3.04981 39.975 3.04981 42.8595C3.04981 45.744 4.12198 46.8184 7.00048 46.8184C9.87899 46.8184 10.9475 45.7258 10.9475 42.8595C10.9475 39.9932 9.87899 38.9043 7.00048 38.9043ZM7.00048 0C11.6672 0 14.0005 1.79188 14.0005 5.37565C13.9997 5.79667 13.9644 6.21691 13.8951 6.63215L9.61367 31.5874H4.3873L0.102257 6.63215C0.0292149 6.20517 -0.00485897 5.77241 0.000480652 5.33923C0.000480652 1.78217 2.33382 0.00242803 7.00048 0ZM7.00048 36.719C11.0856 36.719 13.1282 38.7659 13.1282 42.8595C13.1282 46.9532 11.0856 49.0012 7.00048 49.0036C2.91049 49.0036 0.866703 46.9556 0.869125 42.8595C0.871549 38.7634 2.91533 36.7166 7.00048 36.719Z" fill="white"/>
</svg>
