<svg width="48" height="48" viewBox="0 0 48 48" fill="none" xmlns="http://www.w3.org/2000/svg">
<path d="M17.1263 2.79835C17.2552 3.10896 17.3705 3.39719 17.4857 3.68262C17.826 4.52026 18.1653 5.35977 18.5038 6.20114C18.6282 6.56284 18.8629 6.87447 19.1734 7.09046C19.484 7.30645 19.8541 7.41549 20.2298 7.40162H20.4273C20.7786 7.36525 22.1506 7.20854 23.5226 7.20854H23.6488C24.7464 7.20854 25.844 7.32887 26.4504 7.35965C26.5273 7.35965 26.5986 7.35965 26.67 7.35965C27.6606 7.35965 28.2231 6.97907 28.6265 5.98846L29.9024 2.84312L33.6754 4.42419C33.2446 5.50155 32.8056 6.6013 32.3638 7.69825C31.9632 8.68606 32.0894 9.3045 32.9126 10.0237C33.187 10.2615 34.2188 11.115 35.1435 12.0581C35.8679 12.794 37.3826 14.6689 37.7064 14.9152C37.9657 15.1231 38.2849 15.2382 38.6147 15.2426C38.8483 15.2397 39.0789 15.1883 39.2925 15.0915C40.2831 14.6577 41.2819 14.252 42.278 13.8238L42.7444 13.6279C43.2713 14.9264 43.7844 16.1856 44.314 17.4925C43.6061 17.7947 42.9118 18.0857 42.2203 18.3767L40.9938 18.8972C40.6019 19.0296 40.2684 19.2985 40.0516 19.6567C39.8348 20.0149 39.7487 20.4395 39.8083 20.8561C39.8385 21.2506 40.0388 22.8149 40.0443 24.3624C40.0443 25.381 39.8742 26.4164 39.8413 26.9648C39.7672 28.1765 40.091 28.7558 41.1776 29.2035C42.2148 29.6401 43.2466 30.0878 44.2372 30.5103L42.6649 34.3833C41.6331 33.9411 40.5355 33.4626 39.4352 32.9841C39.1703 32.8648 38.8849 32.8001 38.5955 32.7938C38.3315 32.8024 38.0728 32.8715 37.8386 32.996C37.6044 33.1205 37.4008 33.2972 37.2427 33.513C36.521 34.3525 35.8707 35.2368 35.0969 36.0315C34.459 36.655 33.7836 37.2373 33.0745 37.7748C32.3254 38.3849 31.8342 39.2132 32.3995 40.4305C32.8715 41.4491 33.2556 42.5097 33.6919 43.587L29.9134 45.1821L29.3646 43.8612C29.0902 43.1952 28.8158 42.5264 28.5414 41.8604C28.1819 40.979 27.6084 40.5956 26.7221 40.5956H26.4834C25.1333 40.6907 23.7805 40.7803 22.4305 40.8055H22.3536C21.7198 40.8055 21.0859 40.6571 20.4493 40.6124H20.2133C19.327 40.6124 18.8111 41.0041 18.4489 41.894L17.1427 45.1821L13.3697 43.587C13.7648 42.6104 14.1243 41.575 14.5935 40.5956C15.2109 39.3055 14.846 38.4437 13.8883 37.7245C12.4049 36.6049 11.0967 35.2623 10.0083 33.7424C9.55277 33.11 9.08628 32.8218 8.51553 32.8218C8.14654 32.8349 7.78376 32.9224 7.4481 33.0792L4.31443 34.3861C3.78484 33.0848 3.27445 31.8256 2.74485 30.5187L4.4681 29.7912L6.06237 29.1168C6.94595 28.7446 7.32737 28.129 7.24779 27.1327C7.18193 26.2932 7.09138 25.2467 6.97339 24.1693C6.8554 23.0919 7.14077 22.1797 7.18468 20.982C7.19361 20.5944 7.14551 20.2077 7.04199 19.8347C6.98545 19.6341 6.88274 19.4503 6.74241 19.2984C6.60208 19.1465 6.4282 19.031 6.23525 18.9616C5.07178 18.4859 3.91381 17.9906 2.77229 17.512C3.30189 16.2192 3.81777 14.9544 4.35834 13.6307L6.99809 14.7501L7.48926 14.96C7.77624 15.0872 8.08468 15.1566 8.39754 15.1642C8.68548 15.1554 8.96769 15.08 9.22293 14.9438C9.47816 14.8076 9.69977 14.6141 9.87107 14.3779C10.3019 13.8658 11.1525 12.8304 11.6519 12.2232C12.1514 11.6159 13.1282 10.9835 14.1216 10.0824C14.9009 9.38565 15.0847 8.68327 14.6951 7.71504C14.3054 6.74681 13.9185 5.80937 13.5289 4.84114L13.3697 4.42419C13.4904 4.35703 13.5618 4.30945 13.6441 4.27587C14.7884 3.78896 15.9354 3.30765 17.14 2.79835H17.1263ZM17.14 3.60536e-06C16.7802 -0.00058828 16.4239 0.0717019 16.0918 0.212678L15.3756 0.514899L12.5904 1.6902C12.4301 1.76033 12.2743 1.84071 12.1239 1.93086L12.0663 1.96444C11.4699 2.29431 11.0145 2.83779 10.788 3.48998C10.5615 4.14217 10.5799 4.85681 10.8397 5.49595L10.9412 5.745L11.0071 5.9129L11.4434 6.98187L11.9757 8.29709C11.737 8.49578 11.4955 8.68886 11.2595 8.87635C10.6396 9.33364 10.0684 9.85606 9.55551 10.435L9.29757 10.7484C8.93262 11.1934 8.47437 11.7614 8.10667 12.1952L8.06825 12.1784L6.10628 11.3389L5.42851 11.0591C5.08762 10.9151 4.72178 10.8428 4.35285 10.8464C3.81127 10.8463 3.28178 11.0097 2.83108 11.316C2.38038 11.6222 2.02863 12.0576 1.82012 12.5674L0.234075 16.4431C0.0952066 16.7831 0.0235287 17.1477 0.0231532 17.5161C0.0227777 17.8844 0.093712 18.2492 0.231887 18.5895C0.370063 18.9298 0.57276 19.239 0.828354 19.4992C1.08395 19.7595 1.38741 19.9657 1.72133 20.1061L2.68449 20.5119C3.25799 20.7553 3.84521 21.0044 4.43791 21.2506C4.41871 21.4801 4.38852 21.7152 4.35834 21.9558C4.22799 22.7828 4.19574 23.6227 4.2623 24.4575C4.35285 25.367 4.42145 26.1617 4.47359 26.7718L3.92478 26.9984L3.41714 27.2139L2.88754 27.4378L1.69389 27.9415C1.36088 28.0821 1.0583 28.2884 0.803453 28.5483C0.548604 28.8083 0.346476 29.1169 0.208617 29.4565C0.0707585 29.7962 -0.000130508 30.1602 1.80369e-07 30.5278C0.000130869 30.8954 0.0712788 31.2594 0.209379 31.5989L1.50456 34.7918L1.77896 35.4634C2.05757 36.1486 2.59155 36.6929 3.26353 36.9768C3.93552 37.2607 4.69053 37.2609 5.36265 36.9773L6.6249 36.4456L8.10667 35.8188C9.21495 37.2893 10.5064 38.6063 11.9483 39.7365C11.6547 40.3885 11.3995 41.0265 11.169 41.6478C11.0537 41.9276 10.944 42.2298 10.8287 42.5152C10.5553 43.1977 10.557 43.9625 10.8334 44.6437C11.1099 45.3249 11.6387 45.8673 12.305 46.1531L12.8209 46.3854L16.0808 47.7845C16.4167 47.9261 16.7765 47.9993 17.14 48C17.6861 47.9994 18.2196 47.8327 18.6723 47.5211C19.125 47.2095 19.4762 46.7673 19.6809 46.251L20.0898 45.2408L20.806 43.4751H20.8965C21.3879 43.5524 21.8839 43.5954 22.3811 43.6038H22.5073C23.7394 43.5814 24.9385 43.5087 26.2337 43.4191L26.5739 44.2586L26.8483 44.9274L27.0788 45.4871L27.3862 46.2426C27.6648 46.9278 28.1987 47.4722 28.8707 47.756C29.5427 48.0399 30.2977 48.0401 30.9698 47.7565L32.9538 46.917L34.7511 46.1587C35.0841 46.018 35.3867 45.8118 35.6415 45.5518C35.8964 45.2919 36.0985 44.9833 36.2364 44.6436C36.3742 44.304 36.4451 43.9399 36.445 43.5724C36.4449 43.2048 36.3737 42.8408 36.2356 42.5013C36.1039 42.1794 35.9777 41.8576 35.8542 41.5386C35.6182 40.937 35.374 40.3213 35.1023 39.7001L35.1517 39.6609C35.8275 39.1449 36.4692 38.584 37.0725 37.9819C37.6214 37.3971 38.1235 36.801 38.5955 36.2218L38.9412 35.802L40.67 36.5464L41.6057 36.9493C41.9382 37.0919 42.2951 37.1661 42.6558 37.1679C43.0166 37.1696 43.3741 37.0988 43.708 36.9595C44.0419 36.8202 44.3455 36.6151 44.6016 36.356C44.8577 36.0969 45.0611 35.7888 45.2003 35.4494L45.8946 33.7396L46.7727 31.5765C47.0461 30.8941 47.0444 30.1292 46.768 29.4481C46.4915 28.7669 45.9627 28.2245 45.2964 27.9387L44.3909 27.5525C43.8064 27.3006 43.2109 27.046 42.6127 26.7941C42.6127 26.7354 42.6127 26.6738 42.6319 26.6123C42.7287 25.8643 42.7809 25.1111 42.7883 24.3568C42.7883 23.1731 42.6786 22.0062 42.6045 21.259L42.8789 21.1387L43.2603 20.9764L45.0247 20.232L45.354 20.0921C45.6891 19.9523 45.9937 19.7462 46.2503 19.4858C46.507 19.2254 46.7105 18.9157 46.8493 18.5747C46.988 18.2337 47.0593 17.868 47.0588 17.4988C47.0584 17.1296 46.9863 16.7642 46.8467 16.4235L45.8809 14.0393L45.2772 12.5562C44.9986 11.871 44.4646 11.3266 43.7926 11.0428C43.1206 10.7589 42.3656 10.7587 41.6935 11.0423L41.2242 11.2382L40.3489 11.6075C39.8907 11.8006 39.4214 11.9965 38.9522 12.198L38.5379 11.7195C38.0165 11.115 37.4787 10.491 37.0753 10.0796C36.3536 9.34367 35.5963 8.68047 35.1078 8.25792L35.8268 6.46138L36.2192 5.48196C36.4918 4.79779 36.4881 4.03146 36.209 3.35002C35.9299 2.66858 35.398 2.12728 34.7292 1.84411L34.334 1.67621L30.9589 0.249056C30.2868 -0.0346753 29.5318 -0.0346753 28.8597 0.249056C28.5246 0.388778 28.22 0.594722 27.9633 0.855027C27.7067 1.11533 27.5031 1.42485 27.3642 1.76576L26.9828 2.73119L26.2666 4.52772L26.0224 4.51093C25.4022 4.46336 24.5488 4.3962 23.6708 4.3962H23.5198C22.4826 4.3962 21.47 4.48855 20.8225 4.54731L20.3313 3.37481L20.0212 2.61366L19.6617 1.72658C19.4539 1.21536 19.1021 0.778473 18.6508 0.471148C18.1995 0.163822 17.6689 -0.000135659 17.1263 3.60536e-06H17.14Z" fill="white"/>
<path d="M23.5224 17.4617C25.0149 17.4541 26.4632 17.9778 27.6176 18.9426C28.772 19.9074 29.5601 21.2528 29.8459 22.7467C30.1317 24.2406 29.8974 25.7894 29.1833 27.126C28.4693 28.4625 27.3202 29.5031 25.9344 30.0682C25.1726 30.403 24.3518 30.5753 23.5224 30.5747C21.8172 30.5747 20.1819 29.884 18.9762 28.6544C17.7705 27.4248 17.0931 25.7571 17.0931 24.0182C17.0931 22.2793 17.7705 20.6116 18.9762 19.3821C20.1819 18.1525 21.8172 17.4617 23.5224 17.4617ZM23.5224 14.6633C21.0895 14.6633 18.7562 15.6489 17.0359 17.4033C15.3156 19.1577 14.3491 21.5371 14.3491 24.0182C14.3491 26.4993 15.3156 28.8787 17.0359 30.6331C18.7562 32.3875 21.0895 33.3731 23.5224 33.3731C24.7181 33.3774 25.9021 33.1327 27.0018 32.6539C28.9757 31.8405 30.6099 30.351 31.6232 28.4415C32.6364 26.5321 32.9654 24.3222 32.5534 22.1921C32.1415 20.062 31.0143 18.145 29.366 16.7708C27.7177 15.3967 25.6513 14.6515 23.5224 14.6633Z" fill="white"/>
</svg>
