
<?xml version="1.0" encoding="utf-8"?>
<!-- Generator: Adobe Illustrator 24.2.1, SVG Export Plug-In . SVG Version: 6.00 Build 0)  -->
<svg version="1.1" id="Layer_1" xmlns="http://www.w3.org/2000/svg" xmlns:xlink="http://www.w3.org/1999/xlink" x="0px" y="0px"
	 viewBox="0 0 345 162" style="enable-background:new 0 0 345 162;" xml:space="preserve">
<style type="text/css">
	.background{fill:#D8D8D8;}
	.passive-button{fill:#494849;}
	.st2{fill:#FFFFFF;}
	.inscription{fill:#535453;}
</style>
<path class="background" d="M172,159.8c-30.9,0-61.9,0.8-92.8-0.2c-32.8-1-56.3-17.9-69.2-47.7C-10.6,64,19.8,10.6,71.4,2.7
	C75.6,2.1,79.9,2,84.1,2c59,0,117.9-0.1,176.9,0c38.8,0.1,70.3,24.3,78.6,62.1c10.3,47.2-21.8,87.9-63.5,94.7
	c-4.8,0.8-9.7,1.1-14.6,1.1C231.6,159.9,201.8,159.9,172,159.8C172,159.8,172,159.8,172,159.8z"/>
<g>
	<g>
		<g id="bottom">
			<path class="passive-button" d="M107.1,111.7c-6.7,5.4-15.2,8.6-24.5,8.6s-17.8-3.2-24.5-8.6L43,126.7c10.6,9.2,24.4,14.8,39.6,14.8
				s29-5.6,39.6-14.8L107.1,111.7z M81.9,134.6l-7.7-6.7h15.3L81.9,134.6z"/>
		</g>
		<g id="up">
			<path class="passive-button" d="M58.1,50.3c6.7-5.4,15.2-8.6,24.5-8.6s17.8,3.2,24.5,8.6l15.1-15.1c-10.6-9.2-24.4-14.8-39.6-14.8
				s-29,5.6-39.6,14.8L58.1,50.3z M83.2,27.4l7.7,6.7H75.5L83.2,27.4z"/>
		</g>
		<g id="left">
			<path class="passive-button" d="M51.9,105.5c-5.4-6.7-8.6-15.2-8.6-24.5s3.2-17.8,8.6-24.5L36.8,41.4C27.6,52,22.1,65.9,22.1,81
				s5.6,29,14.8,39.6L51.9,105.5z M28.9,80.4l6.7-7.7V88L28.9,80.4z"/>
		</g>
		<g id="right">
			<path class="active-button" d="M113.2,56.5c5.4,6.7,8.6,15.2,8.6,24.5s-3.2,17.8-8.6,24.5l15.1,15.1c9.2-10.6,14.8-24.4,14.8-39.6
				s-5.6-29-14.8-39.6L113.2,56.5z M136.2,81.6l-6.7,7.7V74L136.2,81.6z"/>
		</g>
	</g>
	<circle id="center" class="active-button" cx="82.6" cy="81" r="26.9"/>
</g>
<g>
	<path class="inscription" d="M182.6,142.4h-3.2v-5.8h-5.8v5.8h-3.2v-14.4h3.2v5.7h5.8v-5.7h3.2V142.4z"/>
	<path class="inscription" d="M191.7,142.7c-2,0-3.7-0.7-4.9-2s-1.9-3.1-1.9-5.2c0-2.3,0.6-4.1,1.9-5.5s3-2.1,5.1-2.1c2,0,3.6,0.7,4.9,2
		c1.2,1.3,1.9,3.1,1.9,5.3c0,2.3-0.6,4.1-1.9,5.5C195.5,142,193.8,142.7,191.7,142.7z M191.9,130.6c-1.1,0-2,0.4-2.6,1.3s-1,2-1,3.4
		c0,1.4,0.3,2.5,1,3.4c0.7,0.8,1.5,1.2,2.6,1.2c1.1,0,2-0.4,2.6-1.2c0.6-0.8,1-1.9,1-3.3c0-1.5-0.3-2.6-0.9-3.5
		S192.9,130.6,191.9,130.6z"/>
	<path class="inscription" d="M217,142.4h-3.1v-8.6c0-0.9,0-2,0.1-3.1h-0.1c-0.2,0.9-0.3,1.5-0.4,1.9l-3.3,9.8h-2.6l-3.4-9.7
		c-0.1-0.3-0.2-0.9-0.4-2h-0.1c0.1,1.4,0.1,2.7,0.1,3.7v7.9H201v-14.4h4.6l2.9,8.5c0.2,0.7,0.4,1.4,0.5,2.1h0.1
		c0.2-0.8,0.4-1.5,0.6-2.1l2.9-8.5h4.5V142.4z"/>
	<path class="inscription" d="M228.7,142.4h-8.4v-14.4h8.1v2.6h-4.9v3.2h4.6v2.6h-4.6v3.3h5.3V142.4z"/>
	<path class="inscription" d="M252.5,142.4h-3.1v-8.6c0-0.9,0-2,0.1-3.1h-0.1c-0.2,0.9-0.3,1.5-0.4,1.9l-3.3,9.8h-2.6l-3.4-9.7
		c-0.1-0.3-0.2-0.9-0.4-2h-0.1c0.1,1.4,0.1,2.7,0.1,3.7v7.9h-2.9v-14.4h4.6l2.9,8.5c0.2,0.7,0.4,1.4,0.5,2.1h0.1
		c0.2-0.8,0.4-1.5,0.6-2.1l2.9-8.5h4.5V142.4z"/>
	<path class="inscription" d="M264.1,142.4h-8.4v-14.4h8.1v2.6h-4.9v3.2h4.6v2.6h-4.6v3.3h5.3V142.4z"/>
	<path class="inscription" d="M279,142.4h-3.2l-5.8-9c-0.3-0.5-0.6-0.9-0.7-1.2h0c0.1,0.5,0.1,1.3,0.1,2.3v7.9h-3v-14.4h3.4l5.6,8.7
		c0.3,0.4,0.5,0.8,0.7,1.2h0c-0.1-0.3-0.1-1-0.1-2v-7.9h3V142.4z"/>
	<path class="inscription" d="M293.7,136.2c0,4.3-2,6.5-5.9,6.5c-3.8,0-5.7-2.1-5.7-6.3v-8.3h3.2v8.3c0,2.3,0.9,3.5,2.7,3.5
		c1.7,0,2.6-1.1,2.6-3.4v-8.4h3.2V136.2z"/>
</g>
<polygon points="81.9,134.8 74.2,127.8 89.7,127.8 "/>
<polygon points="83.2,27.1 75.4,34.1 91,34.1 "/>
<polygon points="136.5,81.8 129.5,89.6 129.5,74 "/>
<polygon points="28.7,80.2 35.7,72.4 35.7,88 "/>
</svg>
